<svg width="104" height="104" viewBox="0 0 104 104" fill="none" xmlns="http://www.w3.org/2000/svg">
<path d="M47.4784 7.98196C49.0408 5.46035 52.7092 5.46035 54.2716 7.98196C55.5811 10.0955 58.4823 10.5126 60.3343 8.85364C62.5438 6.87434 66.0636 7.90786 66.8523 10.7675C67.5133 13.1644 70.1795 14.382 72.4238 13.3119C75.1014 12.0353 78.1875 14.0186 78.1386 16.9846C78.0975 19.4706 80.3127 21.39 82.7675 20.9956C85.6964 20.5251 88.0987 23.2975 87.2161 26.1296C86.4764 28.5033 88.061 30.9691 90.5276 31.2823C93.4703 31.6559 94.9943 34.9928 93.3495 37.4615C91.971 39.5307 92.7968 42.343 95.0752 43.3385C97.7935 44.5261 98.3155 48.1572 96.0419 50.0625C94.1363 51.6595 94.1363 54.5905 96.0419 56.1875C98.3155 58.0928 97.7935 61.7239 95.0752 62.9115C92.7968 63.907 91.971 66.7193 93.3495 68.7885C94.9943 71.2572 93.4703 74.5941 90.5276 74.9677C88.061 75.2809 86.4764 77.7467 87.2161 80.1204C88.0987 82.9525 85.6964 85.7249 82.7675 85.2544C80.3127 84.86 78.0975 86.7794 78.1386 89.2654C78.1875 92.2314 75.1014 94.2147 72.4238 92.9381C70.1795 91.868 67.5133 93.0856 66.8523 95.4825C66.0636 98.3421 62.5438 99.3757 60.3343 97.3964C58.4823 95.7374 55.5811 96.1545 54.2716 98.268C52.7092 100.79 49.0408 100.79 47.4784 98.268C46.1689 96.1545 43.2677 95.7374 41.4157 97.3964C39.2062 99.3757 35.6864 98.3421 34.8977 95.4825C34.2367 93.0856 31.5705 91.868 29.3262 92.9381C26.6486 94.2147 23.5625 92.2314 23.6114 89.2654C23.6525 86.7794 21.4373 84.86 18.9825 85.2544C16.0536 85.7249 13.6513 82.9525 14.5339 80.1204C15.2736 77.7467 13.689 75.2809 11.2224 74.9677C8.27966 74.5941 6.75575 71.2572 8.40045 68.7885C9.779 66.7193 8.95323 63.907 6.67484 62.9115C3.95654 61.7239 3.43447 58.0928 5.70807 56.1875C7.61373 54.5905 7.61373 51.6595 5.70807 50.0625C3.43447 48.1572 3.95654 44.5261 6.67484 43.3385C8.95323 42.343 9.779 39.5307 8.40045 37.4615C6.75575 34.9928 8.27966 31.6559 11.2224 31.2823C13.689 30.9691 15.2736 28.5033 14.5339 26.1296C13.6513 23.2975 16.0536 20.5251 18.9825 20.9956C21.4373 21.39 23.6525 19.4706 23.6114 16.9846C23.5625 14.0186 26.6486 12.0353 29.3262 13.3119C31.5705 14.382 34.2367 13.1644 34.8977 10.7675C35.6864 7.90786 39.2062 6.87434 41.4157 8.85364C43.2677 10.5126 46.1689 10.0955 47.4784 7.98196Z" fill="#82B4B4"/>
<path d="M49.7284 5.73196C51.2908 3.21035 54.9592 3.21035 56.5216 5.73196C57.8311 7.8455 60.7323 8.26263 62.5843 6.60364C64.7938 4.62434 68.3136 5.65786 69.1023 8.5175C69.7633 10.9144 72.4295 12.132 74.6738 11.0619C77.3514 9.78529 80.4375 11.7686 80.3886 14.7346C80.3475 17.2206 82.5627 19.14 85.0175 18.7456C87.9464 18.2751 90.3487 21.0475 89.4661 23.8796C88.7264 26.2533 90.311 28.7191 92.7776 29.0323C95.7203 29.4059 97.2443 32.7428 95.5995 35.2115C94.221 37.2807 95.0468 40.093 97.3252 41.0885C100.043 42.2761 100.566 45.9072 98.2919 47.8125C96.3863 49.4095 96.3863 52.3405 98.2919 53.9375C100.566 55.8428 100.043 59.4739 97.3252 60.6615C95.0468 61.657 94.221 64.4693 95.5995 66.5385C97.2443 69.0072 95.7203 72.3441 92.7776 72.7177C90.311 73.0309 88.7264 75.4967 89.4661 77.8704C90.3487 80.7025 87.9464 83.4749 85.0175 83.0044C82.5627 82.61 80.3475 84.5294 80.3886 87.0154C80.4375 89.9814 77.3514 91.9647 74.6738 90.6881C72.4295 89.618 69.7633 90.8356 69.1023 93.2325C68.3136 96.0921 64.7938 97.1257 62.5843 95.1464C60.7323 93.4874 57.8311 93.9045 56.5216 96.018C54.9592 98.5397 51.2908 98.5397 49.7284 96.018C48.4189 93.9045 45.5177 93.4874 43.6657 95.1464C41.4562 97.1257 37.9364 96.0921 37.1477 93.2325C36.4867 90.8356 33.8205 89.618 31.5762 90.6881C28.8986 91.9647 25.8125 89.9814 25.8614 87.0154C25.9025 84.5294 23.6873 82.61 21.2325 83.0044C18.3036 83.4749 15.9013 80.7025 16.7839 77.8704C17.5236 75.4967 15.939 73.0309 13.4724 72.7177C10.5297 72.3441 9.00575 69.0072 10.6505 66.5385C12.029 64.4693 11.2032 61.657 8.92484 60.6615C6.20654 59.4739 5.68447 55.8428 7.95807 53.9375C9.86373 52.3405 9.86373 49.4095 7.95807 47.8125C5.68447 45.9072 6.20654 42.2761 8.92484 41.0885C11.2032 40.093 12.029 37.2807 10.6505 35.2115C9.00575 32.7428 10.5297 29.4059 13.4724 29.0323C15.939 28.7191 17.5236 26.2533 16.7839 23.8796C15.9013 21.0475 18.3036 18.2751 21.2325 18.7456C23.6873 19.14 25.9025 17.2206 25.8614 14.7346C25.8125 11.7686 28.8986 9.78529 31.5762 11.0619C33.8205 12.132 36.4867 10.9144 37.1477 8.5175C37.9364 5.65786 41.4562 4.62434 43.6657 6.60364C45.5177 8.26263 48.4189 7.8455 49.7284 5.73196Z" fill="white"/>
<path d="M45.0976 66.0874C45.6333 68.0869 45.3921 69.9685 44.3739 71.7321C43.3769 73.459 41.8054 74.7807 39.6595 75.6974L40.8126 80.0006C40.8669 80.2034 40.6912 80.3592 40.2856 80.4679C39.8509 80.5844 39.6064 80.5412 39.552 80.3383L38.4339 76.1655L37.7819 76.3402C36.4779 76.6896 35.0694 76.8807 33.5563 76.9134C32.0355 76.9172 30.9705 76.7677 30.3614 76.4651C30.1854 76.388 30.0424 76.3176 29.9321 76.254C29.8431 76.1536 29.7675 75.9875 29.7054 75.7557L27.7232 68.8794L27.7115 68.8359C27.6805 68.72 27.7374 68.6427 27.8823 68.6038C28.0194 68.536 28.118 68.5562 28.178 68.6644C29.432 70.0987 30.5252 71.281 31.4578 72.2113C32.3826 73.1127 33.4212 73.8593 34.5737 74.4512C35.7262 75.0431 36.912 75.2378 38.1311 75.0354L35.1728 63.9949C34.7185 63.806 34.0157 63.5595 33.0646 63.2553C31.4329 62.7297 30.1405 62.253 29.1873 61.8251C28.263 61.3895 27.4053 60.7963 26.614 60.0455C25.8227 59.2947 25.264 58.3108 24.9379 57.0937C24.3866 55.0363 24.7052 53.2116 25.8937 51.6198C27.1112 50.0202 28.7794 48.8278 30.8984 48.0426L29.9201 44.3914C29.889 44.2755 29.9237 44.173 30.0241 44.084C30.1534 43.9872 30.305 43.9155 30.4789 43.869C30.6528 43.8224 30.8054 43.8125 30.9369 43.8394C31.0683 43.8663 31.1496 43.9377 31.1806 44.0536L32.1473 47.6614L32.1908 47.6497C33.205 47.378 34.2609 47.2037 35.3584 47.1271C36.4482 47.0214 37.3468 47.0136 38.0542 47.1035C38.3461 47.1496 38.5549 47.2334 38.6806 47.355C38.7986 47.4476 38.8848 47.5953 38.9391 47.7982L40.6512 54.1878C40.6745 54.2747 40.6215 54.3666 40.4921 54.4633C40.355 54.5311 40.2603 54.5255 40.208 54.4463L39.5839 53.6818C38.5193 52.2588 37.4261 51.0765 36.3041 50.1348C35.2034 49.1563 33.9148 48.6941 32.4385 48.748L35.2104 59.0931L36.2312 59.4252C37.9285 59.9643 39.305 60.4651 40.3607 60.9276C41.4164 61.3901 42.3844 62.047 43.2647 62.8982C44.1372 63.7203 44.7482 64.7834 45.0976 66.0874ZM28.3661 53.8923C28.6767 55.0514 29.2856 55.9908 30.1928 56.7106C31.0922 57.4013 32.2669 58.0183 33.717 58.5615L31.143 48.9554C30.0206 49.2872 29.1865 49.8834 28.6407 50.744C28.1238 51.5968 28.0323 52.6463 28.3661 53.8923ZM39.3916 74.6976C40.3169 74.3255 40.9838 73.743 41.3926 72.9502C41.8225 72.1207 41.8628 71.0539 41.5134 69.7499C41.1795 68.5039 40.5947 67.4803 39.7589 66.6794C38.9443 65.8417 37.9212 65.153 36.6896 64.6134L39.3916 74.6976Z" fill="#292E36"/>
<path d="M51.6544 72.0641C51.5964 72.0796 51.5442 72.0004 51.4976 71.8266C51.451 71.6527 51.4567 71.558 51.5146 71.5425C52.7317 71.2164 53.6396 70.8954 54.2383 70.5797C54.8582 70.2273 55.2587 69.8094 55.4397 69.3261C55.613 68.8137 55.5871 68.1374 55.3619 67.2971L51.2622 51.9968C50.6799 49.8235 49.8816 48.8727 48.8674 49.1444C48.1719 49.3308 47.2674 50.0701 46.154 51.3623L46.0787 51.429C45.9917 51.4523 45.8893 51.4177 45.7713 51.3251C45.6745 51.1957 45.6512 51.1088 45.7014 51.0643L52.9 42.2871C53.0004 42.198 53.094 42.1419 53.181 42.1186C53.2389 42.1031 53.3085 42.131 53.3898 42.2024C53.4922 42.2371 53.5512 42.2834 53.5667 42.3413L59.9259 66.0741C60.1511 66.9145 60.4523 67.5171 60.8296 67.8818C61.1991 68.2177 61.7259 68.3871 62.41 68.3901C63.0863 68.3642 64.062 68.1804 65.337 67.8388C65.424 67.8155 65.4907 67.8908 65.5373 68.0646C65.5839 68.2385 65.5637 68.3371 65.4768 68.3604C64.2887 68.6787 63.3286 68.9205 62.5963 69.0856L58.5423 70.1253L54.555 71.2403C53.8383 71.4634 52.8715 71.738 51.6544 72.0641ZM77.826 65.657C74.9283 66.4335 72.3196 65.797 70.0001 63.7475C67.6729 61.669 65.9153 58.4129 64.7273 53.9793C63.5393 49.5457 63.4412 45.8761 64.4329 42.9704C65.4169 40.0357 67.3868 38.1724 70.3425 37.3804C73.2113 36.6117 75.7804 37.2744 78.0497 39.3684C80.3402 41.4257 82.0833 44.6856 83.279 49.1482C84.4592 53.5528 84.5719 57.2186 83.6168 60.1455C82.6541 63.0434 80.7238 64.8806 77.826 65.657ZM78.103 64.6045C79.3781 64.2628 80.0308 63.0475 80.0611 60.9585C80.0915 58.8694 79.501 55.5646 78.2897 51.0441C77.3968 47.7117 76.5231 45.0884 75.6686 43.1743C74.843 41.2525 73.9728 39.9173 73.0578 39.1686C72.1641 38.3831 71.1811 38.134 70.109 38.4213C68.747 38.7863 68.0296 40.05 67.9569 42.2125C67.9053 44.3383 68.4968 47.7049 69.7314 52.3124C71.028 57.1517 72.322 60.5319 73.6133 62.4532C74.9257 64.3377 76.4223 65.0548 78.103 64.6045Z" fill="#FF7D85"/>
<path d="M32.8185 37.1466C32.6729 36.6033 32.6365 36.0618 32.7093 35.522C32.7893 34.9804 32.9636 34.4717 33.2321 33.996C33.5007 33.5203 33.8495 33.1123 34.2786 32.7722C34.7057 32.4248 35.1982 32.1764 35.756 32.0269C36.3066 31.8794 36.8537 31.8493 37.3973 31.9365C37.939 32.0166 38.4486 32.1945 38.9263 32.4702C39.4039 32.746 39.8128 33.0984 40.153 33.5275C40.4931 33.9566 40.736 34.4428 40.8816 34.9862C41.031 35.544 41.0658 36.0937 40.9857 36.6354C40.9057 37.1771 40.7268 37.6831 40.4491 38.1535C40.1786 38.622 39.8252 39.0272 39.3889 39.3693C38.9579 39.7022 38.4671 39.9424 37.9165 40.09C37.3587 40.2394 36.8099 40.2778 36.2702 40.205C35.7304 40.1322 35.2273 39.9642 34.7608 39.701C34.2923 39.4305 33.888 39.0807 33.5479 38.6516C33.213 38.2134 32.9699 37.7117 32.8185 37.1466ZM34.0138 36.8264C34.1225 37.232 34.2969 37.593 34.5369 37.9091C34.7822 38.2161 35.0712 38.4687 35.4038 38.6668C35.7345 38.8577 36.0904 38.9836 36.4717 39.0445C36.8582 39.0963 37.2507 39.0687 37.6492 38.962C38.0404 38.8572 38.3868 38.6867 38.6885 38.4506C38.9882 38.2072 39.2299 37.9211 39.4136 37.5924C39.6026 37.2545 39.7229 36.8922 39.7746 36.5057C39.8244 36.1119 39.7949 35.7121 39.6862 35.3064C39.5775 34.9008 39.4005 34.5444 39.1552 34.2375C38.9152 33.9213 38.6289 33.6641 38.2963 33.466C37.9709 33.2659 37.614 33.1363 37.2255 33.0774C36.8442 33.0165 36.458 33.0384 36.0668 33.1433C35.6611 33.252 35.3084 33.428 35.0087 33.6714C34.7089 33.9147 34.4646 34.2054 34.2756 34.5433C34.0866 34.8812 33.9673 35.2471 33.9175 35.6409C33.875 36.0328 33.9071 36.4279 34.0138 36.8264ZM50.6196 36.8842L42.9292 32.4808L43.2952 32.4992L44.8418 38.1412L43.6682 38.4556L41.4874 30.3165L41.5417 30.3019L49.159 34.7365L48.867 34.7333L47.3137 29.0232L48.4655 28.7146L50.6522 36.8754L50.6196 36.8842ZM50.6913 28.1182L51.854 27.8066L53.668 34.5766L57.6126 33.5196L57.9125 34.6389L52.8052 36.0074L50.6913 28.1182ZM60.0641 31.2788L55.7229 26.77L57.1573 26.3856L60.5815 30.0803L60.2396 30.1952L61.3301 25.2675L62.7537 24.8861L61.2268 30.9672L61.9227 33.5644L60.76 33.8759L60.0641 31.2788Z" fill="#292E36"/>
</svg>
