<svg width="104" height="104" viewBox="0 0 104 104" fill="none" xmlns="http://www.w3.org/2000/svg">
<path d="M47.4784 7.98196C49.0408 5.46035 52.7092 5.46035 54.2716 7.98196C55.5811 10.0955 58.4823 10.5126 60.3343 8.85364C62.5438 6.87434 66.0636 7.90786 66.8523 10.7675C67.5133 13.1644 70.1795 14.382 72.4238 13.3119C75.1014 12.0353 78.1875 14.0186 78.1386 16.9846C78.0975 19.4706 80.3127 21.39 82.7675 20.9956C85.6964 20.5251 88.0987 23.2975 87.2161 26.1296C86.4764 28.5033 88.061 30.9691 90.5276 31.2823C93.4703 31.6559 94.9943 34.9928 93.3495 37.4615C91.971 39.5307 92.7968 42.343 95.0752 43.3385C97.7935 44.5261 98.3155 48.1572 96.0419 50.0625C94.1363 51.6595 94.1363 54.5905 96.0419 56.1875C98.3155 58.0928 97.7935 61.7239 95.0752 62.9115C92.7968 63.907 91.971 66.7193 93.3495 68.7885C94.9943 71.2572 93.4703 74.5941 90.5276 74.9677C88.061 75.2809 86.4764 77.7467 87.2161 80.1204C88.0987 82.9525 85.6964 85.7249 82.7675 85.2544C80.3127 84.86 78.0975 86.7794 78.1386 89.2654C78.1875 92.2314 75.1014 94.2147 72.4238 92.9381C70.1795 91.868 67.5133 93.0856 66.8523 95.4825C66.0636 98.3421 62.5438 99.3757 60.3343 97.3964C58.4823 95.7374 55.5811 96.1545 54.2716 98.268C52.7092 100.79 49.0408 100.79 47.4784 98.268C46.1689 96.1545 43.2677 95.7374 41.4157 97.3964C39.2062 99.3757 35.6864 98.3421 34.8977 95.4825C34.2367 93.0856 31.5705 91.868 29.3262 92.9381C26.6486 94.2147 23.5625 92.2314 23.6114 89.2654C23.6525 86.7794 21.4373 84.86 18.9825 85.2544C16.0536 85.7249 13.6513 82.9525 14.5339 80.1204C15.2736 77.7467 13.689 75.2809 11.2224 74.9677C8.27966 74.5941 6.75575 71.2572 8.40045 68.7885C9.779 66.7193 8.95323 63.907 6.67484 62.9115C3.95654 61.7239 3.43447 58.0928 5.70807 56.1875C7.61373 54.5905 7.61373 51.6595 5.70807 50.0625C3.43447 48.1572 3.95654 44.5261 6.67484 43.3385C8.95323 42.343 9.779 39.5307 8.40045 37.4615C6.75575 34.9928 8.27966 31.6559 11.2224 31.2823C13.689 30.9691 15.2736 28.5033 14.5339 26.1296C13.6513 23.2975 16.0536 20.5251 18.9825 20.9956C21.4373 21.39 23.6525 19.4706 23.6114 16.9846C23.5625 14.0186 26.6486 12.0353 29.3262 13.3119C31.5705 14.382 34.2367 13.1644 34.8977 10.7675C35.6864 7.90786 39.2062 6.87434 41.4157 8.85364C43.2677 10.5126 46.1689 10.0955 47.4784 7.98196Z" fill="#BBBBBB"/>
<path d="M49.7284 5.73196C51.2908 3.21035 54.9592 3.21035 56.5216 5.73196C57.8311 7.8455 60.7323 8.26263 62.5843 6.60364C64.7938 4.62434 68.3136 5.65786 69.1023 8.5175C69.7633 10.9144 72.4295 12.132 74.6738 11.0619C77.3514 9.78529 80.4375 11.7686 80.3886 14.7346C80.3475 17.2206 82.5627 19.14 85.0175 18.7456C87.9464 18.2751 90.3487 21.0475 89.4661 23.8796C88.7264 26.2533 90.311 28.7191 92.7776 29.0323C95.7203 29.4059 97.2443 32.7428 95.5995 35.2115C94.221 37.2807 95.0468 40.093 97.3252 41.0885C100.043 42.2761 100.566 45.9072 98.2919 47.8125C96.3863 49.4095 96.3863 52.3405 98.2919 53.9375C100.566 55.8428 100.043 59.4739 97.3252 60.6615C95.0468 61.657 94.221 64.4693 95.5995 66.5385C97.2443 69.0072 95.7203 72.3441 92.7776 72.7177C90.311 73.0309 88.7264 75.4967 89.4661 77.8704C90.3487 80.7025 87.9464 83.4749 85.0175 83.0044C82.5627 82.61 80.3475 84.5294 80.3886 87.0154C80.4375 89.9814 77.3514 91.9647 74.6738 90.6881C72.4295 89.618 69.7633 90.8356 69.1023 93.2325C68.3136 96.0921 64.7938 97.1257 62.5843 95.1464C60.7323 93.4874 57.8311 93.9045 56.5216 96.018C54.9592 98.5397 51.2908 98.5397 49.7284 96.018C48.4189 93.9045 45.5177 93.4874 43.6657 95.1464C41.4562 97.1257 37.9364 96.0921 37.1477 93.2325C36.4867 90.8356 33.8205 89.618 31.5762 90.6881C28.8986 91.9647 25.8125 89.9814 25.8614 87.0154C25.9025 84.5294 23.6873 82.61 21.2325 83.0044C18.3036 83.4749 15.9013 80.7025 16.7839 77.8704C17.5236 75.4967 15.939 73.0309 13.4724 72.7177C10.5297 72.3441 9.00575 69.0072 10.6505 66.5385C12.029 64.4693 11.2032 61.657 8.92484 60.6615C6.20654 59.4739 5.68447 55.8428 7.95807 53.9375C9.86373 52.3405 9.86373 49.4095 7.95807 47.8125C5.68447 45.9072 6.20654 42.2761 8.92484 41.0885C11.2032 40.093 12.029 37.2807 10.6505 35.2115C9.00575 32.7428 10.5297 29.4059 13.4724 29.0323C15.939 28.7191 17.5236 26.2533 16.7839 23.8796C15.9013 21.0475 18.3036 18.2751 21.2325 18.7456C23.6873 19.14 25.9025 17.2206 25.8614 14.7346C25.8125 11.7686 28.8986 9.78529 31.5762 11.0619C33.8205 12.132 36.4867 10.9144 37.1477 8.5175C37.9364 5.65786 41.4562 4.62434 43.6657 6.60364C45.5177 8.26263 48.4189 7.8455 49.7284 5.73196Z" fill="#292E36"/>
<path d="M55.3165 62.8006C55.8523 64.8001 55.611 66.6816 54.5928 68.4452C53.5958 70.1721 52.0243 71.4939 49.8784 72.4105L51.0315 76.7137C51.0858 76.9166 50.9102 77.0723 50.5045 77.181C50.0698 77.2975 49.8253 77.2543 49.7709 77.0515L48.6528 72.8787L48.0008 73.0534C46.6968 73.4028 45.2883 73.5939 43.7752 73.6266C42.2544 73.6303 41.1894 73.4809 40.5803 73.1782C40.4043 73.1011 40.2613 73.0308 40.151 72.9671C40.062 72.8667 39.9865 72.7006 39.9243 72.4688L37.9421 65.5926L37.9304 65.5491C37.8994 65.4332 37.9563 65.3558 38.1012 65.317C38.2383 65.2492 38.3369 65.2694 38.3969 65.3775C39.6509 66.8118 40.7441 67.9942 41.6767 68.9245C42.6015 69.8259 43.6401 70.5725 44.7926 71.1644C45.9451 71.7563 47.1309 71.951 48.35 71.7486L45.3917 60.708C44.9374 60.5192 44.2346 60.2727 43.2835 59.9685C41.6518 59.4429 40.3594 58.9661 39.4062 58.5383C38.4819 58.1026 37.6242 57.5094 36.8329 56.7586C36.0416 56.0078 35.4829 55.0239 35.1568 53.8069C34.6055 51.7494 34.9241 49.9248 36.1126 48.333C37.3301 46.7333 38.9983 45.5409 41.1173 44.7558L40.139 41.1046C40.1079 40.9886 40.1426 40.8862 40.243 40.7972C40.3723 40.7004 40.5239 40.6287 40.6978 40.5821C40.8717 40.5355 41.0243 40.5257 41.1558 40.5526C41.2872 40.5795 41.3685 40.6509 41.3995 40.7668L42.3662 44.3745L42.4097 44.3629C43.4239 44.0911 44.4798 43.9169 45.5773 43.8402C46.6671 43.7346 47.5657 43.7267 48.2731 43.8167C48.565 43.8627 48.7738 43.9465 48.8995 44.0681C49.0175 44.1608 49.1037 44.3085 49.158 44.5113L50.8701 50.9009C50.8934 50.9879 50.8404 51.0797 50.711 51.1765C50.5739 51.2443 50.4792 51.2386 50.4269 51.1594L49.8028 50.3949C48.7382 48.972 47.645 47.7896 46.523 46.8479C45.4223 45.8695 44.1337 45.4073 42.6574 45.4612L45.4293 55.8063L46.4501 56.1384C48.1474 56.6774 49.5239 57.1782 50.5796 57.6408C51.6353 58.1033 52.6033 58.7602 53.4836 59.6113C54.3561 60.4335 54.9671 61.4966 55.3165 62.8006ZM38.5851 50.6055C38.8956 51.7646 39.5045 52.704 40.4117 53.4237C41.3111 54.1145 42.4859 54.7315 43.9359 55.2747L41.3619 45.6686C40.2395 46.0003 39.4054 46.5965 38.8596 47.4572C38.3427 48.31 38.2512 49.3594 38.5851 50.6055ZM49.6106 71.4108C50.5358 71.0387 51.2027 70.4562 51.6115 69.6634C52.0414 68.8338 52.0817 67.7671 51.7323 66.4631C51.3984 65.217 50.8136 64.1935 49.9778 63.3925C49.1632 62.5548 48.1401 61.8661 46.9085 61.3265L49.6106 71.4108ZM65.0972 54.7291C63.0688 55.2726 61.2452 55.0159 59.6265 53.9588C57.9999 52.8728 56.8878 51.2141 56.2899 48.9828C55.8861 47.476 55.9018 46.0276 56.3369 44.6376C56.7719 43.2477 57.5706 42.0553 58.7327 41.0606C59.8871 40.037 61.3047 39.3 62.9854 38.8496C65.7093 38.1198 68.0915 38.4909 70.132 39.9629C72.1937 41.3982 73.6633 43.7531 74.5407 47.0276C75.2939 49.8384 75.4336 52.736 74.9598 55.7203C74.4783 58.6756 73.3587 61.336 71.6011 63.7015C69.8357 66.0381 67.4839 67.6932 64.5458 68.6668C64.4299 68.6978 64.338 68.6448 64.2702 68.5077C64.2102 68.3995 64.2159 68.3048 64.2873 68.2236C66.2608 67.0115 67.7613 65.3671 68.7888 63.2904C69.8453 61.2059 70.4252 58.9075 70.5285 56.3952C70.653 53.8461 70.3658 51.2676 69.667 48.6596C68.8828 45.7328 67.8259 43.4692 66.4964 41.8688C65.1669 40.2684 63.8067 39.6545 62.4157 40.0272C61.3436 40.3145 60.7193 41.0563 60.5429 42.2527C60.3588 43.4202 60.5307 44.9891 61.0587 46.9596C61.6644 49.2199 62.4084 50.8375 63.2908 51.8123C64.1943 52.7504 65.2547 53.0564 66.4717 52.7303C67.37 52.4896 68.0479 52.1216 68.5053 51.6263L68.5922 51.603C68.6792 51.5797 68.7671 51.6183 68.8562 51.7187C68.9664 51.7823 69.0042 51.8654 68.9695 51.9678C68.1846 53.3273 66.8939 54.2477 65.0972 54.7291Z" fill="white"/>
<path d="M32.8185 37.147C32.6729 36.6037 32.6365 36.0621 32.7093 35.5224C32.7893 34.9807 32.9636 34.4721 33.2321 33.9963C33.5007 33.5206 33.8495 33.1127 34.2786 32.7726C34.7057 32.4252 35.1982 32.1767 35.756 32.0273C36.3066 31.8797 36.8537 31.8496 37.3973 31.9369C37.939 32.0169 38.4486 32.1948 38.9263 32.4706C39.4039 32.7464 39.8128 33.0988 40.153 33.5279C40.4931 33.957 40.736 34.4432 40.8816 34.9865C41.031 35.5443 41.0658 36.0941 40.9857 36.6358C40.9057 37.1774 40.7268 37.6835 40.4491 38.1539C40.1786 38.6223 39.8252 39.0276 39.3889 39.3697C38.9579 39.7026 38.4671 39.9428 37.9165 40.0903C37.3587 40.2398 36.8099 40.2781 36.2702 40.2054C35.7304 40.1326 35.2273 39.9646 34.7608 39.7013C34.2923 39.4309 33.888 39.0811 33.5479 38.652C33.213 38.2137 32.9699 37.7121 32.8185 37.147ZM34.0138 36.8267C34.1225 37.2324 34.2969 37.5933 34.5369 37.9095C34.7822 38.2165 35.0712 38.469 35.4038 38.6672C35.7345 38.8581 36.0904 38.984 36.4717 39.0449C36.8582 39.0966 37.2507 39.0691 37.6492 38.9623C38.0404 38.8575 38.3868 38.687 38.6885 38.4509C38.9882 38.2076 39.2299 37.9215 39.4136 37.5928C39.6026 37.2548 39.7229 36.8926 39.7746 36.506C39.8244 36.1122 39.7949 35.7125 39.6862 35.3068C39.5775 34.9011 39.4005 34.5448 39.1552 34.2378C38.9152 33.9217 38.6289 33.6645 38.2963 33.4663C37.9709 33.2662 37.614 33.1367 37.2255 33.0777C36.8442 33.0168 36.458 33.0388 36.0668 33.1436C35.6611 33.2523 35.3084 33.4284 35.0087 33.6717C34.7089 33.9151 34.4646 34.2057 34.2756 34.5437C34.0866 34.8816 33.9673 35.2475 33.9175 35.6413C33.875 36.0331 33.9071 36.4283 34.0138 36.8267ZM50.6196 36.8845L42.9292 32.4812L43.2952 32.4996L44.8418 38.1415L43.6682 38.456L41.4874 30.3169L41.5417 30.3023L49.159 34.7369L48.867 34.7336L47.3137 29.0236L48.4655 28.7149L50.6522 36.8758L50.6196 36.8845ZM50.6913 28.1186L51.854 27.807L53.668 34.5769L57.6126 33.52L57.9125 34.6393L52.8052 36.0078L50.6913 28.1186ZM60.0641 31.2791L55.7229 26.7703L57.1573 26.386L60.5815 30.0806L60.2396 30.1955L61.3301 25.2679L62.7537 24.8864L61.2268 30.9676L61.9227 33.5647L60.76 33.8763L60.0641 31.2791Z" fill="white"/>
</svg>
