<svg width="44" height="20" viewBox="0 0 44 20" fill="none" xmlns="http://www.w3.org/2000/svg">
<line x1="0.5" y1="19.125" x2="44" y2="19.125" stroke="#E1B168" stroke-width="0.75"/>
<path d="M5.00542 5.5825C5.83042 5.5825 6.47917 5.75125 6.95167 6.08875C7.43167 6.42625 7.67167 6.94375 7.67167 7.64125C7.67167 8.09125 7.56667 8.4775 7.35667 8.8C7.15417 9.1225 6.86917 9.37375 6.50167 9.55375C6.14167 9.72625 5.71417 9.82375 5.21917 9.84625L5.03917 9.205C5.61667 9.22 6.13042 9.32125 6.58042 9.50875C7.03792 9.68875 7.39792 9.94375 7.66042 10.2737C7.93042 10.5962 8.06542 10.9825 8.06542 11.4325C8.06542 11.845 7.98667 12.2012 7.82917 12.5012C7.67917 12.7937 7.47292 13.0337 7.21042 13.2212C6.95542 13.4012 6.66292 13.5362 6.33292 13.6262C6.01042 13.7087 5.67292 13.75 5.32042 13.75H2.83417V5.5825H5.00542ZM5.21917 9.115C5.63917 9.115 5.94667 8.995 6.14167 8.755C6.33667 8.515 6.43417 8.23 6.43417 7.9C6.43417 7.495 6.30667 7.2025 6.05167 7.0225C5.80417 6.835 5.47417 6.74125 5.06167 6.74125H4.03792V9.115H5.21917ZM5.26417 12.6362C5.55667 12.6362 5.81917 12.595 6.05167 12.5125C6.29167 12.4225 6.47917 12.2912 6.61417 12.1187C6.75667 11.9387 6.82792 11.7137 6.82792 11.4437C6.82792 11.1437 6.74542 10.9112 6.58042 10.7462C6.42292 10.5737 6.21667 10.4537 5.96167 10.3862C5.71417 10.3112 5.45542 10.2737 5.18542 10.2737H4.03792V12.6362H5.26417ZM12.8919 5.5825H14.0957V12.5912H18.1794V13.75H12.8919V5.5825ZM22.3006 9.6775C22.3006 9.115 22.4056 8.5825 22.6156 8.08C22.8331 7.5775 23.1331 7.13125 23.5156 6.74125C23.8981 6.35125 24.3406 6.0475 24.8431 5.83C25.3456 5.605 25.8856 5.4925 26.4631 5.4925C27.0331 5.4925 27.5694 5.605 28.0719 5.83C28.5744 6.0475 29.0206 6.35125 29.4106 6.74125C29.8006 7.13125 30.1044 7.5775 30.3219 8.08C30.5394 8.5825 30.6481 9.115 30.6481 9.6775C30.6481 10.255 30.5394 10.795 30.3219 11.2975C30.1044 11.8 29.8006 12.2425 29.4106 12.625C29.0281 13.0075 28.5819 13.3075 28.0719 13.525C27.5694 13.735 27.0331 13.84 26.4631 13.84C25.8856 13.84 25.3456 13.735 24.8431 13.525C24.3406 13.315 23.8981 13.0225 23.5156 12.6475C23.1331 12.265 22.8331 11.8225 22.6156 11.32C22.4056 10.81 22.3006 10.2625 22.3006 9.6775ZM23.5381 9.6775C23.5381 10.0975 23.6131 10.4912 23.7631 10.8588C23.9206 11.2187 24.1344 11.5375 24.4044 11.815C24.6744 12.085 24.9856 12.2987 25.3381 12.4562C25.6981 12.6062 26.0844 12.6812 26.4969 12.6812C26.9019 12.6812 27.2806 12.6062 27.6331 12.4562C27.9856 12.2987 28.2931 12.085 28.5556 11.815C28.8256 11.5375 29.0356 11.2187 29.1856 10.8588C29.3356 10.4912 29.4106 10.0975 29.4106 9.6775C29.4106 9.2575 29.3319 8.8675 29.1744 8.5075C29.0244 8.14 28.8144 7.8175 28.5444 7.54C28.2819 7.2625 27.9706 7.045 27.6106 6.8875C27.2581 6.73 26.8794 6.65125 26.4744 6.65125C26.0544 6.65125 25.6681 6.73 25.3156 6.8875C24.9631 7.045 24.6519 7.2625 24.3819 7.54C24.1119 7.8175 23.9019 8.14 23.7519 8.5075C23.6094 8.875 23.5381 9.265 23.5381 9.6775ZM41.9256 13.03C41.8131 13.1275 41.6556 13.225 41.4531 13.3225C41.2506 13.42 41.0219 13.5062 40.7669 13.5812C40.5194 13.6562 40.2644 13.7162 40.0019 13.7613C39.7394 13.8138 39.4919 13.84 39.2594 13.84C38.5994 13.84 38.0069 13.7387 37.4819 13.5362C36.9569 13.3337 36.5069 13.0525 36.1319 12.6925C35.7569 12.3325 35.4681 11.9125 35.2656 11.4325C35.0706 10.945 34.9731 10.4162 34.9731 9.84625C34.9731 9.14875 35.0856 8.53 35.3106 7.99C35.5356 7.45 35.8394 6.99625 36.2219 6.62875C36.6119 6.25375 37.0581 5.9725 37.5606 5.785C38.0706 5.59 38.6031 5.4925 39.1581 5.4925C39.6456 5.4925 40.0956 5.54875 40.5081 5.66125C40.9281 5.77375 41.2881 5.92 41.5881 6.1L41.1944 7.2025C41.0444 7.12 40.8569 7.04125 40.6319 6.96625C40.4144 6.88375 40.1894 6.82 39.9569 6.775C39.7244 6.73 39.5106 6.7075 39.3156 6.7075C38.8356 6.7075 38.4044 6.77875 38.0219 6.92125C37.6469 7.05625 37.3244 7.255 37.0544 7.5175C36.7844 7.78 36.5744 8.09875 36.4244 8.47375C36.2819 8.84875 36.2106 9.2725 36.2106 9.745C36.2106 10.1725 36.2856 10.5662 36.4356 10.9262C36.5856 11.2787 36.7956 11.5862 37.0656 11.8487C37.3356 12.1037 37.6581 12.3025 38.0331 12.445C38.4081 12.58 38.8244 12.6475 39.2819 12.6475C39.5444 12.6475 39.8031 12.6212 40.0581 12.5687C40.3131 12.5162 40.5306 12.4412 40.7106 12.3438V10.8588H39.1356V9.7H41.9256V13.03Z" fill="#292E36"/>
<line x1="0.5" y1="1.125" x2="44" y2="1.125" stroke="#E1B168" stroke-width="0.75"/>
</svg>
