<svg width="25" height="24" viewBox="0 0 25 24" fill="none" xmlns="http://www.w3.org/2000/svg">
<path d="M10.8602 22.5129C11.5111 22.5129 12.0388 21.9852 12.0388 21.3343C12.0388 20.6834 11.5111 20.1558 10.8602 20.1558C10.2093 20.1558 9.68164 20.6834 9.68164 21.3343C9.68164 21.9852 10.2093 22.5129 10.8602 22.5129Z" fill="white" stroke="white" stroke-width="1.125" stroke-linecap="round" stroke-linejoin="round"/>
<path d="M19.1102 22.5129C19.7611 22.5129 20.2888 21.9852 20.2888 21.3343C20.2888 20.6834 19.7611 20.1558 19.1102 20.1558C18.4593 20.1558 17.9316 20.6834 17.9316 21.3343C17.9316 21.9852 18.4593 22.5129 19.1102 22.5129Z" fill="white" stroke="white" stroke-width="1.125" stroke-linecap="round" stroke-linejoin="round"/>
<path d="M1.43164 1.29834H5.07847L7.81359 16.7974H22.4009" stroke="white" stroke-width="1.5" stroke-linecap="round" stroke-linejoin="round"/>
<path d="M7.32462 13.0466L22.0273 13.1498C22.1327 13.1499 22.2349 13.1134 22.3164 13.0466C22.398 12.9798 22.4539 12.8868 22.4746 12.7834L24.1156 4.57803C24.1289 4.51187 24.1273 4.44359 24.1109 4.37812C24.0946 4.31265 24.0639 4.25163 24.0211 4.19946C23.9783 4.14729 23.9245 4.10527 23.8635 4.07644C23.8025 4.0476 23.7358 4.03267 23.6683 4.03271L5.83592 4.03271" stroke="white" stroke-width="1.5" stroke-linecap="round" stroke-linejoin="round"/>
</svg>
