<svg width="36" height="36" viewBox="0 0 36 36" fill="none" xmlns="http://www.w3.org/2000/svg">
<path d="M5.58777 6.85505C2.91585 9.84397 1.42139 13.6933 1.37611 17.6937C1.27044 26.8416 8.74274 34.3441 17.8756 34.3743C27.0084 34.3894 34.375 26.9925 34.375 17.8748C34.375 8.89295 27.1895 1.57161 18.2529 1.37537C18.2077 1.37537 18.1473 1.37537 18.102 1.40556C18.0567 1.42065 18.0114 1.45084 17.9812 1.48104C17.951 1.51123 17.9208 1.55651 17.8906 1.6018C17.8756 1.64709 17.8605 1.69237 17.8605 1.75276V8.93824" stroke="white" stroke-width="2.625" stroke-linecap="round" stroke-linejoin="round"/>
<path d="M15.9428 19.807L9.1498 10.1006C9.04413 9.9647 9.01394 9.79865 9.02904 9.6326C9.04413 9.46655 9.10451 9.3156 9.22528 9.19483C9.34604 9.07407 9.497 9.01368 9.66305 8.99859C9.814 8.98349 9.98006 9.02878 10.1159 9.11935L19.8224 15.9124C20.4111 16.335 20.8187 16.9841 20.9394 17.7087C21.0602 18.4333 20.8941 19.173 20.4715 19.7768C20.0488 20.3806 19.4148 20.7882 18.6902 20.9241C17.9656 21.0599 17.2259 20.8939 16.6221 20.4863C16.3655 20.3052 16.1239 20.0787 15.9428 19.807Z" fill="white"/>
</svg>
