<svg width="150" height="20" viewBox="0 0 150 20" fill="none" xmlns="http://www.w3.org/2000/svg">
<path d="M2.995 13.59C2.59 13.59 2.2 13.515 1.825 13.365C1.45 13.215 1.15 13.0312 0.925 12.8137L1.555 11.8687C1.705 12.0412 1.90375 12.18 2.15125 12.285C2.40625 12.39 2.65375 12.4425 2.89375 12.4425C3.15625 12.4425 3.385 12.3862 3.58 12.2737C3.7825 12.1612 3.94 12.0037 4.0525 11.8012C4.1725 11.5987 4.2325 11.3662 4.2325 11.1037C4.2325 10.8187 4.18 10.5675 4.075 10.35C3.97 10.125 3.8125 9.94875 3.6025 9.82125C3.3925 9.69375 3.1375 9.63 2.8375 9.63C2.5825 9.63 2.3425 9.6675 2.1175 9.7425C1.9 9.81 1.66375 9.915 1.40875 10.0575H1.3975V6.08625H4.975V7.23375H2.44375V8.98875L2.28625 8.74125C2.41375 8.70375 2.54875 8.67375 2.69125 8.65125C2.83375 8.62875 2.97625 8.6175 3.11875 8.6175C3.62875 8.6175 4.05625 8.73 4.40125 8.955C4.75375 9.18 5.02 9.47625 5.2 9.84375C5.38 10.2112 5.47 10.6162 5.47 11.0587C5.47 11.5312 5.36125 11.9587 5.14375 12.3412C4.93375 12.7237 4.64125 13.0275 4.26625 13.2525C3.89125 13.4775 3.4675 13.59 2.995 13.59ZM12.6752 13.5338C12.2252 13.5338 11.8089 13.4512 11.4264 13.2862C11.0514 13.1137 10.7252 12.8662 10.4477 12.5437C10.1702 12.2212 9.95269 11.8275 9.79519 11.3625C9.63769 10.89 9.55894 10.3575 9.55894 9.765C9.55894 9.12 9.63394 8.56125 9.78394 8.08875C9.93394 7.61625 10.1439 7.22625 10.4139 6.91875C10.6914 6.60375 11.0214 6.375 11.4039 6.2325C11.7864 6.0825 12.2102 6.0075 12.6752 6.0075C13.1327 6.0075 13.5489 6.09 13.9239 6.255C14.3064 6.42 14.6364 6.66375 14.9139 6.98625C15.1914 7.30875 15.4052 7.70625 15.5552 8.17875C15.7127 8.64375 15.7914 9.1725 15.7914 9.765C15.7914 10.3725 15.7127 10.9125 15.5552 11.385C15.4052 11.85 15.1877 12.2437 14.9027 12.5662C14.6252 12.8812 14.2989 13.1212 13.9239 13.2862C13.5489 13.4512 13.1327 13.5338 12.6752 13.5338ZM12.6639 12.375C13.0914 12.375 13.4439 12.2662 13.7214 12.0487C13.9989 11.8237 14.2052 11.5125 14.3402 11.115C14.4752 10.71 14.5427 10.2487 14.5427 9.73125C14.5427 9.22875 14.4752 8.78625 14.3402 8.40375C14.2052 8.01375 13.9989 7.71 13.7214 7.4925C13.4439 7.2675 13.0914 7.15875 12.6639 7.16625C12.2514 7.15875 11.9064 7.2675 11.6289 7.4925C11.3514 7.71 11.1452 8.01375 11.0102 8.40375C10.8752 8.79375 10.8077 9.2475 10.8077 9.765C10.8077 10.2675 10.8752 10.7175 11.0102 11.115C11.1452 11.5125 11.3514 11.8237 11.6289 12.0487C11.9064 12.2662 12.2514 12.375 12.6639 12.375ZM21.5067 10.44C21.1467 10.44 20.843 10.3575 20.5955 10.1925C20.3555 10.02 20.1717 9.7875 20.0442 9.495C19.9242 9.195 19.8642 8.85375 19.8642 8.47125C19.8642 8.08875 19.9242 7.75125 20.0442 7.45875C20.1717 7.15875 20.3555 6.92625 20.5955 6.76125C20.843 6.59625 21.1467 6.51375 21.5067 6.51375C21.8667 6.51375 22.1667 6.59625 22.4067 6.76125C22.6467 6.92625 22.8305 7.15875 22.958 7.45875C23.0855 7.75125 23.1492 8.08875 23.1492 8.47125C23.1492 8.85375 23.0855 9.195 22.958 9.495C22.8305 9.7875 22.6467 10.02 22.4067 10.1925C22.1667 10.3575 21.8667 10.44 21.5067 10.44ZM20.8767 8.47125C20.8767 8.82375 20.9292 9.105 21.0342 9.315C21.1392 9.5175 21.2967 9.61875 21.5067 9.61875C21.7167 9.61875 21.8705 9.5175 21.968 9.315C22.073 9.105 22.1255 8.82375 22.1255 8.47125C22.1255 8.09625 22.073 7.815 21.968 7.6275C21.8705 7.4325 21.7167 7.335 21.5067 7.335C21.2967 7.335 21.1392 7.42875 21.0342 7.61625C20.9292 7.79625 20.8767 8.08125 20.8767 8.47125ZM25.8267 13.7025C25.4667 13.7025 25.163 13.62 24.9155 13.455C24.6755 13.29 24.4917 13.0612 24.3642 12.7687C24.2442 12.4687 24.1842 12.1275 24.1842 11.745C24.1842 11.355 24.2442 11.0137 24.3642 10.7212C24.4917 10.4287 24.6755 10.2 24.9155 10.035C25.163 9.8625 25.4667 9.77625 25.8267 9.77625C26.1867 9.77625 26.4867 9.8625 26.7267 10.035C26.9742 10.2 27.158 10.4287 27.278 10.7212C27.4055 11.0137 27.4692 11.355 27.4692 11.745C27.4692 12.1275 27.4055 12.4687 27.278 12.7687C27.158 13.0612 26.9742 13.29 26.7267 13.455C26.4867 13.62 26.1867 13.7025 25.8267 13.7025ZM25.1967 11.745C25.1967 12.0975 25.2492 12.3787 25.3542 12.5887C25.4592 12.7912 25.6167 12.8925 25.8267 12.8925C26.0367 12.8925 26.1905 12.7912 26.288 12.5887C26.393 12.3787 26.4455 12.0975 26.4455 11.745C26.4455 11.3625 26.393 11.0775 26.288 10.89C26.1905 10.7025 26.0367 10.6088 25.8267 10.6088C25.6167 10.6088 25.4592 10.7025 25.3542 10.89C25.2492 11.07 25.1967 11.355 25.1967 11.745ZM26.738 6.5025L21.8892 13.5225L20.753 13.5L25.5792 6.5025H26.738ZM38.3647 9.4275C38.3647 8.865 38.4697 8.3325 38.6797 7.83C38.8972 7.3275 39.1972 6.88125 39.5797 6.49125C39.9622 6.10125 40.4047 5.7975 40.9072 5.58C41.4097 5.355 41.9497 5.2425 42.5272 5.2425C43.0972 5.2425 43.6335 5.355 44.136 5.58C44.6385 5.7975 45.0847 6.10125 45.4747 6.49125C45.8647 6.88125 46.1685 7.3275 46.386 7.83C46.6035 8.3325 46.7122 8.865 46.7122 9.4275C46.7122 10.005 46.6035 10.545 46.386 11.0475C46.1685 11.55 45.8647 11.9925 45.4747 12.375C45.0922 12.7575 44.646 13.0575 44.136 13.275C43.6335 13.485 43.0972 13.59 42.5272 13.59C41.9497 13.59 41.4097 13.485 40.9072 13.275C40.4047 13.065 39.9622 12.7725 39.5797 12.3975C39.1972 12.015 38.8972 11.5725 38.6797 11.07C38.4697 10.56 38.3647 10.0125 38.3647 9.4275ZM39.6022 9.4275C39.6022 9.8475 39.6772 10.2412 39.8272 10.6088C39.9847 10.9687 40.1985 11.2875 40.4685 11.565C40.7385 11.835 41.0497 12.0487 41.4022 12.2062C41.7622 12.3562 42.1485 12.4312 42.561 12.4312C42.966 12.4312 43.3447 12.3562 43.6972 12.2062C44.0497 12.0487 44.3572 11.835 44.6197 11.565C44.8897 11.2875 45.0997 10.9687 45.2497 10.6088C45.3997 10.2412 45.4747 9.8475 45.4747 9.4275C45.4747 9.0075 45.396 8.6175 45.2385 8.2575C45.0885 7.89 44.8785 7.5675 44.6085 7.29C44.346 7.0125 44.0347 6.795 43.6747 6.6375C43.3222 6.48 42.9435 6.40125 42.5385 6.40125C42.1185 6.40125 41.7322 6.48 41.3797 6.6375C41.0272 6.795 40.716 7.0125 40.446 7.29C40.176 7.5675 39.966 7.89 39.816 8.2575C39.6735 8.625 39.6022 9.015 39.6022 9.4275ZM51.5435 5.3325H56.4372V6.49125H52.7472V8.94375H55.976V10.0912H52.7472V13.5H51.5435V5.3325ZM61.2277 5.3325H66.1215V6.49125H62.4315V8.94375H65.6602V10.0912H62.4315V13.5H61.2277V5.3325ZM70.912 5.3325H76.2782V6.49125H72.1157V8.82H75.817V9.97875H72.1157V12.3412H76.4357V13.5H70.912V5.3325ZM83.56 5.3325C83.9875 5.3325 84.3813 5.3925 84.7413 5.5125C85.1088 5.625 85.42 5.79 85.675 6.0075C85.9375 6.225 86.14 6.495 86.2825 6.8175C86.4325 7.1325 86.5075 7.5 86.5075 7.92C86.5075 8.2425 86.4588 8.56125 86.3613 8.87625C86.2638 9.19125 86.1063 9.47625 85.8888 9.73125C85.6713 9.98625 85.3863 10.1925 85.0338 10.35C84.6813 10.5 84.2425 10.575 83.7175 10.575H82.525V13.5H81.3213V5.3325H83.56ZM83.695 9.4275C84.0025 9.4275 84.2575 9.37875 84.46 9.28125C84.67 9.18375 84.8313 9.06375 84.9438 8.92125C85.0638 8.77125 85.1463 8.61375 85.1913 8.44875C85.2438 8.27625 85.27 8.11125 85.27 7.95375C85.27 7.80375 85.2438 7.64625 85.1913 7.48125C85.1463 7.31625 85.0638 7.15875 84.9438 7.00875C84.8313 6.85875 84.6775 6.735 84.4825 6.6375C84.2875 6.54 84.0475 6.49125 83.7625 6.49125H82.525V9.4275H83.695ZM85.0788 10.125L87.1938 13.5H85.7988L83.65 10.1587L85.0788 10.125ZM104.906 12.78C104.793 12.8775 104.636 12.975 104.433 13.0725C104.231 13.17 104.002 13.2562 103.747 13.3312C103.5 13.4062 103.245 13.4662 102.982 13.5113C102.72 13.5638 102.472 13.59 102.24 13.59C101.58 13.59 100.987 13.4887 100.462 13.2862C99.937 13.0837 99.487 12.8025 99.112 12.4425C98.737 12.0825 98.4483 11.6625 98.2458 11.1825C98.0508 10.695 97.9533 10.1662 97.9533 9.59625C97.9533 8.89875 98.0658 8.28 98.2908 7.74C98.5158 7.2 98.8195 6.74625 99.202 6.37875C99.592 6.00375 100.038 5.7225 100.541 5.535C101.051 5.34 101.583 5.2425 102.138 5.2425C102.626 5.2425 103.076 5.29875 103.488 5.41125C103.908 5.52375 104.268 5.67 104.568 5.85L104.175 6.9525C104.025 6.87 103.837 6.79125 103.612 6.71625C103.395 6.63375 103.17 6.57 102.937 6.525C102.705 6.48 102.491 6.4575 102.296 6.4575C101.816 6.4575 101.385 6.52875 101.002 6.67125C100.627 6.80625 100.305 7.005 100.035 7.2675C99.7645 7.53 99.5545 7.84875 99.4045 8.22375C99.262 8.59875 99.1908 9.0225 99.1908 9.495C99.1908 9.9225 99.2658 10.3162 99.4158 10.6762C99.5658 11.0287 99.7758 11.3362 100.046 11.5987C100.316 11.8537 100.638 12.0525 101.013 12.195C101.388 12.33 101.805 12.3975 102.262 12.3975C102.525 12.3975 102.783 12.3712 103.038 12.3187C103.293 12.2662 103.511 12.1912 103.691 12.0938V10.6088H102.116V9.45H104.906V12.78ZM109.472 9.4275C109.472 8.865 109.577 8.3325 109.787 7.83C110.005 7.3275 110.305 6.88125 110.687 6.49125C111.07 6.10125 111.512 5.7975 112.015 5.58C112.517 5.355 113.057 5.2425 113.635 5.2425C114.205 5.2425 114.741 5.355 115.243 5.58C115.746 5.7975 116.192 6.10125 116.582 6.49125C116.972 6.88125 117.276 7.3275 117.493 7.83C117.711 8.3325 117.82 8.865 117.82 9.4275C117.82 10.005 117.711 10.545 117.493 11.0475C117.276 11.55 116.972 11.9925 116.582 12.375C116.2 12.7575 115.753 13.0575 115.243 13.275C114.741 13.485 114.205 13.59 113.635 13.59C113.057 13.59 112.517 13.485 112.015 13.275C111.512 13.065 111.07 12.7725 110.687 12.3975C110.305 12.015 110.005 11.5725 109.787 11.07C109.577 10.56 109.472 10.0125 109.472 9.4275ZM110.71 9.4275C110.71 9.8475 110.785 10.2412 110.935 10.6088C111.092 10.9687 111.306 11.2875 111.576 11.565C111.846 11.835 112.157 12.0487 112.51 12.2062C112.87 12.3562 113.256 12.4312 113.668 12.4312C114.073 12.4312 114.452 12.3562 114.805 12.2062C115.157 12.0487 115.465 11.835 115.727 11.565C115.997 11.2875 116.207 10.9687 116.357 10.6088C116.507 10.2412 116.582 9.8475 116.582 9.4275C116.582 9.0075 116.503 8.6175 116.346 8.2575C116.196 7.89 115.986 7.5675 115.716 7.29C115.453 7.0125 115.142 6.795 114.782 6.6375C114.43 6.48 114.051 6.40125 113.646 6.40125C113.226 6.40125 112.84 6.48 112.487 6.6375C112.135 6.795 111.823 7.0125 111.553 7.29C111.283 7.5675 111.073 7.89 110.923 8.2575C110.781 8.625 110.71 9.015 110.71 9.4275ZM122.651 5.3325H123.855V13.5H122.651V5.3325ZM136.303 13.7813L130.015 7.5375L130.363 7.65L130.397 13.5H129.182V5.07375H129.238L135.448 11.3287L135.167 11.25L135.145 5.3325H136.337V13.7813H136.303ZM148.125 12.78C148.013 12.8775 147.855 12.975 147.653 13.0725C147.45 13.17 147.221 13.2562 146.966 13.3312C146.719 13.4062 146.464 13.4662 146.201 13.5113C145.939 13.5638 145.691 13.59 145.459 13.59C144.799 13.59 144.206 13.4887 143.681 13.2862C143.156 13.0837 142.706 12.8025 142.331 12.4425C141.956 12.0825 141.668 11.6625 141.465 11.1825C141.27 10.695 141.173 10.1662 141.173 9.59625C141.173 8.89875 141.285 8.28 141.51 7.74C141.735 7.2 142.039 6.74625 142.421 6.37875C142.811 6.00375 143.258 5.7225 143.76 5.535C144.27 5.34 144.803 5.2425 145.358 5.2425C145.845 5.2425 146.295 5.29875 146.708 5.41125C147.128 5.52375 147.488 5.67 147.788 5.85L147.394 6.9525C147.244 6.87 147.056 6.79125 146.831 6.71625C146.614 6.63375 146.389 6.57 146.156 6.525C145.924 6.48 145.71 6.4575 145.515 6.4575C145.035 6.4575 144.604 6.52875 144.221 6.67125C143.846 6.80625 143.524 7.005 143.254 7.2675C142.984 7.53 142.774 7.84875 142.624 8.22375C142.481 8.59875 142.41 9.0225 142.41 9.495C142.41 9.9225 142.485 10.3162 142.635 10.6762C142.785 11.0287 142.995 11.3362 143.265 11.5987C143.535 11.8537 143.858 12.0525 144.233 12.195C144.608 12.33 145.024 12.3975 145.481 12.3975C145.744 12.3975 146.003 12.3712 146.258 12.3187C146.513 12.2662 146.73 12.1912 146.91 12.0938V10.6088H145.335V9.45H148.125V12.78Z" fill="#292E36"/>
<line x1="1.75" y1="0.875" x2="148.75" y2="0.875" stroke="#292E36" stroke-width="0.75"/>
<line x1="1.75" y1="18.875" x2="148.75" y2="18.875" stroke="#292E36" stroke-width="0.75"/>
</svg>
