<svg width="284" height="142" viewBox="0 0 284 142" fill="none" xmlns="http://www.w3.org/2000/svg">
<path d="M142.127 119.791C116.627 119.791 95.8662 99.0372 95.8662 73.5127C95.8662 47.9882 116.627 27.2495 142.127 27.2495C167.627 27.2495 188.388 48.0029 188.388 73.5274C188.388 99.052 167.627 119.791 142.127 119.791ZM142.127 28.7266C117.439 28.7266 97.3428 48.8154 97.3428 73.5274C97.3428 98.2395 117.439 118.313 142.127 118.313C166.815 118.313 186.911 98.2248 186.911 73.5127C186.911 48.8006 166.815 28.7266 142.127 28.7266Z" fill="#E1B168"/>
<path d="M142.126 128.653C138.39 128.653 134.655 128.269 131.022 127.53C127.479 126.806 123.994 125.728 120.672 124.325C117.394 122.936 114.249 121.223 111.31 119.244C108.387 117.279 105.655 115.004 103.16 112.508C100.664 110.012 98.4051 107.264 96.4265 104.354C96.2345 104.059 96.3083 103.66 96.6037 103.468C96.899 103.276 97.2976 103.35 97.4896 103.645C99.4091 106.496 101.624 109.184 104.06 111.622C106.497 114.059 109.184 116.275 112.034 118.195C114.913 120.145 117.984 121.814 121.174 123.158C124.422 124.532 127.818 125.58 131.273 126.289C138.361 127.737 145.877 127.737 152.979 126.289C156.434 125.58 159.83 124.532 163.079 123.158C166.268 121.814 169.339 120.13 172.218 118.195C175.068 116.26 177.756 114.059 180.192 111.622C182.628 109.184 184.843 106.511 186.763 103.645C186.955 103.35 187.353 103.276 187.649 103.468C187.944 103.66 188.018 104.059 187.826 104.354C185.847 107.279 183.588 110.026 181.093 112.508C178.597 115.004 175.866 117.264 172.942 119.244C170.004 121.238 166.844 122.951 163.581 124.325C160.258 125.728 156.774 126.806 153.23 127.53C149.597 128.269 145.862 128.653 142.126 128.653Z" fill="#E1B168"/>
<path d="M187.294 43.6896C187.087 43.6896 186.895 43.5862 186.763 43.409C184.843 40.5581 182.628 37.8698 180.192 35.4326C177.756 32.9953 175.083 30.7797 172.218 28.8594C169.339 26.9096 166.268 25.2405 163.079 23.8963C159.83 22.5226 156.434 21.4739 152.979 20.7648C145.891 19.3173 138.376 19.3173 131.273 20.7648C127.818 21.4739 124.407 22.5226 121.174 23.8963C117.984 25.2553 114.898 26.9244 112.034 28.8594C109.184 30.7797 106.497 32.9953 104.06 35.4326C101.624 37.8698 99.4091 40.5581 97.4896 43.409C97.2976 43.7044 96.899 43.7783 96.6037 43.5862C96.3083 43.3942 96.2345 42.9954 96.4265 42.7C98.4051 39.7753 100.664 37.0278 103.16 34.5463C105.655 32.05 108.401 29.79 111.31 27.8107C114.249 25.8166 117.408 24.1179 120.672 22.7294C123.994 21.3261 127.479 20.2478 131.022 19.5093C138.287 18.0174 145.965 18.0174 153.23 19.5093C156.774 20.2331 160.258 21.3114 163.581 22.7294C166.844 24.1179 170.004 25.8166 172.942 27.8107C175.866 29.79 178.612 32.05 181.093 34.5463C183.588 37.0426 185.847 39.79 187.826 42.7C188.018 42.9954 187.944 43.3942 187.649 43.5862C187.545 43.6453 187.427 43.6896 187.294 43.6896Z" fill="#E1B168"/>
<path d="M144.356 89.9824C141.034 89.9824 137.8 89.2734 134.744 87.8849C132.455 88.9484 130.033 89.4802 127.538 89.4802C118.058 89.4802 110.336 81.7549 110.336 72.2718C110.336 64.2068 115.991 57.1905 123.832 55.4771C127.937 47.9143 135.762 43.2466 144.356 43.2466C156.656 43.2466 166.8 52.774 167.627 65.0192C171.51 67.4269 173.902 71.6958 173.902 76.26C173.902 83.557 167.966 89.495 160.672 89.495C158.413 89.495 156.183 88.9041 154.19 87.7815C151.089 89.2439 147.767 89.9824 144.356 89.9824ZM134.744 86.2601L135.068 86.4078C141.078 89.2291 147.974 89.1848 153.924 86.2749L154.278 86.0976L154.618 86.3044C156.464 87.4122 158.56 88.0031 160.687 88.0031C167.169 88.0031 172.44 82.7298 172.44 76.2453C172.44 72.065 170.181 68.1655 166.549 66.068L166.194 65.8612L166.18 65.4624C165.589 53.8227 156.006 44.6942 144.356 44.6942C136.191 44.6942 128.763 49.1993 124.969 56.452L124.806 56.7622L124.467 56.836C117.143 58.2984 111.812 64.7829 111.812 72.2571C111.812 80.9277 118.87 87.9883 127.538 87.9883C129.93 87.9883 132.233 87.4418 134.419 86.393L134.744 86.2601Z" fill="#E1B168"/>
<path d="M159.446 103.779H124.806V87.7963L125.633 87.8997C126.356 87.9884 126.961 88.0327 127.537 88.0327C129.929 88.0327 132.233 87.4861 134.418 86.4374L134.743 86.2601L135.068 86.4079C141.077 89.2291 147.973 89.1848 153.923 86.2749L154.278 86.0977L154.617 86.3045C155.902 87.0725 157.305 87.5895 158.826 87.8406L159.446 87.944V103.779ZM126.282 102.302H157.969V89.1848C156.64 88.9042 155.371 88.4315 154.204 87.7668C148.047 90.6619 140.959 90.7062 134.743 87.8997C132.454 88.9633 130.033 89.495 127.537 89.495C127.139 89.495 126.725 89.4802 126.282 89.4359V102.302Z" fill="#E1B168"/>
<path d="M127.434 67.2199C127.02 67.2199 126.695 66.8949 126.695 66.4813C126.695 56.8653 134.521 49.0366 144.133 49.0366C144.547 49.0366 144.872 49.3616 144.872 49.7752C144.872 50.1888 144.547 50.5137 144.133 50.5137C135.333 50.5137 128.172 57.6777 128.172 66.4813C128.172 66.8949 127.847 67.2199 127.434 67.2199Z" fill="#E1B168"/>
<path d="M283.136 53.5855H183.542C183.129 53.5855 182.804 53.2605 182.804 52.847C182.804 52.4334 183.129 52.1084 183.542 52.1084H283.136C283.55 52.1084 283.874 52.4334 283.874 52.847C283.874 53.2605 283.55 53.5855 283.136 53.5855Z" fill="#E1B168"/>
<path d="M283.136 94.9302H183.542C183.129 94.9302 182.804 94.6053 182.804 94.1917C182.804 93.7781 183.129 93.4531 183.542 93.4531H283.136C283.55 93.4531 283.874 93.7781 283.874 94.1917C283.874 94.6053 283.55 94.9302 283.136 94.9302Z" fill="#E1B168"/>
<path d="M100.708 53.5855H1.11426C0.70082 53.5855 0.375977 53.2605 0.375977 52.847C0.375977 52.4334 0.70082 52.1084 1.11426 52.1084H100.708C101.122 52.1084 101.447 52.4334 101.447 52.847C101.447 53.2605 101.107 53.5855 100.708 53.5855Z" fill="#E1B168"/>
<path d="M100.708 94.9302H1.11426C0.70082 94.9302 0.375977 94.6053 0.375977 94.1917C0.375977 93.7781 0.70082 93.4531 1.11426 93.4531H100.708C101.122 93.4531 101.447 93.7781 101.447 94.1917C101.447 94.6053 101.107 94.9302 100.708 94.9302Z" fill="#E1B168"/>
<path d="M56.7209 77.1607H31.1764C29.1683 77.1607 27.5293 75.5211 27.5293 73.5122C27.5293 71.5034 29.1683 69.8638 31.1764 69.8638H58.7291C59.1425 69.8638 59.4673 70.1887 59.4673 70.6023C59.4673 71.0159 59.1425 71.3409 58.7291 71.3409H31.1764C29.9804 71.3409 29.0059 72.3158 29.0059 73.5122C29.0059 74.7087 29.9804 75.6836 31.1764 75.6836H56.7062C57.1196 75.6836 57.4445 76.0086 57.4445 76.4222C57.4445 76.8357 57.1196 77.1607 56.7209 77.1607Z" fill="#E1B168"/>
<path d="M14.9339 83.9406C7.18199 83.9406 0.862305 79.2729 0.862305 73.5269C0.862305 67.781 7.16723 63.1133 14.9339 63.1133C22.6859 63.1133 29.0056 67.781 29.0056 73.5269C29.0056 79.2729 22.7007 83.9406 14.9339 83.9406ZM14.9339 64.5756C7.9941 64.5756 2.33887 68.5934 2.33887 73.5121C2.33887 78.4309 7.9941 82.4487 14.9339 82.4487C21.8738 82.4487 27.529 78.4309 27.529 73.5121C27.529 68.5934 21.8886 64.5756 14.9339 64.5756Z" fill="#E1B168"/>
<path d="M251.434 77.1612H225.905C225.491 77.1612 225.166 76.8362 225.166 76.4226C225.166 76.009 225.491 75.6841 225.905 75.6841H251.434C252.631 75.6841 253.605 74.7092 253.605 73.5127C253.605 72.3163 252.631 71.3414 251.434 71.3414H223.882C223.468 71.3414 223.144 71.0164 223.144 70.6028C223.144 70.1892 223.468 69.8643 223.882 69.8643H251.434C253.443 69.8643 255.082 71.5039 255.082 73.5127C255.082 75.5216 253.443 77.1612 251.434 77.1612Z" fill="#E1B168"/>
<path d="M265.447 80.4256H260.516C256.706 80.4256 253.605 77.3237 253.605 73.5127C253.605 69.7018 256.706 66.5999 260.516 66.5999H265.447V80.4256ZM260.516 68.0917C257.518 68.0917 255.082 70.529 255.082 73.5275C255.082 76.526 257.518 78.9633 260.516 78.9633H263.971V68.1065H260.516V68.0917Z" fill="#E1B168"/>
<path d="M281.011 68.0914H264.725C264.311 68.0914 263.986 67.7664 263.986 67.3528C263.986 66.9392 264.311 66.6143 264.725 66.6143H281.011C281.425 66.6143 281.749 66.9392 281.749 67.3528C281.749 67.7664 281.41 68.0914 281.011 68.0914Z" fill="#E1B168"/>
<path d="M281.011 74.251H264.725C264.311 74.251 263.986 73.9261 263.986 73.5125C263.986 73.0989 264.311 72.7739 264.725 72.7739H281.011C281.425 72.7739 281.749 73.0989 281.749 73.5125C281.749 73.9261 281.41 74.251 281.011 74.251Z" fill="#E1B168"/>
<path d="M281.011 80.4254H264.725C264.311 80.4254 263.986 80.1004 263.986 79.6868C263.986 79.2732 264.311 78.9482 264.725 78.9482H281.011C281.425 78.9482 281.749 79.2732 281.749 79.6868C281.749 80.1004 281.41 80.4254 281.011 80.4254Z" fill="#E1B168"/>
<path d="M96.7216 83.941H83.8164C83.403 83.941 83.0781 83.616 83.0781 83.2024C83.0781 82.7888 83.403 82.4639 83.8164 82.4639H96.7216C97.135 82.4639 97.4598 82.7888 97.4598 83.2024C97.4598 83.616 97.135 83.941 96.7216 83.941Z" fill="#E1B168"/>
<path d="M96.087 72.9366H71.5908C71.1774 72.9366 70.8525 72.6116 70.8525 72.198C70.8525 71.7844 71.1774 71.4595 71.5908 71.4595H96.087C96.5004 71.4595 96.8253 71.7844 96.8253 72.198C96.8253 72.6116 96.5004 72.9366 96.087 72.9366Z" fill="#E1B168"/>
<path d="M97.7118 61.9319H84.8066C84.3932 61.9319 84.0684 61.607 84.0684 61.1934C84.0684 60.7798 84.3932 60.4548 84.8066 60.4548H97.7118C98.1252 60.4548 98.4501 60.7798 98.4501 61.1934C98.4501 61.607 98.1252 61.9319 97.7118 61.9319Z" fill="#E1B168"/>
<path d="M96.7068 78.4312H77.541C77.1276 78.4312 76.8027 78.1063 76.8027 77.6927C76.8027 77.2791 77.1276 76.9541 77.541 76.9541H96.7068C97.1202 76.9541 97.4451 77.2791 97.4451 77.6927C97.4451 78.1063 97.1055 78.4312 96.7068 78.4312Z" fill="#E1B168"/>
<path d="M96.6043 67.3533H77.4385C77.025 67.3533 76.7002 67.0284 76.7002 66.6148C76.7002 66.2012 77.025 65.8762 77.4385 65.8762H96.6043C97.0177 65.8762 97.3425 66.2012 97.3425 66.6148C97.3425 67.0284 97.0177 67.3533 96.6043 67.3533Z" fill="#E1B168"/>
<path d="M200.421 63.2466H187.516C187.102 63.2466 186.777 62.9217 186.777 62.5081C186.777 62.0945 187.102 61.7695 187.516 61.7695H200.421C200.834 61.7695 201.159 62.0945 201.159 62.5081C201.159 62.9217 200.834 63.2466 200.421 63.2466Z" fill="#E1B168"/>
<path d="M212.661 74.251H188.165C187.752 74.251 187.427 73.9261 187.427 73.5125C187.427 73.0989 187.752 72.7739 188.165 72.7739H212.661C213.075 72.7739 213.4 73.0989 213.4 73.5125C213.4 73.9261 213.075 74.251 212.661 74.251Z" fill="#E1B168"/>
<path d="M199.432 85.2554H186.526C186.113 85.2554 185.788 84.9305 185.788 84.5169C185.788 84.1033 186.113 83.7783 186.526 83.7783H199.432C199.845 83.7783 200.17 84.1033 200.17 84.5169C200.17 84.9305 199.845 85.2554 199.432 85.2554Z" fill="#E1B168"/>
<path d="M206.711 68.7564H187.545C187.131 68.7564 186.807 68.4314 186.807 68.0179C186.807 67.6043 187.131 67.2793 187.545 67.2793H206.711C207.124 67.2793 207.449 67.6043 207.449 68.0179C207.449 68.4314 207.124 68.7564 206.711 68.7564Z" fill="#E1B168"/>
<path d="M206.814 79.8341H187.648C187.235 79.8341 186.91 79.5091 186.91 79.0955C186.91 78.6819 187.235 78.3569 187.648 78.3569H206.814C207.228 78.3569 207.552 78.6819 207.552 79.0955C207.552 79.5091 207.213 79.8341 206.814 79.8341Z" fill="#E1B168"/>
<path d="M93.4152 110.352L86.0472 112.243L84.8807 110.396L87.8634 106.866L83.3598 107.988L82.1934 106.142L87.0512 100.293L88.1734 102.08L85.0431 105.788L89.7681 104.606L90.7722 106.201L87.6123 109.924L92.3669 108.712L93.4152 110.352Z" fill="#E1B168"/>
<path d="M95.409 120.691L94.2572 121.77L90.2705 117.545L95.5418 112.582L99.44 116.718L98.2883 117.796L95.7929 115.137L94.8774 115.979L97.0775 118.313L95.97 119.362L93.77 117.028L92.8102 117.929L95.409 120.691Z" fill="#E1B168"/>
<path d="M102.157 119.17L103.766 120.44L100.281 124.842L102.984 126.984L101.98 128.254L97.668 124.842L102.157 119.17Z" fill="#E1B168"/>
<path d="M107.03 131.105C106.661 130.529 106.469 129.909 106.454 129.244C106.439 128.579 106.602 127.929 106.971 127.294C107.325 126.659 107.798 126.186 108.374 125.861C108.949 125.537 109.584 125.374 110.278 125.404C110.958 125.418 111.637 125.625 112.286 125.994C112.862 126.319 113.32 126.718 113.674 127.191C114.029 127.664 114.236 128.166 114.324 128.727L112.597 129.096C112.464 128.373 112.109 127.841 111.533 127.516C111.194 127.324 110.839 127.22 110.5 127.22C110.145 127.22 109.821 127.309 109.525 127.501C109.23 127.693 108.979 127.959 108.772 128.313C108.566 128.668 108.462 129.023 108.462 129.377C108.462 129.732 108.536 130.056 108.728 130.367C108.905 130.662 109.171 130.913 109.511 131.105C110.086 131.43 110.721 131.475 111.415 131.209L111.962 132.878C111.445 133.085 110.884 133.158 110.308 133.099C109.732 133.04 109.156 132.848 108.58 132.523C107.901 132.154 107.384 131.681 107.03 131.105Z" fill="#E1B168"/>
<path d="M116.952 136.009C116.494 135.492 116.184 134.916 116.051 134.251C115.918 133.601 115.977 132.937 116.213 132.257C116.45 131.578 116.834 131.031 117.365 130.618C117.882 130.204 118.487 129.938 119.167 129.835C119.846 129.731 120.555 129.82 121.278 130.071C122.002 130.322 122.592 130.721 123.05 131.223C123.508 131.74 123.818 132.316 123.951 132.981C124.084 133.646 124.025 134.296 123.788 134.975C123.552 135.655 123.168 136.201 122.637 136.615C122.12 137.043 121.514 137.294 120.835 137.398C120.156 137.501 119.447 137.412 118.738 137.161C118 136.895 117.41 136.511 116.952 136.009ZM120.318 135.655C120.658 135.596 120.953 135.448 121.234 135.212C121.5 134.975 121.706 134.665 121.839 134.281C121.972 133.897 122.016 133.528 121.957 133.173C121.898 132.819 121.765 132.508 121.544 132.257C121.322 132.006 121.042 131.799 120.702 131.681C120.363 131.563 120.023 131.534 119.683 131.593C119.344 131.652 119.049 131.799 118.768 132.036C118.487 132.272 118.295 132.582 118.163 132.966C118.03 133.35 117.985 133.72 118.044 134.074C118.104 134.429 118.236 134.739 118.458 135.005C118.679 135.271 118.96 135.463 119.3 135.581C119.639 135.699 119.979 135.714 120.318 135.655Z" fill="#E1B168"/>
<path d="M133.651 140.573L134.212 136.777L131.894 139.584L130.993 139.451L129.62 136.186L129.044 139.879L127.169 139.584L128.276 132.435L129.945 132.686L131.82 137.206L134.906 133.454L136.575 133.705L135.497 140.854L133.651 140.573Z" fill="#E1B168"/>
<path d="M146.335 139.362L146.365 140.943L140.562 141.061L140.414 133.823L146.084 133.705L146.114 135.286L142.466 135.359L142.496 136.585L145.715 136.512L145.744 138.048L142.526 138.122L142.555 139.451L146.335 139.362Z" fill="#E1B168"/>
<path d="M157.188 133.528L155.047 134.104L154.619 132.538L160.88 130.854L161.308 132.42L159.167 132.996L160.629 138.417L158.65 138.949L157.188 133.528Z" fill="#E1B168"/>
<path d="M168.07 135.463C167.376 135.418 166.756 135.212 166.209 134.828C165.648 134.458 165.235 133.941 164.94 133.291C164.644 132.641 164.541 131.977 164.615 131.312C164.689 130.647 164.94 130.042 165.368 129.495C165.796 128.949 166.342 128.52 167.036 128.195C167.73 127.87 168.424 127.737 169.118 127.782C169.812 127.826 170.432 128.033 170.979 128.417C171.54 128.801 171.953 129.303 172.249 129.968C172.544 130.633 172.647 131.282 172.573 131.947C172.5 132.612 172.249 133.217 171.82 133.764C171.392 134.311 170.846 134.739 170.137 135.064C169.458 135.374 168.764 135.507 168.07 135.463ZM170.24 132.863C170.432 132.582 170.551 132.272 170.58 131.903C170.61 131.548 170.536 131.179 170.373 130.81C170.211 130.441 169.975 130.145 169.694 129.938C169.414 129.732 169.089 129.599 168.749 129.569C168.409 129.539 168.07 129.599 167.745 129.746C167.405 129.894 167.14 130.116 166.948 130.396C166.756 130.677 166.638 130.987 166.608 131.356C166.579 131.726 166.652 132.08 166.815 132.449C166.977 132.819 167.213 133.114 167.494 133.321C167.775 133.528 168.099 133.661 168.439 133.69C168.779 133.72 169.118 133.661 169.443 133.513C169.783 133.365 170.048 133.144 170.24 132.863Z" fill="#E1B168"/>
<path d="M183.987 126.069C183.308 126.216 182.658 126.172 182.024 125.965C181.389 125.758 180.842 125.374 180.385 124.828C179.927 124.281 179.646 123.676 179.543 123.011C179.44 122.346 179.513 121.696 179.779 121.061C180.03 120.426 180.458 119.85 181.049 119.362C181.64 118.875 182.26 118.55 182.939 118.402C183.618 118.255 184.268 118.284 184.903 118.506C185.538 118.727 186.084 119.097 186.542 119.643C187 120.19 187.28 120.795 187.383 121.46C187.487 122.125 187.413 122.775 187.147 123.41C186.896 124.045 186.468 124.621 185.877 125.108C185.301 125.611 184.667 125.921 183.987 126.069ZM185.375 122.981C185.493 122.656 185.508 122.317 185.449 121.977C185.375 121.622 185.213 121.297 184.947 120.987C184.681 120.677 184.386 120.455 184.061 120.323C183.736 120.19 183.397 120.16 183.057 120.219C182.718 120.278 182.407 120.426 182.127 120.662C181.846 120.899 181.654 121.179 181.536 121.504C181.418 121.829 181.403 122.169 181.462 122.509C181.536 122.863 181.699 123.188 181.964 123.498C182.23 123.809 182.526 124.03 182.85 124.163C183.19 124.296 183.515 124.326 183.854 124.266C184.194 124.207 184.504 124.06 184.785 123.823C185.065 123.587 185.272 123.306 185.375 122.981Z" fill="#E1B168"/>
<path d="M192.138 117.9C191.311 117.989 190.484 117.678 189.657 116.984L186.586 114.414L187.9 112.848L190.927 115.374C191.813 116.113 192.551 116.127 193.142 115.433C193.718 114.739 193.57 114.015 192.684 113.277L189.657 110.751L190.957 109.2L194.028 111.77C194.855 112.464 195.298 113.217 195.371 114.059C195.445 114.901 195.135 115.729 194.441 116.541C193.718 117.368 192.965 117.811 192.138 117.9Z" fill="#E1B168"/>
<path d="M199.24 106.054L198.679 107.014L200.333 107.989L199.3 109.761L193.054 106.113L194.722 103.247C195.047 102.686 195.431 102.243 195.859 101.933C196.287 101.622 196.745 101.46 197.232 101.43C197.705 101.401 198.192 101.534 198.65 101.8C199.108 102.065 199.432 102.405 199.654 102.804C199.861 103.218 199.949 103.661 199.92 104.178L202.666 104L201.559 105.891L199.24 106.054ZM196.775 103.498C196.509 103.587 196.273 103.823 196.051 104.178L195.475 105.167L197.306 106.231L197.882 105.241C198.089 104.872 198.177 104.562 198.118 104.281C198.074 104 197.897 103.779 197.602 103.616C197.306 103.454 197.04 103.41 196.775 103.498Z" fill="#E1B168"/>
<path d="M82.8413 33.6449C82.9299 34.3687 83.2843 35.1516 83.934 35.9787C83.9635 35.9935 83.9488 36.0378 83.9045 36.0969C83.8602 36.156 83.8159 36.1708 83.7863 36.156C83.4024 35.8015 82.9004 35.3583 82.2802 34.797C81.6601 34.2505 81.1876 33.8517 80.8627 33.6006C80.8037 33.5563 80.8037 33.512 80.848 33.4529C80.8923 33.3938 80.9366 33.379 80.9956 33.4233C81.2319 33.6006 81.5715 33.3938 82.0145 32.7882C82.738 31.8871 83.5501 30.8384 84.4803 29.5976C84.9528 28.9625 85.4401 28.2978 85.9421 27.574L86.7395 26.4661C87.0495 26.0673 87.2415 25.7423 87.3301 25.5208C87.4187 25.2992 87.4039 25.0924 87.2858 24.9152C87.2563 24.8709 87.2563 24.8265 87.2858 24.7675C87.3301 24.7084 87.3744 24.7084 87.4039 24.7379C87.714 25.0186 88.1865 25.4322 88.8362 25.9639C89.4859 26.4957 90.0174 26.924 90.4309 27.2342C90.4604 27.2638 90.4604 27.2933 90.4161 27.3524C90.3718 27.4115 90.3275 27.441 90.298 27.4263C89.3973 26.924 88.5999 26.7172 87.9207 26.8206C87.2415 26.924 86.6361 27.3081 86.1341 27.9876C85.9126 28.283 85.7649 28.5341 85.7206 28.7113C85.6616 28.8886 85.6911 29.0659 85.7797 29.2136C85.8831 29.3613 86.075 29.5385 86.3556 29.7601L93.7384 35.2993C94.0632 35.5504 94.329 35.6981 94.5357 35.7424C94.7277 35.7867 94.9344 35.7424 95.1263 35.5799C95.3183 35.4322 95.5841 35.1368 95.8942 34.7232C95.9237 34.6936 95.968 34.6937 96.027 34.7527C96.0861 34.797 96.1156 34.8414 96.0861 34.8709C95.8056 35.2402 95.5841 35.5356 95.4069 35.7424L94.4028 37.0423L93.4874 38.2978C93.3249 38.5341 93.1034 38.8443 92.8081 39.2432C92.7934 39.2579 92.7491 39.2579 92.69 39.1988C92.6309 39.1398 92.6014 39.1102 92.6162 39.0954C92.9263 38.6819 93.133 38.3569 93.2216 38.1058C93.3102 37.8694 93.3102 37.6626 93.2068 37.4706C93.1034 37.2786 92.8967 37.0718 92.5719 36.8355L85.1595 31.2815C84.879 31.0747 84.6575 30.9418 84.4951 30.9122C84.3327 30.8679 84.1702 30.8975 84.0078 31.0009C83.8454 31.1043 83.6682 31.2963 83.4467 31.5769C82.9595 32.2416 82.7675 32.9211 82.8413 33.6449Z" fill="#E1B168"/>
<path d="M108.844 22.7887C108.888 22.8478 108.903 22.8921 108.873 22.9216C108.534 23.2171 108.238 23.4534 108.017 23.6159L106.895 24.5465L105.61 25.6543C105.433 25.8168 105.197 26.0384 104.887 26.2895C104.857 26.319 104.813 26.3042 104.768 26.2304C104.724 26.1713 104.709 26.127 104.739 26.0974C105.123 25.7725 105.389 25.5066 105.522 25.3146C105.654 25.1225 105.684 24.9157 105.625 24.7237C105.566 24.5317 105.403 24.2806 105.138 23.9556L102.155 20.4253L96.9132 24.8567L99.8958 28.387C100.147 28.6972 100.383 28.8892 100.56 28.9926C100.737 29.0812 100.944 29.0812 101.166 28.9926C101.387 28.8892 101.697 28.6824 102.081 28.3574C102.096 28.3427 102.14 28.3574 102.184 28.4165C102.244 28.4756 102.258 28.5199 102.229 28.5347C101.889 28.8301 101.609 29.0517 101.402 29.1994L100.117 30.2629L99.0099 31.223C98.8327 31.4003 98.5521 31.6366 98.2125 31.9173C98.1978 31.932 98.1535 31.9173 98.1092 31.8582C98.0649 31.7991 98.0501 31.7548 98.0649 31.74C98.434 31.4298 98.685 31.1787 98.8032 30.9719C98.9361 30.7799 98.9656 30.5731 98.9065 30.3811C98.8475 30.1743 98.685 29.9232 98.4193 29.6277L92.4392 22.5524C92.1734 22.2422 91.9519 22.0501 91.7747 21.9615C91.5975 21.8729 91.3908 21.8729 91.1693 21.9615C90.9479 22.0501 90.6673 22.2422 90.2982 22.5524C90.2834 22.5671 90.2391 22.5524 90.1948 22.4933C90.1357 22.4342 90.121 22.3899 90.1505 22.3751L90.9774 21.7104C91.4646 21.3411 91.8338 21.0309 92.0996 20.8094C92.4539 20.514 92.8674 20.1447 93.3399 19.7015L94.1372 19.0073C94.152 18.9925 94.1963 19.0073 94.2406 19.0664C94.2849 19.1255 94.2996 19.1698 94.2849 19.1846C93.901 19.5095 93.65 19.7754 93.5318 19.9822C93.3989 20.189 93.3694 20.3958 93.4285 20.6026C93.4875 20.8094 93.65 21.0605 93.901 21.3707L96.544 24.4874L101.786 20.056L99.1428 16.9393C98.8918 16.6291 98.6555 16.4371 98.4783 16.3337C98.2864 16.2451 98.0796 16.2303 97.8582 16.319C97.6367 16.4076 97.3266 16.6144 96.9427 16.9393C96.9132 16.9689 96.8689 16.9541 96.8246 16.8803C96.7655 16.8212 96.7655 16.7769 96.795 16.7473L97.5333 16.1417C98.0354 15.7429 98.4783 15.3884 98.8622 15.0782C99.1428 14.8418 99.4971 14.5169 99.9549 14.1033L100.782 13.3795C100.811 13.35 100.856 13.3647 100.9 13.4386C100.959 13.4977 100.959 13.542 100.929 13.5715C100.56 13.8817 100.324 14.1328 100.191 14.3396C100.073 14.5316 100.043 14.7384 100.103 14.9305C100.162 15.1225 100.324 15.3736 100.575 15.6838L106.555 22.7592C106.806 23.0694 107.042 23.2614 107.22 23.3648C107.412 23.4682 107.603 23.4682 107.81 23.3648C108.017 23.2762 108.312 23.0694 108.681 22.7592C108.755 22.7148 108.799 22.7296 108.844 22.7887Z" fill="#E1B168"/>
<path d="M116.182 15.5948C116.211 15.5801 116.256 15.5653 116.3 15.5653C116.344 15.5653 116.359 15.5801 116.374 15.5801C116.743 16.5402 117.112 17.3821 117.511 18.1355C117.555 18.2241 117.585 18.3127 117.57 18.3718C117.555 18.4309 117.496 18.49 117.393 18.5491L109.729 22.6554C109.7 22.6702 109.655 22.6554 109.626 22.5816C109.582 22.5077 109.582 22.4634 109.626 22.4486C110.025 22.2271 110.305 22.0498 110.453 21.8873C110.6 21.7248 110.66 21.5476 110.645 21.3408C110.63 21.134 110.512 20.8533 110.32 20.4988L105.949 12.3304C105.757 11.9759 105.595 11.7396 105.432 11.6066C105.285 11.4737 105.093 11.4294 104.871 11.4589C104.65 11.5032 104.34 11.6214 103.956 11.8282C103.926 11.843 103.882 11.8282 103.853 11.7543C103.808 11.6805 103.808 11.6362 103.853 11.6214L111.191 7.69227C111.309 7.63319 111.398 7.64796 111.457 7.75136L112.727 10.0261C112.741 10.0557 112.712 10.0852 112.653 10.1295C112.594 10.1738 112.55 10.1886 112.52 10.1591C111.516 8.96259 110.349 8.74102 108.991 9.46481L108.282 9.84886C107.854 10.0704 107.603 10.3068 107.5 10.5579C107.411 10.809 107.455 11.1192 107.647 11.4737L109.582 15.0778L111.28 14.162C112.579 13.4678 112.992 12.6849 112.52 11.8134C112.505 11.7839 112.52 11.7396 112.594 11.71C112.668 11.6805 112.697 11.6805 112.712 11.71L113.524 13.261L113.982 14.0882C114.203 14.4574 114.38 14.7529 114.513 14.9892C114.528 15.0188 114.499 15.0483 114.425 15.0778C114.351 15.1221 114.307 15.1221 114.307 15.1074C113.76 14.0882 112.83 13.9405 111.516 14.6495L109.788 15.521L111.929 19.5239C112.136 19.908 112.358 20.1443 112.579 20.2182C112.815 20.292 113.111 20.233 113.48 20.0262L114.351 19.5683C115.931 18.7263 116.521 17.4264 116.123 15.6687C116.108 15.6391 116.138 15.6244 116.182 15.5948Z" fill="#E1B168"/>
<path d="M121.808 4.84155C121.41 5.44717 121.188 6.27435 121.144 7.3231C121.144 7.35264 121.115 7.36741 121.041 7.38218C120.967 7.39696 120.923 7.38218 120.923 7.35264C120.863 6.83565 120.76 6.17095 120.642 5.35854C120.524 4.54613 120.421 3.94051 120.317 3.52692C120.302 3.46784 120.332 3.42352 120.406 3.40875C120.48 3.39398 120.524 3.40875 120.539 3.48261C120.612 3.76326 120.996 3.82234 121.735 3.65986C122.857 3.43829 124.171 3.15764 125.662 2.80314C126.43 2.62588 127.242 2.41909 128.099 2.19752L129.413 1.87255C129.915 1.75439 130.269 1.63622 130.476 1.51805C130.683 1.39988 130.801 1.2374 130.83 1.0306C130.83 0.971516 130.86 0.941974 130.934 0.927203C130.993 0.912432 131.037 0.927203 131.052 0.986287C131.111 1.39988 131.214 2.02027 131.362 2.84745C131.51 3.67463 131.642 4.33933 131.761 4.85632C131.775 4.90064 131.746 4.93018 131.672 4.94495C131.598 4.95972 131.554 4.94495 131.524 4.91541C131.155 3.94051 130.683 3.27581 130.092 2.9213C129.501 2.55203 128.793 2.47817 127.981 2.65542C127.611 2.74405 127.36 2.83268 127.198 2.93608C127.036 3.03947 126.947 3.18718 126.932 3.36444C126.917 3.54169 126.947 3.80757 127.021 4.16208L129.103 13.1577C129.191 13.5565 129.309 13.8372 129.428 14.0144C129.546 14.1769 129.738 14.2655 129.974 14.2803C130.225 14.2951 130.609 14.236 131.111 14.1178C131.155 14.103 131.17 14.1474 131.199 14.2212C131.214 14.2951 131.199 14.3394 131.17 14.3542C130.712 14.4576 130.358 14.5314 130.092 14.5905L128.483 14.945L126.962 15.3143C126.696 15.3881 126.312 15.4915 125.84 15.5949C125.81 15.5949 125.795 15.5654 125.78 15.4915C125.766 15.4177 125.766 15.3734 125.795 15.3734C126.297 15.2552 126.666 15.137 126.888 15.0189C127.109 14.9007 127.242 14.7382 127.287 14.5314C127.331 14.3246 127.301 14.0292 127.213 13.6304L125.116 4.60521C125.042 4.26548 124.954 4.02914 124.85 3.88143C124.747 3.73372 124.599 3.65986 124.422 3.63032C124.245 3.60078 123.964 3.63032 123.625 3.71895C122.813 3.83711 122.222 4.23593 121.808 4.84155Z" fill="#E1B168"/>
<path d="M147.056 13.0691C147.056 13.143 147.027 13.1873 146.953 13.1873C146.702 13.2021 146.289 13.2021 145.728 13.1873C145.166 13.1725 144.753 13.1873 144.502 13.1873C144.162 13.2021 143.779 13.2316 143.321 13.2611C142.863 13.3055 142.523 13.335 142.258 13.335C142.199 13.335 142.169 13.2907 142.169 13.2168C142.169 13.143 142.199 13.0987 142.243 13.0987C142.627 13.0839 142.907 13.0248 143.085 12.9362C143.262 12.8476 143.35 12.6998 143.336 12.493C143.321 12.2862 143.203 11.9613 142.966 11.4886L140.648 7.17544L137.031 7.29361L135.613 10.8091C135.451 11.208 135.377 11.5772 135.392 11.9022C135.406 12.3749 135.584 12.7146 135.923 12.9509C136.263 13.1725 136.735 13.2907 137.341 13.2611C137.4 13.2611 137.444 13.2907 137.444 13.3793C137.444 13.4532 137.415 13.4975 137.355 13.4975C137.119 13.5123 136.765 13.5123 136.307 13.4975C135.805 13.4827 135.362 13.4975 134.978 13.4975C134.624 13.5123 134.196 13.5418 133.723 13.5861C133.295 13.6304 132.941 13.66 132.66 13.66C132.601 13.66 132.557 13.6304 132.557 13.5418C132.557 13.4679 132.586 13.4236 132.66 13.4236C133.029 13.4089 133.339 13.3202 133.59 13.1725C133.841 13.01 134.077 12.7442 134.299 12.3601C134.535 11.9761 134.786 11.4 135.096 10.6319L139.054 0.794313C139.113 0.779542 139.172 0.75 139.275 0.75C139.364 0.75 139.423 0.764771 139.437 0.809084L144.679 10.5285C145.181 11.4738 145.595 12.1238 145.92 12.4635C146.244 12.8032 146.584 12.9657 146.953 12.9509C147.012 12.9509 147.042 12.9805 147.056 13.0691ZM137.252 6.80616L140.412 6.70276L138.64 3.39403L137.252 6.80616Z" fill="#E1B168"/>
<path d="M151.413 4.9748C151.59 5.38839 151.841 5.75767 152.166 6.0974C152.476 6.43714 152.919 6.83596 153.48 7.32341C154.086 7.85517 154.558 8.2983 154.898 8.66758C155.238 9.03686 155.503 9.46522 155.71 9.95267C155.902 10.4401 155.961 10.9719 155.858 11.5627C155.754 12.2422 155.474 12.8035 155.046 13.2762C154.617 13.7488 154.056 14.0738 153.362 14.2658C152.668 14.4579 151.915 14.4874 151.103 14.3545C150.542 14.2658 149.996 14.1034 149.435 13.867C148.874 13.6307 148.46 13.3796 148.18 13.1137C148.076 13.0103 148.032 12.8773 148.047 12.7001L148.416 9.67201V9.65724C148.431 9.59816 148.46 9.58339 148.534 9.58339C148.593 9.58339 148.637 9.61293 148.637 9.67201C148.888 10.8389 149.243 11.8138 149.7 12.5967C150.143 13.3796 150.808 13.8522 151.679 13.9852C152.24 14.0738 152.742 14 153.17 13.7488C153.599 13.4977 153.879 13.0103 153.997 12.2865C154.086 11.7104 154.042 11.1787 153.864 10.706C153.687 10.2333 153.421 9.81973 153.097 9.46522C152.772 9.11071 152.314 8.68235 151.738 8.15059C151.177 7.6336 150.734 7.22001 150.424 6.8655C150.114 6.51099 149.863 6.12694 149.686 5.66904C149.509 5.21113 149.449 4.70892 149.538 4.14761C149.656 3.46814 149.937 2.92161 150.394 2.50802C150.852 2.09443 151.413 1.82855 152.063 1.69561C152.713 1.56267 153.377 1.5479 154.042 1.66606C154.485 1.73992 154.927 1.85809 155.356 2.0058C155.784 2.16828 156.153 2.33076 156.434 2.50802C156.552 2.5671 156.611 2.62619 156.64 2.70004C156.67 2.75913 156.685 2.84775 156.67 2.93638L156.301 5.6395C156.301 5.68381 156.256 5.69858 156.183 5.71335C156.109 5.72812 156.064 5.69858 156.064 5.6395C155.932 4.79754 155.695 4.01467 155.356 3.29089C155.016 2.5671 154.411 2.13874 153.525 1.99103C152.934 1.9024 152.432 1.99103 152.033 2.27168C151.635 2.55233 151.384 2.99547 151.28 3.58631C151.177 4.1033 151.236 4.54643 151.413 4.9748Z" fill="#E1B168"/>
<path d="M161.749 4.7823C161.084 5.07772 160.449 5.6538 159.844 6.51052C159.829 6.54007 159.8 6.54007 159.726 6.51052C159.652 6.48098 159.637 6.45144 159.637 6.4219C159.859 5.94922 160.139 5.3436 160.494 4.59028C160.848 3.83695 161.07 3.27565 161.217 2.87683C161.247 2.81774 161.291 2.7882 161.35 2.81774C161.424 2.84728 161.439 2.8916 161.424 2.95068C161.321 3.23133 161.631 3.49721 162.325 3.74832C163.388 4.17669 164.643 4.64936 166.09 5.16635C166.828 5.43223 167.625 5.69811 168.452 5.97876L169.737 6.4219C170.209 6.59915 170.579 6.68778 170.815 6.70255C171.051 6.71732 171.243 6.64346 171.376 6.48098C171.405 6.43667 171.45 6.4219 171.509 6.45144C171.568 6.48098 171.597 6.51052 171.583 6.55484C171.405 6.92411 171.154 7.51496 170.83 8.28306C170.505 9.06593 170.254 9.70109 170.077 10.1885C170.062 10.2328 170.018 10.2328 169.958 10.2033C169.885 10.1738 169.855 10.1442 169.855 10.0999C170.077 9.0807 170.032 8.26829 169.737 7.6479C169.442 7.02751 168.895 6.56961 168.098 6.28896C167.744 6.15602 167.478 6.09693 167.286 6.09693C167.094 6.09693 166.946 6.17079 166.828 6.30373C166.71 6.43667 166.592 6.673 166.474 7.01274L163.343 15.6982C163.211 16.0822 163.137 16.3776 163.151 16.5844C163.166 16.7912 163.27 16.9537 163.476 17.1014C163.683 17.2491 164.023 17.4116 164.525 17.5889C164.569 17.6036 164.569 17.648 164.539 17.7218C164.51 17.7957 164.48 17.8252 164.436 17.8104C163.993 17.648 163.654 17.515 163.403 17.4116L161.867 16.8355L160.39 16.3185C160.125 16.2299 159.755 16.1118 159.283 15.9493C159.253 15.9345 159.253 15.8902 159.283 15.8163C159.312 15.7425 159.342 15.7129 159.357 15.7129C159.844 15.8902 160.213 15.9936 160.479 16.0084C160.73 16.0231 160.937 15.964 161.084 15.8163C161.232 15.6686 161.38 15.4027 161.512 15.0187L164.658 6.28896C164.776 5.96399 164.835 5.71288 164.82 5.53563C164.805 5.35838 164.731 5.21066 164.599 5.0925C164.451 4.97433 164.215 4.85616 163.875 4.72322C163.137 4.48688 162.413 4.48688 161.749 4.7823Z" fill="#E1B168"/>
<path d="M177.415 21.1639C177.445 21.1787 177.474 21.2082 177.489 21.2525C177.504 21.2968 177.519 21.3116 177.504 21.3264C176.869 22.1388 176.338 22.8921 175.909 23.6159C175.85 23.7045 175.806 23.7636 175.747 23.7784C175.688 23.7931 175.614 23.7784 175.511 23.7193L168.024 19.3027C167.995 19.2879 167.995 19.2436 168.039 19.1698C168.084 19.0959 168.113 19.0812 168.157 19.0959C168.541 19.3323 168.851 19.4652 169.058 19.5095C169.265 19.5538 169.457 19.5095 169.619 19.3913C169.782 19.2584 169.959 19.0221 170.165 18.6823L174.876 10.6912C175.082 10.3514 175.201 10.0708 175.23 9.87874C175.26 9.68671 175.201 9.49469 175.053 9.31744C174.905 9.14018 174.639 8.94816 174.27 8.72659C174.241 8.71182 174.241 8.66751 174.285 8.59365C174.329 8.5198 174.359 8.50502 174.403 8.5198L181.579 12.7591C181.697 12.833 181.727 12.9068 181.653 13.0102L180.369 15.2702C180.354 15.2997 180.309 15.285 180.25 15.2702C180.177 15.2407 180.147 15.2111 180.162 15.1668C180.664 13.6897 180.25 12.5671 178.922 11.7842L178.228 11.3854C177.814 11.1343 177.474 11.0457 177.223 11.09C176.958 11.1343 176.721 11.3411 176.515 11.6956L174.433 15.2111L176.087 16.186C177.356 16.9393 178.242 16.8803 178.73 16.0235C178.744 15.994 178.789 15.994 178.862 16.0235C178.922 16.0678 178.951 16.0974 178.922 16.1269L178.021 17.6188L177.563 18.446C177.371 18.83 177.209 19.1402 177.076 19.3618C177.061 19.3913 177.017 19.3766 176.958 19.3323C176.884 19.2879 176.854 19.2584 176.869 19.2436C177.445 18.254 177.105 17.3825 175.821 16.6144L174.182 15.6542L171.878 19.5686C171.657 19.9526 171.568 20.2481 171.627 20.4844C171.686 20.7207 171.893 20.9423 172.262 21.1639L173.104 21.6661C174.639 22.5819 176.057 22.4047 177.356 21.1491C177.342 21.1343 177.371 21.1491 177.415 21.1639Z" fill="#E1B168"/>
<path d="M187.102 33.4974C187.043 33.5565 186.999 33.5565 186.94 33.5122C186.748 33.3349 186.452 33.0543 186.054 32.6702C185.655 32.2714 185.36 31.9908 185.168 31.8135C184.917 31.5919 184.621 31.3408 184.267 31.0454C183.913 30.7647 183.647 30.5284 183.455 30.3659C183.411 30.3364 183.425 30.2773 183.47 30.2182C183.529 30.1591 183.573 30.1444 183.617 30.1887C183.898 30.4546 184.149 30.6023 184.341 30.6614C184.533 30.7204 184.695 30.6761 184.828 30.5284C184.961 30.3807 185.109 30.0557 185.256 29.5387L186.585 24.8268L183.898 22.3895L180.428 23.9257C180.029 24.103 179.719 24.3098 179.512 24.5609C179.202 24.9006 179.084 25.2847 179.173 25.6835C179.261 26.0823 179.527 26.4811 179.97 26.8947C180.014 26.939 180.014 26.9981 179.97 27.0572C179.911 27.1163 179.867 27.1163 179.822 27.072C179.645 26.9095 179.394 26.6731 179.069 26.3482C178.715 25.9937 178.39 25.6835 178.124 25.4324C177.859 25.196 177.534 24.9154 177.165 24.62C176.825 24.3541 176.559 24.1325 176.353 23.9405C176.308 23.8962 176.308 23.8371 176.353 23.778C176.412 23.7189 176.456 23.7041 176.5 23.7485C176.781 23.9996 177.061 24.1621 177.342 24.2211C177.622 24.2802 177.992 24.2507 178.42 24.1325C178.848 24.0143 179.439 23.778 180.192 23.453L189.878 19.1546C189.922 19.1399 189.981 19.1694 190.055 19.2285C190.129 19.2876 190.144 19.3467 190.129 19.3762L187.131 30.0114C186.836 31.0454 186.689 31.784 186.674 32.2566C186.674 32.7293 186.792 33.0838 187.072 33.3349C187.146 33.3792 187.146 33.4383 187.102 33.4974ZM184.415 22.1827L186.762 24.3098L187.781 20.7056L184.415 22.1827Z" fill="#E1B168"/>
<path d="M195.946 27.0722C195.222 26.9541 194.381 27.0722 193.406 27.4563C193.391 27.4711 193.347 27.4563 193.303 27.3972C193.259 27.3381 193.259 27.2938 193.288 27.279C193.731 27.0131 194.307 26.6586 195.016 26.2155C195.71 25.7724 196.226 25.4326 196.551 25.1815C196.61 25.1372 196.655 25.152 196.699 25.2111C196.743 25.2702 196.743 25.3145 196.684 25.3588C196.448 25.536 196.551 25.9201 196.994 26.5257C197.644 27.4711 198.441 28.5641 199.357 29.7901C199.829 30.4253 200.331 31.09 200.892 31.7694L201.719 32.8477C202.029 33.2613 202.266 33.5272 202.458 33.6749C202.649 33.8226 202.841 33.8669 203.048 33.7931C203.092 33.7783 203.152 33.7931 203.181 33.8374C203.225 33.8965 203.211 33.926 203.181 33.9703C202.827 34.1919 202.295 34.5316 201.601 35.0043C200.907 35.477 200.346 35.861 199.933 36.1712C199.903 36.2008 199.859 36.1712 199.814 36.1122C199.77 36.0531 199.755 36.0088 199.785 35.9792C200.523 35.2554 200.951 34.5464 201.04 33.8669C201.129 33.1875 200.937 32.4932 200.42 31.8285C200.198 31.5331 200.006 31.3263 199.844 31.2229C199.682 31.1195 199.519 31.09 199.342 31.1491C199.165 31.2081 198.943 31.3263 198.648 31.5479L191.25 37.0723C190.926 37.3234 190.704 37.5302 190.601 37.7074C190.497 37.8847 190.497 38.0915 190.586 38.3278C190.675 38.5642 190.881 38.8891 191.191 39.3027C191.221 39.3323 191.191 39.3766 191.132 39.4209C191.073 39.4652 191.029 39.48 190.999 39.4504C190.719 39.0812 190.512 38.771 190.35 38.5494L189.39 37.22L188.445 35.9792C188.268 35.7577 188.031 35.4622 187.736 35.0634C187.721 35.0486 187.751 35.0043 187.81 34.96C187.869 34.9157 187.913 34.9009 187.928 34.9157C188.238 35.3293 188.489 35.6247 188.696 35.7724C188.903 35.9349 189.095 35.994 189.301 35.9349C189.508 35.8906 189.774 35.7429 190.099 35.5065L197.526 29.9674C197.806 29.7606 197.984 29.5833 198.072 29.4356C198.161 29.2879 198.175 29.1254 198.131 28.9482C198.087 28.7709 197.954 28.5346 197.733 28.2392C197.26 27.5744 196.669 27.1904 195.946 27.0722Z" fill="#E1B168"/>
</svg>
