<svg width="230" height="20" viewBox="0 0 230 20" fill="none" xmlns="http://www.w3.org/2000/svg">
<line x1="0.5" y1="19.125" x2="112.25" y2="19.125" stroke="#E1B168" stroke-width="0.75"/>
<path d="M4.12624 5.5825C4.55374 5.5825 4.94749 5.6425 5.30749 5.7625C5.67499 5.875 5.98624 6.04 6.24124 6.2575C6.50374 6.475 6.70624 6.745 6.84874 7.0675C6.99874 7.3825 7.07374 7.75 7.07374 8.17C7.07374 8.4925 7.02499 8.81125 6.92749 9.12625C6.82999 9.44125 6.67249 9.72625 6.45499 9.98125C6.23749 10.2362 5.95249 10.4425 5.59999 10.6C5.24749 10.75 4.80874 10.825 4.28374 10.825H3.09124V13.75H1.88749V5.5825H4.12624ZM4.26124 9.6775C4.56874 9.6775 4.82374 9.62875 5.02624 9.53125C5.23624 9.43375 5.39749 9.31375 5.50999 9.17125C5.62999 9.02125 5.71249 8.86375 5.75749 8.69875C5.80999 8.52625 5.83624 8.36125 5.83624 8.20375C5.83624 8.05375 5.80999 7.89625 5.75749 7.73125C5.71249 7.56625 5.62999 7.40875 5.50999 7.25875C5.39749 7.10875 5.24374 6.985 5.04874 6.8875C4.85374 6.79 4.61374 6.74125 4.32874 6.74125H3.09124V9.6775H4.26124ZM5.64499 10.375L7.75999 13.75H6.36499L4.21624 10.4087L5.64499 10.375ZM12.4067 5.5825H17.7729V6.74125H13.6104V9.07H17.3117V10.2287H13.6104V12.5912H17.9304V13.75H12.4067V5.5825ZM27.0685 7.14625C26.7835 6.99625 26.476 6.86875 26.146 6.76375C25.816 6.65875 25.4973 6.60625 25.1898 6.60625C24.7698 6.60625 24.436 6.70375 24.1885 6.89875C23.941 7.08625 23.8173 7.345 23.8173 7.675C23.8173 7.9075 23.8998 8.11 24.0648 8.2825C24.2298 8.455 24.4435 8.605 24.706 8.7325C24.9685 8.86 25.246 8.98 25.5385 9.0925C25.786 9.1825 26.0298 9.29125 26.2698 9.41875C26.5173 9.53875 26.7385 9.68875 26.9335 9.86875C27.136 10.0487 27.2935 10.2737 27.406 10.5437C27.526 10.8062 27.586 11.1287 27.586 11.5112C27.586 11.9462 27.4773 12.34 27.2598 12.6925C27.0498 13.045 26.7423 13.3262 26.3373 13.5362C25.9398 13.7387 25.456 13.84 24.886 13.84C24.541 13.84 24.2035 13.8025 23.8735 13.7275C23.551 13.645 23.2435 13.54 22.951 13.4125C22.666 13.2775 22.4073 13.1312 22.1748 12.9737L22.7148 12.04C22.8948 12.1675 23.101 12.2912 23.3335 12.4112C23.566 12.5237 23.806 12.6137 24.0535 12.6812C24.3085 12.7487 24.5485 12.7825 24.7735 12.7825C25.021 12.7825 25.2648 12.7412 25.5048 12.6587C25.7448 12.5687 25.9435 12.4337 26.101 12.2537C26.2585 12.0662 26.3373 11.8225 26.3373 11.5225C26.3373 11.2675 26.266 11.0537 26.1235 10.8812C25.9885 10.7012 25.8048 10.5475 25.5723 10.42C25.3473 10.2925 25.1035 10.18 24.841 10.0825C24.586 9.985 24.3273 9.87625 24.0648 9.75625C23.8023 9.63625 23.5585 9.49375 23.3335 9.32875C23.1085 9.15625 22.9248 8.94625 22.7823 8.69875C22.6473 8.44375 22.5798 8.1325 22.5798 7.765C22.5798 7.33 22.681 6.95125 22.8835 6.62875C23.0935 6.29875 23.3823 6.04 23.7498 5.8525C24.1173 5.665 24.541 5.56 25.021 5.5375C25.5685 5.5375 26.0448 5.605 26.4498 5.74C26.8548 5.875 27.2148 6.03625 27.5298 6.22375L27.0685 7.14625ZM31.7612 5.5825H37.2062V6.74125H35.0574V13.75H33.8537V6.74125H31.7612V5.5825ZM40.4731 13.75L44.0618 5.25625H44.1293L47.7181 13.75H46.3456L43.7356 7.135L44.6018 6.56125L41.6543 13.75H40.4731ZM42.6556 10.69H45.5581L45.9743 11.725H42.2956L42.6556 10.69ZM53.1025 10.8362C53.1025 11.1812 53.1888 11.4925 53.3613 11.77C53.5338 12.0475 53.7625 12.2687 54.0475 12.4337C54.3325 12.5987 54.6513 12.6812 55.0038 12.6812C55.3788 12.6812 55.7125 12.5987 56.005 12.4337C56.2975 12.2687 56.5263 12.0475 56.6913 11.77C56.8638 11.4925 56.95 11.1812 56.95 10.8362V5.5825H58.1313V10.87C58.1313 11.4625 57.9925 11.9837 57.715 12.4337C57.4375 12.8762 57.0625 13.2212 56.59 13.4687C56.1175 13.7163 55.5888 13.84 55.0038 13.84C54.4338 13.84 53.9125 13.7163 53.44 13.4687C52.9675 13.2212 52.5925 12.8762 52.315 12.4337C52.045 11.9837 51.91 11.4625 51.91 10.87V5.5825H53.1025V10.8362ZM65.5824 5.5825C66.0099 5.5825 66.4037 5.6425 66.7637 5.7625C67.1312 5.875 67.4424 6.04 67.6974 6.2575C67.9599 6.475 68.1624 6.745 68.3049 7.0675C68.4549 7.3825 68.5299 7.75 68.5299 8.17C68.5299 8.4925 68.4812 8.81125 68.3837 9.12625C68.2862 9.44125 68.1287 9.72625 67.9112 9.98125C67.6937 10.2362 67.4087 10.4425 67.0562 10.6C66.7037 10.75 66.2649 10.825 65.7399 10.825H64.5474V13.75H63.3437V5.5825H65.5824ZM65.7174 9.6775C66.0249 9.6775 66.2799 9.62875 66.4824 9.53125C66.6924 9.43375 66.8537 9.31375 66.9662 9.17125C67.0862 9.02125 67.1687 8.86375 67.2137 8.69875C67.2662 8.52625 67.2924 8.36125 67.2924 8.20375C67.2924 8.05375 67.2662 7.89625 67.2137 7.73125C67.1687 7.56625 67.0862 7.40875 66.9662 7.25875C66.8537 7.10875 66.6999 6.985 66.5049 6.8875C66.3099 6.79 66.0699 6.74125 65.7849 6.74125H64.5474V9.6775H65.7174ZM67.1012 10.375L69.2162 13.75H67.8212L65.6724 10.4087L67.1012 10.375ZM73.0304 13.75L76.6191 5.25625H76.6866L80.2754 13.75H78.9029L76.2929 7.135L77.1591 6.56125L74.2116 13.75H73.0304ZM75.2129 10.69H78.1154L78.5316 11.725H74.8529L75.2129 10.69ZM91.8988 14.0313L85.6101 7.7875L85.9588 7.9L85.9926 13.75H84.7776V5.32375H84.8338L91.0438 11.5787L90.7626 11.5L90.7401 5.5825H91.9326V14.0313H91.8988ZM96.6781 5.5825H102.123V6.74125H99.9743V13.75H98.7706V6.74125H96.6781V5.5825ZM111.112 7.14625C110.827 6.99625 110.52 6.86875 110.19 6.76375C109.86 6.65875 109.541 6.60625 109.233 6.60625C108.813 6.60625 108.48 6.70375 108.232 6.89875C107.985 7.08625 107.861 7.345 107.861 7.675C107.861 7.9075 107.943 8.11 108.108 8.2825C108.273 8.455 108.487 8.605 108.75 8.7325C109.012 8.86 109.29 8.98 109.582 9.0925C109.83 9.1825 110.073 9.29125 110.313 9.41875C110.561 9.53875 110.782 9.68875 110.977 9.86875C111.18 10.0487 111.337 10.2737 111.45 10.5437C111.57 10.8062 111.63 11.1287 111.63 11.5112C111.63 11.9462 111.521 12.34 111.303 12.6925C111.093 13.045 110.786 13.3262 110.381 13.5362C109.983 13.7387 109.5 13.84 108.93 13.84C108.585 13.84 108.247 13.8025 107.917 13.7275C107.595 13.645 107.287 13.54 106.995 13.4125C106.71 13.2775 106.451 13.1312 106.218 12.9737L106.758 12.04C106.938 12.1675 107.145 12.2912 107.377 12.4112C107.61 12.5237 107.85 12.6137 108.097 12.6812C108.352 12.7487 108.592 12.7825 108.817 12.7825C109.065 12.7825 109.308 12.7412 109.548 12.6587C109.788 12.5687 109.987 12.4337 110.145 12.2537C110.302 12.0662 110.381 11.8225 110.381 11.5225C110.381 11.2675 110.31 11.0537 110.167 10.8812C110.032 10.7012 109.848 10.5475 109.616 10.42C109.391 10.2925 109.147 10.18 108.885 10.0825C108.63 9.985 108.371 9.87625 108.108 9.75625C107.846 9.63625 107.602 9.49375 107.377 9.32875C107.152 9.15625 106.968 8.94625 106.826 8.69875C106.691 8.44375 106.623 8.1325 106.623 7.765C106.623 7.33 106.725 6.95125 106.927 6.62875C107.137 6.29875 107.426 6.04 107.793 5.8525C108.161 5.665 108.585 5.56 109.065 5.5375C109.612 5.5375 110.088 5.605 110.493 5.74C110.898 5.875 111.258 6.03625 111.573 6.22375L111.112 7.14625Z" fill="#292E36"/>
<line x1="0.5" y1="1.125" x2="112.25" y2="1.125" stroke="#E1B168" stroke-width="0.75"/>
<line y1="-0.375" x2="99.75" y2="-0.375" transform="matrix(-1 0 0 1 228 19.5)" stroke="#E1B168" stroke-width="0.75"/>
<path d="M128.392 5.5825H133.286V6.74125H129.596V9.19375H132.824V10.3412H129.596V13.75H128.392V5.5825ZM138.076 5.5825H143.442V6.74125H139.28V9.07H142.981V10.2287H139.28V12.5912H143.6V13.75H138.076V5.5825ZM150.657 5.5825C151.482 5.5825 152.13 5.75125 152.603 6.08875C153.083 6.42625 153.323 6.94375 153.323 7.64125C153.323 8.09125 153.218 8.4775 153.008 8.8C152.805 9.1225 152.52 9.37375 152.153 9.55375C151.793 9.72625 151.365 9.82375 150.87 9.84625L150.69 9.205C151.268 9.22 151.782 9.32125 152.232 9.50875C152.689 9.68875 153.049 9.94375 153.312 10.2737C153.582 10.5962 153.717 10.9825 153.717 11.4325C153.717 11.845 153.638 12.2012 153.48 12.5012C153.33 12.7937 153.124 13.0337 152.862 13.2212C152.607 13.4012 152.314 13.5362 151.984 13.6262C151.662 13.7087 151.324 13.75 150.972 13.75H148.485V5.5825H150.657ZM150.87 9.115C151.29 9.115 151.598 8.995 151.793 8.755C151.988 8.515 152.085 8.23 152.085 7.9C152.085 7.495 151.958 7.2025 151.703 7.0225C151.455 6.835 151.125 6.74125 150.713 6.74125H149.689V9.115H150.87ZM150.915 12.6362C151.208 12.6362 151.47 12.595 151.703 12.5125C151.943 12.4225 152.13 12.2912 152.265 12.1187C152.408 11.9387 152.479 11.7137 152.479 11.4437C152.479 11.1437 152.397 10.9112 152.232 10.7462C152.074 10.5737 151.868 10.4537 151.613 10.3862C151.365 10.3112 151.107 10.2737 150.837 10.2737H149.689V12.6362H150.915ZM164.622 13.75C165.087 13.2775 165.537 12.82 165.972 12.3775C166.407 11.935 166.797 11.5037 167.142 11.0837C167.495 10.6637 167.769 10.2587 167.964 9.86875C168.166 9.47875 168.267 9.1 168.267 8.7325C168.267 8.5075 168.23 8.3125 168.155 8.1475C168.087 7.975 167.99 7.83625 167.862 7.73125C167.735 7.61875 167.592 7.53625 167.435 7.48375C167.277 7.42375 167.109 7.39375 166.929 7.39375C166.696 7.39375 166.497 7.43125 166.332 7.50625C166.167 7.58125 166.032 7.67875 165.927 7.79875C165.83 7.91125 165.755 8.035 165.702 8.17C165.65 8.305 165.624 8.44 165.624 8.575C165.624 8.8225 165.661 9.04375 165.736 9.23875C165.819 9.43375 165.927 9.6025 166.062 9.745L165.331 10.42C165.144 10.3075 164.982 10.1462 164.847 9.93625C164.72 9.71875 164.622 9.49 164.555 9.25C164.487 9.01 164.454 8.79625 164.454 8.60875C164.454 8.19625 164.555 7.81375 164.757 7.46125C164.967 7.10125 165.271 6.80875 165.669 6.58375C166.074 6.35875 166.561 6.24625 167.131 6.24625C167.611 6.24625 168.027 6.355 168.38 6.5725C168.74 6.79 169.017 7.0825 169.212 7.45C169.415 7.81 169.516 8.20375 169.516 8.63125C169.516 8.99875 169.445 9.35875 169.302 9.71125C169.16 10.0637 168.969 10.4125 168.729 10.7575C168.496 11.095 168.234 11.4325 167.941 11.77C167.656 12.1 167.371 12.4337 167.086 12.7712L166.546 12.5912H169.73V13.75H164.622ZM173.878 13.75C174.343 13.2775 174.793 12.82 175.228 12.3775C175.663 11.935 176.053 11.5037 176.398 11.0837C176.751 10.6637 177.024 10.2587 177.219 9.86875C177.422 9.47875 177.523 9.1 177.523 8.7325C177.523 8.5075 177.486 8.3125 177.411 8.1475C177.343 7.975 177.246 7.83625 177.118 7.73125C176.991 7.61875 176.848 7.53625 176.691 7.48375C176.533 7.42375 176.364 7.39375 176.184 7.39375C175.952 7.39375 175.753 7.43125 175.588 7.50625C175.423 7.58125 175.288 7.67875 175.183 7.79875C175.086 7.91125 175.011 8.035 174.958 8.17C174.906 8.305 174.879 8.44 174.879 8.575C174.879 8.8225 174.917 9.04375 174.992 9.23875C175.074 9.43375 175.183 9.6025 175.318 9.745L174.587 10.42C174.399 10.3075 174.238 10.1462 174.103 9.93625C173.976 9.71875 173.878 9.49 173.811 9.25C173.743 9.01 173.709 8.79625 173.709 8.60875C173.709 8.19625 173.811 7.81375 174.013 7.46125C174.223 7.10125 174.527 6.80875 174.924 6.58375C175.329 6.35875 175.817 6.24625 176.387 6.24625C176.867 6.24625 177.283 6.355 177.636 6.5725C177.996 6.79 178.273 7.0825 178.468 7.45C178.671 7.81 178.772 8.20375 178.772 8.63125C178.772 8.99875 178.701 9.35875 178.558 9.71125C178.416 10.0637 178.224 10.4125 177.984 10.7575C177.752 11.095 177.489 11.4325 177.197 11.77C176.912 12.1 176.627 12.4337 176.342 12.7712L175.802 12.5912H178.986V13.75H173.878ZM184.439 12.76C184.274 13.1575 184.109 13.5513 183.944 13.9413C183.786 14.3313 183.625 14.725 183.46 15.1225H182.526C182.676 14.725 182.823 14.3313 182.965 13.9413C183.108 13.5513 183.254 13.1575 183.404 12.76H184.439ZM195.076 13.75C195.541 13.2775 195.991 12.82 196.426 12.3775C196.861 11.935 197.251 11.5037 197.596 11.0837C197.948 10.6637 198.222 10.2587 198.417 9.86875C198.619 9.47875 198.721 9.1 198.721 8.7325C198.721 8.5075 198.683 8.3125 198.608 8.1475C198.541 7.975 198.443 7.83625 198.316 7.73125C198.188 7.61875 198.046 7.53625 197.888 7.48375C197.731 7.42375 197.562 7.39375 197.382 7.39375C197.149 7.39375 196.951 7.43125 196.786 7.50625C196.621 7.58125 196.486 7.67875 196.381 7.79875C196.283 7.91125 196.208 8.035 196.156 8.17C196.103 8.305 196.077 8.44 196.077 8.575C196.077 8.8225 196.114 9.04375 196.189 9.23875C196.272 9.43375 196.381 9.6025 196.516 9.745L195.784 10.42C195.597 10.3075 195.436 10.1462 195.301 9.93625C195.173 9.71875 195.076 9.49 195.008 9.25C194.941 9.01 194.907 8.79625 194.907 8.60875C194.907 8.19625 195.008 7.81375 195.211 7.46125C195.421 7.10125 195.724 6.80875 196.122 6.58375C196.527 6.35875 197.014 6.24625 197.584 6.24625C198.064 6.24625 198.481 6.355 198.833 6.5725C199.193 6.79 199.471 7.0825 199.666 7.45C199.868 7.81 199.969 8.20375 199.969 8.63125C199.969 8.99875 199.898 9.35875 199.756 9.71125C199.613 10.0637 199.422 10.4125 199.182 10.7575C198.949 11.095 198.687 11.4325 198.394 11.77C198.109 12.1 197.824 12.4337 197.539 12.7712L196.999 12.5912H200.183V13.75H195.076ZM207.234 13.7838C206.784 13.7838 206.368 13.7012 205.985 13.5362C205.61 13.3637 205.284 13.1162 205.006 12.7937C204.729 12.4712 204.511 12.0775 204.354 11.6125C204.196 11.14 204.118 10.6075 204.118 10.015C204.118 9.37 204.193 8.81125 204.343 8.33875C204.493 7.86625 204.703 7.47625 204.973 7.16875C205.25 6.85375 205.58 6.625 205.963 6.4825C206.345 6.3325 206.769 6.2575 207.234 6.2575C207.691 6.2575 208.108 6.34 208.483 6.505C208.865 6.67 209.195 6.91375 209.473 7.23625C209.75 7.55875 209.964 7.95625 210.114 8.42875C210.271 8.89375 210.35 9.4225 210.35 10.015C210.35 10.6225 210.271 11.1625 210.114 11.635C209.964 12.1 209.746 12.4937 209.461 12.8162C209.184 13.1312 208.858 13.3712 208.483 13.5362C208.108 13.7012 207.691 13.7838 207.234 13.7838ZM207.223 12.625C207.65 12.625 208.003 12.5162 208.28 12.2987C208.558 12.0737 208.764 11.7625 208.899 11.365C209.034 10.96 209.101 10.4987 209.101 9.98125C209.101 9.47875 209.034 9.03625 208.899 8.65375C208.764 8.26375 208.558 7.96 208.28 7.7425C208.003 7.5175 207.65 7.40875 207.223 7.41625C206.81 7.40875 206.465 7.5175 206.188 7.7425C205.91 7.96 205.704 8.26375 205.569 8.65375C205.434 9.04375 205.366 9.4975 205.366 10.015C205.366 10.5175 205.434 10.9675 205.569 11.365C205.704 11.7625 205.91 12.0737 206.188 12.2987C206.465 12.5162 206.81 12.625 207.223 12.625ZM214.389 13.75C214.854 13.2775 215.304 12.82 215.739 12.3775C216.174 11.935 216.564 11.5037 216.909 11.0837C217.262 10.6637 217.535 10.2587 217.73 9.86875C217.933 9.47875 218.034 9.1 218.034 8.7325C218.034 8.5075 217.997 8.3125 217.922 8.1475C217.854 7.975 217.757 7.83625 217.629 7.73125C217.502 7.61875 217.359 7.53625 217.202 7.48375C217.044 7.42375 216.875 7.39375 216.695 7.39375C216.463 7.39375 216.264 7.43125 216.099 7.50625C215.934 7.58125 215.799 7.67875 215.694 7.79875C215.597 7.91125 215.522 8.035 215.469 8.17C215.417 8.305 215.39 8.44 215.39 8.575C215.39 8.8225 215.428 9.04375 215.503 9.23875C215.585 9.43375 215.694 9.6025 215.829 9.745L215.098 10.42C214.91 10.3075 214.749 10.1462 214.614 9.93625C214.487 9.71875 214.389 9.49 214.322 9.25C214.254 9.01 214.22 8.79625 214.22 8.60875C214.22 8.19625 214.322 7.81375 214.524 7.46125C214.734 7.10125 215.038 6.80875 215.435 6.58375C215.84 6.35875 216.328 6.24625 216.898 6.24625C217.378 6.24625 217.794 6.355 218.147 6.5725C218.507 6.79 218.784 7.0825 218.979 7.45C219.182 7.81 219.283 8.20375 219.283 8.63125C219.283 8.99875 219.212 9.35875 219.069 9.71125C218.927 10.0637 218.735 10.4125 218.495 10.7575C218.263 11.095 218 11.4325 217.708 11.77C217.423 12.1 217.138 12.4337 216.853 12.7712L216.313 12.5912H219.497V13.75H214.389ZM223.645 13.75C224.11 13.2775 224.56 12.82 224.995 12.3775C225.43 11.935 225.82 11.5037 226.165 11.0837C226.517 10.6637 226.791 10.2587 226.986 9.86875C227.189 9.47875 227.29 9.1 227.29 8.7325C227.29 8.5075 227.252 8.3125 227.177 8.1475C227.11 7.975 227.012 7.83625 226.885 7.73125C226.757 7.61875 226.615 7.53625 226.457 7.48375C226.3 7.42375 226.131 7.39375 225.951 7.39375C225.719 7.39375 225.52 7.43125 225.355 7.50625C225.19 7.58125 225.055 7.67875 224.95 7.79875C224.852 7.91125 224.777 8.035 224.725 8.17C224.672 8.305 224.646 8.44 224.646 8.575C224.646 8.8225 224.684 9.04375 224.759 9.23875C224.841 9.43375 224.95 9.6025 225.085 9.745L224.354 10.42C224.166 10.3075 224.005 10.1462 223.87 9.93625C223.742 9.71875 223.645 9.49 223.577 9.25C223.51 9.01 223.476 8.79625 223.476 8.60875C223.476 8.19625 223.577 7.81375 223.78 7.46125C223.99 7.10125 224.294 6.80875 224.691 6.58375C225.096 6.35875 225.584 6.24625 226.154 6.24625C226.634 6.24625 227.05 6.355 227.402 6.5725C227.762 6.79 228.04 7.0825 228.235 7.45C228.437 7.81 228.539 8.20375 228.539 8.63125C228.539 8.99875 228.467 9.35875 228.325 9.71125C228.182 10.0637 227.991 10.4125 227.751 10.7575C227.519 11.095 227.256 11.4325 226.964 11.77C226.679 12.1 226.394 12.4337 226.109 12.7712L225.569 12.5912H228.752V13.75H223.645Z" fill="#292E36"/>
<line y1="-0.375" x2="99.75" y2="-0.375" transform="matrix(-1 0 0 1 228 1.5)" stroke="#E1B168" stroke-width="0.75"/>
</svg>
