<svg width="74" height="20" viewBox="0 0 74 20" fill="none" xmlns="http://www.w3.org/2000/svg">
<line x1="0.25" y1="18.8877" x2="73.75" y2="18.8877" stroke="#E1B168" stroke-width="0.75"/>
<path d="M7.50273 12.1439C7.38273 12.2264 7.20273 12.3277 6.96273 12.4477C6.73023 12.5602 6.45273 12.6577 6.13023 12.7402C5.81523 12.8227 5.46648 12.8602 5.08398 12.8527C4.44648 12.8452 3.87273 12.7327 3.36273 12.5152C2.86023 12.2977 2.43273 12.0014 2.08023 11.6264C1.72773 11.2439 1.45398 10.8089 1.25898 10.3214C1.07148 9.82645 0.977725 9.30145 0.977725 8.74645C0.977725 8.13145 1.07523 7.56895 1.27023 7.05894C1.46523 6.54144 1.74273 6.09144 2.10273 5.70894C2.47023 5.32644 2.89773 5.03019 3.38523 4.82019C3.88023 4.61019 4.42023 4.5052 5.00523 4.5052C5.50773 4.5052 5.96148 4.5727 6.36648 4.7077C6.77148 4.8427 7.11273 5.0002 7.39023 5.1802L6.91773 6.3052C6.70023 6.15519 6.43023 6.01269 6.10773 5.87769C5.79273 5.73519 5.44023 5.66394 5.05023 5.66394C4.66773 5.66394 4.30398 5.74269 3.95898 5.9002C3.62148 6.0502 3.32148 6.26394 3.05898 6.54144C2.80398 6.81145 2.60148 7.1302 2.45148 7.4977C2.30148 7.8577 2.22648 8.25145 2.22648 8.67895C2.22648 9.11395 2.29398 9.5152 2.42898 9.8827C2.56398 10.2502 2.75523 10.5689 3.00273 10.8389C3.25773 11.1089 3.56148 11.3189 3.91398 11.4689C4.26648 11.6189 4.66398 11.6939 5.10648 11.6939C5.52648 11.6939 5.89398 11.6302 6.20898 11.5027C6.53148 11.3752 6.79398 11.2289 6.99648 11.0639L7.50273 12.1439ZM11.8375 8.6902C11.8375 8.1277 11.9425 7.5952 12.1525 7.0927C12.37 6.59019 12.67 6.14394 13.0525 5.75395C13.435 5.36395 13.8775 5.0602 14.38 4.84269C14.8825 4.61769 15.4225 4.5052 16 4.5052C16.57 4.5052 17.1062 4.61769 17.6087 4.84269C18.1112 5.0602 18.5575 5.36395 18.9475 5.75395C19.3375 6.14394 19.6412 6.59019 19.8587 7.0927C20.0762 7.5952 20.185 8.1277 20.185 8.6902C20.185 9.2677 20.0762 9.8077 19.8587 10.3102C19.6412 10.8127 19.3375 11.2552 18.9475 11.6377C18.565 12.0202 18.1187 12.3202 17.6087 12.5377C17.1062 12.7477 16.57 12.8527 16 12.8527C15.4225 12.8527 14.8825 12.7477 14.38 12.5377C13.8775 12.3277 13.435 12.0352 13.0525 11.6602C12.67 11.2777 12.37 10.8352 12.1525 10.3327C11.9425 9.8227 11.8375 9.2752 11.8375 8.6902ZM13.075 8.6902C13.075 9.1102 13.15 9.50395 13.3 9.87145C13.4575 10.2314 13.6712 10.5502 13.9412 10.8277C14.2112 11.0977 14.5225 11.3114 14.875 11.4689C15.235 11.6189 15.6212 11.6939 16.0337 11.6939C16.4387 11.6939 16.8175 11.6189 17.17 11.4689C17.5225 11.3114 17.83 11.0977 18.0925 10.8277C18.3625 10.5502 18.5725 10.2314 18.7225 9.87145C18.8725 9.50395 18.9475 9.1102 18.9475 8.6902C18.9475 8.2702 18.8687 7.8802 18.7112 7.5202C18.5612 7.15269 18.3512 6.83019 18.0812 6.55269C17.8187 6.27519 17.5075 6.05769 17.1475 5.9002C16.795 5.74269 16.4162 5.66394 16.0112 5.66394C15.5912 5.66394 15.205 5.74269 14.8525 5.9002C14.5 6.05769 14.1887 6.27519 13.9187 6.55269C13.6487 6.83019 13.4387 7.15269 13.2887 7.5202C13.1462 7.8877 13.075 8.2777 13.075 8.6902ZM32.1375 13.0439L25.8488 6.80019L26.1975 6.91269L26.2313 12.7627H25.0163V4.33645H25.0725L31.2825 10.5914L31.0013 10.5127L30.9788 4.5952H32.1713V13.0439H32.1375ZM36.9167 4.5952H42.3617V5.75395H40.213V12.7627H39.0092V5.75395H36.9167V4.5952ZM45.6286 12.7627L49.2174 4.26894H49.2849L52.8736 12.7627H51.5011L48.8911 6.1477L49.7574 5.57394L46.8099 12.7627H45.6286ZM47.8111 9.7027H50.7136L51.1299 10.7377H47.4511L47.8111 9.7027ZM62.9222 12.1439C62.8022 12.2264 62.6222 12.3277 62.3822 12.4477C62.1497 12.5602 61.8722 12.6577 61.5497 12.7402C61.2347 12.8227 60.8859 12.8602 60.5034 12.8527C59.8659 12.8452 59.2922 12.7327 58.7822 12.5152C58.2797 12.2977 57.8522 12.0014 57.4997 11.6264C57.1472 11.2439 56.8734 10.8089 56.6784 10.3214C56.4909 9.82645 56.3972 9.30145 56.3972 8.74645C56.3972 8.13145 56.4947 7.56895 56.6897 7.05894C56.8847 6.54144 57.1622 6.09144 57.5222 5.70894C57.8897 5.32644 58.3172 5.03019 58.8047 4.82019C59.2997 4.61019 59.8397 4.5052 60.4247 4.5052C60.9272 4.5052 61.3809 4.5727 61.7859 4.7077C62.1909 4.8427 62.5322 5.0002 62.8097 5.1802L62.3372 6.3052C62.1197 6.15519 61.8497 6.01269 61.5272 5.87769C61.2122 5.73519 60.8597 5.66394 60.4697 5.66394C60.0872 5.66394 59.7234 5.74269 59.3784 5.9002C59.0409 6.0502 58.7409 6.26394 58.4784 6.54144C58.2234 6.81145 58.0209 7.1302 57.8709 7.4977C57.7209 7.8577 57.6459 8.25145 57.6459 8.67895C57.6459 9.11395 57.7134 9.5152 57.8484 9.8827C57.9834 10.2502 58.1747 10.5689 58.4222 10.8389C58.6772 11.1089 58.9809 11.3189 59.3334 11.4689C59.6859 11.6189 60.0834 11.6939 60.5259 11.6939C60.9459 11.6939 61.3134 11.6302 61.6284 11.5027C61.9509 11.3752 62.2134 11.2289 62.4159 11.0639L62.9222 12.1439ZM67.1669 4.5952H72.6119V5.75395H70.4632V12.7627H69.2594V5.75395H67.1669V4.5952Z" fill="white"/>
<line x1="0.25" y1="0.887695" x2="73.75" y2="0.887695" stroke="#E1B168" stroke-width="0.75"/>
</svg>
