<svg width="18" height="18" viewBox="0 0 18 18" fill="none" xmlns="http://www.w3.org/2000/svg">
<path d="M12.754 1.95153C13.7383 1.95435 14.6814 2.32979 15.3774 2.99586C16.0734 3.66193 16.4657 4.56451 16.4687 5.50647V12.6156C16.4657 13.5576 16.0734 14.4601 15.3774 15.1262C14.6814 15.7923 13.7383 16.1677 12.754 16.1705H5.32535C4.34105 16.1677 3.39791 15.7923 2.7019 15.1262C2.0059 14.4601 1.61358 13.5576 1.61064 12.6156V5.50647C1.61358 4.56451 2.0059 3.66193 2.7019 2.99586C3.39791 2.32979 4.34105 1.95435 5.32535 1.95153H12.754ZM12.754 0.529785H5.32535C2.4651 0.529785 0.125 2.76924 0.125 5.50647V12.6156C0.125 15.3528 2.4651 17.5923 5.32535 17.5923H12.754C15.6142 17.5923 17.9543 15.3528 17.9543 12.6156V5.50647C17.9543 2.76924 15.6142 0.529785 12.754 0.529785Z" fill="white"/>
<path d="M13.868 5.50684C13.6476 5.50684 13.4322 5.44429 13.2489 5.32711C13.0657 5.20994 12.9228 5.04339 12.8385 4.84853C12.7542 4.65367 12.7321 4.43925 12.7751 4.23238C12.8181 4.02552 12.9242 3.83551 13.08 3.68637C13.2359 3.53723 13.4344 3.43566 13.6506 3.39451C13.8668 3.35337 14.0908 3.37449 14.2944 3.4552C14.4981 3.53591 14.6721 3.6726 14.7945 3.84797C14.917 4.02334 14.9823 4.22951 14.9823 4.44043C14.9826 4.58056 14.954 4.71936 14.8982 4.84888C14.8423 4.9784 14.7602 5.09608 14.6567 5.19517C14.5531 5.29425 14.4301 5.37279 14.2948 5.42627C14.1595 5.47976 14.0144 5.50714 13.868 5.50684ZM9.03936 6.21752C9.62711 6.21752 10.2017 6.38431 10.6903 6.6968C11.179 7.00929 11.5599 7.45344 11.7848 7.97309C12.0098 8.49274 12.0686 9.06455 11.9539 9.61621C11.8393 10.1679 11.5563 10.6746 11.1407 11.0723C10.7251 11.47 10.1956 11.7409 9.61911 11.8506C9.04266 11.9604 8.44515 11.904 7.90215 11.6888C7.35914 11.4736 6.89503 11.109 6.5685 10.6414C6.24196 10.1737 6.06768 9.62386 6.06768 9.0614C6.06852 8.3074 6.38188 7.58452 6.93899 7.05136C7.49611 6.51821 8.25148 6.21833 9.03936 6.21752ZM9.03936 4.79577C8.15779 4.79577 7.29601 5.04595 6.563 5.51466C5.83 5.98337 5.25869 6.64957 4.92133 7.42901C4.58396 8.20845 4.49569 9.06613 4.66768 9.89358C4.83967 10.721 5.26419 11.4811 5.88755 12.0776C6.51092 12.6742 7.30514 13.0805 8.16978 13.2451C9.03442 13.4097 9.93064 13.3252 10.7451 13.0023C11.5596 12.6795 12.2557 12.1327 12.7455 11.4313C13.2353 10.7298 13.4967 9.90506 13.4967 9.0614C13.4967 7.93008 13.0271 6.8451 12.1912 6.04515C11.3553 5.24519 10.2215 4.79577 9.03936 4.79577Z" fill="white"/>
</svg>
