<svg width="120" height="22" viewBox="0 0 120 22" fill="none" xmlns="http://www.w3.org/2000/svg">
<path d="M2.44936 3.27735H4.21486V15.2563H2.44936V3.27735ZM8.71188 8.34285L8.86038 9.92685L8.79438 9.71235C9.02538 9.21735 9.38288 8.82135 9.86688 8.52435C10.3509 8.21635 10.9229 8.06235 11.5829 8.06235C12.2319 8.06235 12.7654 8.25485 13.1834 8.63985C13.6124 9.02485 13.8324 9.52535 13.8434 10.1413V15.2563H12.1439V10.7353C12.1329 10.3833 12.0284 10.0973 11.8304 9.87735C11.6324 9.64635 11.3244 9.52535 10.9064 9.51435C10.5324 9.51435 10.1914 9.62985 9.88338 9.86085C9.57538 10.0808 9.33338 10.3833 9.15738 10.7683C8.98138 11.1533 8.89338 11.5988 8.89338 12.1048V15.2563H7.19388V8.34285H8.71188ZM18.4559 15.4048C17.9499 15.4048 17.4604 15.3168 16.9874 15.1408C16.5144 14.9538 16.1239 14.6843 15.8159 14.3323L16.5419 13.3753C16.8389 13.6503 17.1359 13.8593 17.4329 14.0023C17.7409 14.1343 18.0324 14.2003 18.3074 14.2003C18.5274 14.2003 18.7254 14.1783 18.9014 14.1343C19.0774 14.0793 19.2204 13.9913 19.3304 13.8703C19.4404 13.7493 19.4954 13.5898 19.4954 13.3918C19.4954 13.1608 19.4184 12.9793 19.2644 12.8473C19.1104 12.7153 18.9124 12.6053 18.6704 12.5173C18.4284 12.4293 18.1699 12.3468 17.8949 12.2698C17.3119 12.0828 16.8719 11.8188 16.5749 11.4778C16.2779 11.1258 16.1294 10.7133 16.1294 10.2403C16.1294 9.87735 16.2174 9.53635 16.3934 9.21735C16.5804 8.88735 16.8609 8.61785 17.2349 8.40885C17.6089 8.19985 18.0709 8.09535 18.6209 8.09535C19.1269 8.09535 19.5724 8.15585 19.9574 8.27685C20.3424 8.38685 20.6999 8.57935 21.0299 8.85435L20.3699 9.87735C20.1719 9.67935 19.9354 9.53085 19.6604 9.43185C19.3964 9.32185 19.1544 9.26135 18.9344 9.25035C18.7364 9.25035 18.5549 9.28335 18.3899 9.34935C18.2249 9.40435 18.0929 9.49235 17.9939 9.61335C17.8949 9.72335 17.8454 9.85535 17.8454 10.0093C17.8344 10.2293 17.9059 10.4108 18.0599 10.5538C18.2249 10.6858 18.4339 10.7958 18.6869 10.8838C18.9399 10.9608 19.1874 11.0433 19.4294 11.1313C19.7704 11.2303 20.0729 11.3678 20.3369 11.5438C20.6009 11.7088 20.8099 11.9123 20.9639 12.1543C21.1179 12.3963 21.1949 12.7043 21.1949 13.0783C21.1949 13.4853 21.0959 13.8703 20.8979 14.2333C20.6999 14.5853 20.3974 14.8713 19.9904 15.0913C19.5834 15.3003 19.0719 15.4048 18.4559 15.4048ZM23.951 5.30685H25.6505V8.35935H27.4985V9.69585H25.6505V15.2563H23.951V9.69585H22.73V8.35935H23.951V5.30685ZM32.221 15.4213C31.572 15.4213 30.9835 15.2893 30.4555 15.0253C29.9275 14.7503 29.5095 14.3433 29.2015 13.8043C28.8935 13.2653 28.7395 12.5998 28.7395 11.8078C28.7395 11.0268 28.899 10.3558 29.218 9.79485C29.548 9.23385 29.977 8.80485 30.505 8.50785C31.044 8.19985 31.627 8.04585 32.254 8.04585C32.914 8.04585 33.453 8.18885 33.871 8.47485C34.3 8.74985 34.6355 9.07435 34.8775 9.44835L34.762 9.71235L34.927 8.34285H36.4945V15.2563H34.795V13.5238L34.9765 13.9363C34.9325 14.0243 34.839 14.1508 34.696 14.3158C34.553 14.4698 34.3605 14.6348 34.1185 14.8108C33.8875 14.9868 33.6125 15.1353 33.2935 15.2563C32.9855 15.3663 32.628 15.4213 32.221 15.4213ZM32.683 14.0353C33.046 14.0353 33.3705 13.9693 33.6565 13.8373C33.9425 13.7053 34.1845 13.5183 34.3825 13.2763C34.5805 13.0343 34.718 12.7483 34.795 12.4183V10.9828C34.707 10.6748 34.5585 10.4108 34.3495 10.1908C34.1405 9.95985 33.8875 9.77835 33.5905 9.64635C33.3045 9.51435 32.9855 9.44835 32.6335 9.44835C32.2375 9.44835 31.8745 9.54735 31.5445 9.74535C31.2145 9.93235 30.9505 10.1963 30.7525 10.5373C30.5545 10.8783 30.4555 11.2743 30.4555 11.7253C30.4555 12.1543 30.5545 12.5448 30.7525 12.8968C30.9615 13.2488 31.2365 13.5293 31.5775 13.7383C31.9185 13.9363 32.287 14.0353 32.683 14.0353ZM42.4807 18.6883C41.9417 18.6883 41.4742 18.6278 41.0782 18.5068C40.6822 18.3858 40.3247 18.2153 40.0057 17.9953C39.6977 17.7863 39.4007 17.5608 39.1147 17.3188L40.1212 16.1473C40.4622 16.4663 40.8142 16.7193 41.1772 16.9063C41.5402 17.1043 41.9637 17.2033 42.4477 17.2033C42.9317 17.2033 43.3442 17.1208 43.6852 16.9558C44.0372 16.8018 44.3067 16.5818 44.4937 16.2958C44.6807 16.0098 44.7742 15.6688 44.7742 15.2728L44.7907 13.4743L44.9062 13.8043C44.7192 14.2553 44.3727 14.6403 43.8667 14.9593C43.3607 15.2673 42.7392 15.4213 42.0022 15.4213C41.3752 15.4213 40.7922 15.2618 40.2532 14.9428C39.7252 14.6238 39.3017 14.1893 38.9827 13.6393C38.6637 13.0893 38.5042 12.4678 38.5042 11.7748C38.5042 11.0488 38.6692 10.4108 38.9992 9.86085C39.3402 9.29985 39.7857 8.85985 40.3357 8.54085C40.8857 8.21085 41.4742 8.04585 42.1012 8.04585C42.7172 8.04585 43.2672 8.16685 43.7512 8.40885C44.2352 8.63985 44.5982 8.93135 44.8402 9.28335L44.7412 9.56385L44.9227 8.34285H46.4902V15.2893C46.4902 15.9273 46.3197 16.4993 45.9787 17.0053C45.6487 17.5223 45.1867 17.9293 44.5927 18.2263C43.9987 18.5343 43.2947 18.6883 42.4807 18.6883ZM40.2202 11.7253C40.2202 12.1543 40.3192 12.5448 40.5172 12.8968C40.7152 13.2488 40.9847 13.5293 41.3257 13.7383C41.6777 13.9363 42.0682 14.0353 42.4972 14.0353C42.8822 14.0353 43.2287 13.9693 43.5367 13.8373C43.8447 13.6943 44.1032 13.5073 44.3122 13.2763C44.5322 13.0343 44.6917 12.7538 44.7907 12.4348V10.9993C44.6917 10.6803 44.5322 10.4108 44.3122 10.1908C44.0922 9.95985 43.8282 9.77835 43.5202 9.64635C43.2122 9.51435 42.8712 9.44835 42.4972 9.44835C42.0682 9.44835 41.6777 9.54735 41.3257 9.74535C40.9847 9.93235 40.7152 10.1963 40.5172 10.5373C40.3192 10.8783 40.2202 11.2743 40.2202 11.7253ZM50.6064 8.34285L50.7714 10.3228L50.6889 10.0588C50.8759 9.64085 51.1399 9.28335 51.4809 8.98635C51.8219 8.68935 52.1739 8.46385 52.5369 8.30985C52.9109 8.14485 53.2244 8.06235 53.4774 8.06235L53.3949 9.74535C52.8669 9.71235 52.4049 9.81135 52.0089 10.0423C51.6239 10.2733 51.3214 10.5813 51.1014 10.9663C50.8814 11.3513 50.7714 11.7638 50.7714 12.2038V15.2563H49.0884V8.34285H50.6064ZM58.1151 15.4213C57.4661 15.4213 56.8776 15.2893 56.3496 15.0253C55.8216 14.7503 55.4036 14.3433 55.0956 13.8043C54.7876 13.2653 54.6336 12.5998 54.6336 11.8078C54.6336 11.0268 54.7931 10.3558 55.1121 9.79485C55.4421 9.23385 55.8711 8.80485 56.3991 8.50785C56.9381 8.19985 57.5211 8.04585 58.1481 8.04585C58.8081 8.04585 59.3471 8.18885 59.7651 8.47485C60.1941 8.74985 60.5296 9.07435 60.7716 9.44835L60.6561 9.71235L60.8211 8.34285H62.3886V15.2563H60.6891V13.5238L60.8706 13.9363C60.8266 14.0243 60.7331 14.1508 60.5901 14.3158C60.4471 14.4698 60.2546 14.6348 60.0126 14.8108C59.7816 14.9868 59.5066 15.1353 59.1876 15.2563C58.8796 15.3663 58.5221 15.4213 58.1151 15.4213ZM58.5771 14.0353C58.9401 14.0353 59.2646 13.9693 59.5506 13.8373C59.8366 13.7053 60.0786 13.5183 60.2766 13.2763C60.4746 13.0343 60.6121 12.7483 60.6891 12.4183V10.9828C60.6011 10.6748 60.4526 10.4108 60.2436 10.1908C60.0346 9.95985 59.7816 9.77835 59.4846 9.64635C59.1986 9.51435 58.8796 9.44835 58.5276 9.44835C58.1316 9.44835 57.7686 9.54735 57.4386 9.74535C57.1086 9.93235 56.8446 10.1963 56.6466 10.5373C56.4486 10.8783 56.3496 11.2743 56.3496 11.7253C56.3496 12.1543 56.4486 12.5448 56.6466 12.8968C56.8556 13.2488 57.1306 13.5293 57.4716 13.7383C57.8126 13.9363 58.1811 14.0353 58.5771 14.0353ZM66.5102 8.34285L66.6587 9.82785L66.5927 9.71235C66.8567 9.19535 67.2197 8.79385 67.6817 8.50785C68.1437 8.21085 68.6772 8.06235 69.2822 8.06235C69.6562 8.06235 69.9917 8.12285 70.2887 8.24385C70.5967 8.36485 70.8497 8.53535 71.0477 8.75535C71.2457 8.97535 71.3722 9.25035 71.4272 9.58035L71.3447 9.62985C71.6197 9.14585 71.9827 8.76635 72.4337 8.49135C72.8957 8.20535 73.3852 8.06235 73.9022 8.06235C74.5732 8.06235 75.1067 8.25485 75.5027 8.63985C75.9097 9.02485 76.1187 9.51985 76.1297 10.1248V15.2563H74.4467V10.7683C74.4357 10.4273 74.3532 10.1413 74.1992 9.91035C74.0562 9.67935 73.7977 9.55285 73.4237 9.53085C73.0277 9.53085 72.6757 9.65185 72.3677 9.89385C72.0707 10.1358 71.8397 10.4493 71.6747 10.8343C71.5097 11.2193 71.4217 11.6318 71.4107 12.0718V15.2563H69.7112V10.7683C69.7002 10.4273 69.6177 10.1413 69.4637 9.91035C69.3097 9.67935 69.0402 9.55285 68.6552 9.53085C68.2592 9.53085 67.9127 9.65185 67.6157 9.89385C67.3187 10.1358 67.0877 10.4548 66.9227 10.8508C66.7687 11.2358 66.6917 11.6428 66.6917 12.0718V15.2563H64.9922V8.34285H66.5102ZM84.3693 3.27735H91.5468V4.97685H86.1348V8.57385H90.8703V10.2568H86.1348V15.2563H84.3693V3.27735ZM96.1348 15.4213C95.3318 15.4213 94.6443 15.2673 94.0723 14.9593C93.5003 14.6403 93.0603 14.2058 92.7523 13.6558C92.4443 13.0948 92.2903 12.4568 92.2903 11.7418C92.2903 11.0598 92.4608 10.4438 92.8018 9.89385C93.1538 9.33285 93.6213 8.88735 94.2043 8.55735C94.7983 8.22735 95.4528 8.06235 96.1678 8.06235C97.0918 8.06235 97.8563 8.33185 98.4613 8.87085C99.0773 9.40985 99.4898 10.1633 99.6988 11.1313L94.0723 13.0783L93.6763 12.0883L98.1808 10.4713L97.8343 10.6858C97.7023 10.3448 97.4933 10.0478 97.2073 9.79485C96.9213 9.53085 96.5308 9.39885 96.0358 9.39885C95.6398 9.39885 95.2823 9.49785 94.9633 9.69585C94.6553 9.88285 94.4078 10.1468 94.2208 10.4878C94.0448 10.8178 93.9568 11.2083 93.9568 11.6593C93.9568 12.1213 94.0503 12.5283 94.2373 12.8803C94.4353 13.2213 94.6993 13.4908 95.0293 13.6888C95.3703 13.8868 95.7498 13.9858 96.1678 13.9858C96.4648 13.9858 96.7453 13.9308 97.0093 13.8208C97.2843 13.7108 97.5428 13.5733 97.7848 13.4083L98.5603 14.6623C98.1973 14.8933 97.8013 15.0803 97.3723 15.2233C96.9543 15.3553 96.5418 15.4213 96.1348 15.4213ZM104.836 15.4213C104.033 15.4213 103.345 15.2673 102.773 14.9593C102.201 14.6403 101.761 14.2058 101.453 13.6558C101.145 13.0948 100.991 12.4568 100.991 11.7418C100.991 11.0598 101.162 10.4438 101.503 9.89385C101.855 9.33285 102.322 8.88735 102.905 8.55735C103.499 8.22735 104.154 8.06235 104.869 8.06235C105.793 8.06235 106.557 8.33185 107.162 8.87085C107.778 9.40985 108.191 10.1633 108.4 11.1313L102.773 13.0783L102.377 12.0883L106.882 10.4713L106.535 10.6858C106.403 10.3448 106.194 10.0478 105.908 9.79485C105.622 9.53085 105.232 9.39885 104.737 9.39885C104.341 9.39885 103.983 9.49785 103.664 9.69585C103.356 9.88285 103.109 10.1468 102.922 10.4878C102.746 10.8178 102.658 11.2083 102.658 11.6593C102.658 12.1213 102.751 12.5283 102.938 12.8803C103.136 13.2213 103.4 13.4908 103.73 13.6888C104.071 13.8868 104.451 13.9858 104.869 13.9858C105.166 13.9858 105.446 13.9308 105.71 13.8208C105.985 13.7108 106.244 13.5733 106.486 13.4083L107.261 14.6623C106.898 14.8933 106.502 15.0803 106.073 15.2233C105.655 15.3553 105.243 15.4213 104.836 15.4213ZM113.108 15.4213C112.459 15.4213 111.876 15.2728 111.359 14.9758C110.842 14.6678 110.435 14.2333 110.138 13.6723C109.841 13.1113 109.693 12.4568 109.693 11.7088C109.693 10.9388 109.852 10.2843 110.171 9.74535C110.49 9.19535 110.919 8.77735 111.458 8.49135C112.008 8.19435 112.624 8.04585 113.306 8.04585C113.834 8.04585 114.335 8.15585 114.808 8.37585C115.292 8.58485 115.666 8.88185 115.93 9.26685L115.88 9.84435V2.43585H117.563V15.2563H115.864V13.6228L116.045 14.0683C115.704 14.4533 115.286 14.7778 114.791 15.0418C114.296 15.2948 113.735 15.4213 113.108 15.4213ZM113.636 13.9858C114.021 13.9858 114.362 13.9198 114.659 13.7878C114.956 13.6558 115.209 13.4688 115.418 13.2268C115.627 12.9738 115.776 12.6823 115.864 12.3523V10.9663C115.787 10.6583 115.638 10.3888 115.418 10.1578C115.209 9.91585 114.951 9.72885 114.643 9.59685C114.335 9.46485 113.999 9.39885 113.636 9.39885C113.229 9.39885 112.855 9.49785 112.514 9.69585C112.184 9.88285 111.915 10.1468 111.706 10.4878C111.508 10.8288 111.409 11.2248 111.409 11.6758C111.409 12.1048 111.508 12.4953 111.706 12.8473C111.915 13.1993 112.19 13.4798 112.531 13.6888C112.872 13.8868 113.24 13.9858 113.636 13.9858Z" fill="white"/>
<path d="M0.766357 17.3188H118.867V18.1438H0.766357V17.3188Z" fill="white"/>
</svg>
