<svg width="167" height="92" viewBox="0 0 167 92" fill="none" xmlns="http://www.w3.org/2000/svg">
<path d="M47.625 44.05C48.025 43.9833 48.325 44.1167 48.525 44.45C48.7583 44.75 48.8083 45.0833 48.675 45.45C48.575 45.7833 48.325 45.9833 47.925 46.05C46.8917 46.1833 45.7417 46.3667 44.475 46.6C42.7417 52.5333 40.025 58 36.325 63C32.625 68 28.1583 72.1667 22.925 75.5C21.8583 76.2 21.0083 76.7333 20.375 77.1C19.7417 77.5 18.775 78.05 17.475 78.75C16.2083 79.4833 15.075 80.0333 14.075 80.4C13.075 80.7667 11.975 81.1167 10.775 81.45C9.60833 81.8167 8.49167 81.9667 7.425 81.9C6.35833 81.8667 5.39167 81.6333 4.525 81.2C3.225 80.5667 2.34167 79.6833 1.875 78.55C1.40833 77.45 1.34167 76.2667 1.675 75C1.975 73.7333 2.40833 72.5333 2.975 71.4C3.50833 70.2667 4.15833 69.2167 4.925 68.25C9.49167 62.2833 15.075 57.3 21.675 53.3C28.275 49.2667 35.3417 46.4667 42.875 44.9C43.6417 42.0333 44.175 39.1667 44.475 36.3C44.775 33.4 44.7917 30.45 44.525 27.45C44.2917 24.45 43.7583 21.6333 42.925 19C42.0917 16.3667 40.825 13.9 39.125 11.6C37.4583 9.3 35.4417 7.4 33.075 5.9C31.275 4.76666 29.325 3.91666 27.225 3.35C25.1583 2.75 23.075 2.45 20.975 2.45C18.9083 2.45 16.8417 2.81666 14.775 3.55C12.7417 4.25 10.9083 5.28333 9.275 6.65C6.075 9.35 3.975 12.7667 2.975 16.9C1.975 21.0333 2.29167 25 3.925 28.8C4.09167 29.2 4.05833 29.55 3.825 29.85C3.59167 30.1167 3.29167 30.25 2.925 30.25C2.55833 30.2167 2.29167 30.0167 2.125 29.65C1.09167 27.2833 0.525 24.85 0.425 22.35C0.325 19.85 0.625 17.5167 1.325 15.35C2.025 13.15 3.09167 11.0833 4.525 9.15C5.95833 7.18333 7.60833 5.53333 9.475 4.2C11.375 2.86666 13.525 1.86667 15.925 1.2C18.325 0.499999 20.7917 0.266665 23.325 0.499997C26.5583 0.799999 29.4917 1.65 32.125 3.05C34.7917 4.45 37.0083 6.21667 38.775 8.35C40.5417 10.45 42.025 12.8667 43.225 15.6C44.4583 18.3333 45.325 21.1667 45.825 24.1C46.3583 27 46.6083 29.9667 46.575 33C46.5083 36.8 46.0083 40.6167 45.075 44.45C46.075 44.2833 46.925 44.15 47.625 44.05ZM39.725 53.65C40.6917 51.65 41.5417 49.4667 42.275 47.1C34.9417 48.7333 28.0583 51.5333 21.625 55.5C15.225 59.4333 10.0417 64.2833 6.075 70.05C4.375 72.45 3.525 74.2667 3.525 75.5C3.525 76.4 3.675 77.15 3.975 77.75C4.275 78.3833 4.625 78.8333 5.025 79.1C5.425 79.4 5.94167 79.5833 6.575 79.65C7.24167 79.7167 7.84167 79.7167 8.375 79.65C8.90833 79.5833 9.55833 79.4333 10.325 79.2C11.0917 79 11.6583 78.8167 12.025 78.65C12.3917 78.5167 12.875 78.3333 13.475 78.1C13.575 78.0667 13.6583 78.0333 13.725 78C17.425 76.5 20.9083 74.5833 24.175 72.25C31.0083 67.2833 36.1917 61.0833 39.725 53.65ZM54.609 45.75C56.1757 46.15 57.2757 47.1167 57.909 48.65C58.5423 50.15 58.5757 51.6667 58.009 53.2C57.509 54.6667 56.759 56.0167 55.759 57.25C54.759 58.4833 53.6257 59.1333 52.359 59.2C51.059 59.2667 50.109 58.8167 49.509 57.85C48.9423 56.8833 48.7757 55.7667 49.009 54.5C49.4757 51.9 50.8257 49.3 53.059 46.7C53.1257 46.6333 53.209 46.5667 53.309 46.5C53.5423 45.8667 53.9757 45.6167 54.609 45.75ZM51.309 56.9C51.9423 57.4667 52.8923 57.0833 54.159 55.75C55.6257 54.2167 56.409 52.6167 56.509 50.95C56.609 49.5167 55.9923 48.5 54.659 47.9C54.3923 48.2 54.109 48.5667 53.809 49C53.509 49.4 53.159 49.9 52.759 50.5C52.359 51.1 52.009 51.7 51.709 52.3C51.409 52.9 51.159 53.5 50.959 54.1C50.759 54.6667 50.6757 55.2 50.709 55.7C50.7757 56.2 50.9757 56.6 51.309 56.9ZM74.9953 46.3C75.3286 46.0667 75.6786 46.0333 76.0453 46.2C76.412 46.3667 76.612 46.6167 76.6453 46.95C76.712 47.2833 76.5953 47.5833 76.2953 47.85C73.862 49.55 71.6453 51.2 69.6453 52.8C70.5453 53.3667 71.2786 53.9333 71.8453 54.5C72.4453 55.0333 72.962 55.65 73.3953 56.35C73.862 57.05 74.0286 57.8167 73.8953 58.65C73.762 59.4833 73.3453 60.3167 72.6453 61.15C71.9453 61.9833 71.0286 62.75 69.8953 63.45C68.762 64.1833 67.562 64.7333 66.2953 65.1C65.062 65.5 63.8786 65.4833 62.7453 65.05C61.612 64.6167 60.7953 63.7333 60.2953 62.4C59.5286 60.3 60.6453 57.8833 63.6453 55.15C64.3786 54.5167 65.212 53.8 66.1453 53C66.0786 52.9667 65.6453 52.7333 64.8453 52.3C64.0453 51.8667 63.512 51.5667 63.2453 51.4C62.9786 51.2333 62.5453 50.95 61.9453 50.55C61.3786 50.15 60.9286 49.7667 60.5953 49.4C60.262 49.0333 59.962 48.6333 59.6953 48.2C58.662 46.4 59.2286 44.3833 61.3953 42.15C63.262 40.2167 65.412 38.9667 67.8453 38.4C70.512 37.7667 72.1953 38.35 72.8953 40.15C72.9953 40.45 73.0786 40.7833 73.1453 41.15C73.1786 41.55 73.0453 41.8667 72.7453 42.1C72.4453 42.3 72.112 42.35 71.7453 42.25C71.3786 42.1167 71.1786 41.85 71.1453 41.45C70.8786 39.6167 69.1953 39.6333 66.0953 41.5C64.7286 42.3 63.6953 43.05 62.9953 43.75C62.3953 44.35 61.962 44.8667 61.6953 45.3C61.462 45.7333 61.3953 46.2167 61.4953 46.75C61.6286 47.25 61.9953 47.7833 62.5953 48.35C62.8953 48.6167 63.2453 48.9 63.6453 49.2C64.0453 49.4667 64.3786 49.6833 64.6453 49.85C64.9453 50.0167 65.362 50.2667 65.8953 50.6C66.462 50.9 66.8286 51.1 66.9953 51.2C67.0953 51.2333 67.2286 51.3167 67.3953 51.45C67.5953 51.55 67.7453 51.6167 67.8453 51.65C70.0453 49.8833 72.4286 48.1 74.9953 46.3ZM70.4953 60.45C70.9286 59.9833 71.2453 59.5333 71.4453 59.1C71.6453 58.6667 71.712 58.2667 71.6453 57.9C71.5786 57.5 71.4453 57.1333 71.2453 56.8C71.0786 56.4667 70.7953 56.1333 70.3953 55.8C70.0286 55.4667 69.662 55.1833 69.2953 54.95C68.9286 54.6833 68.4953 54.4 67.9953 54.1C67.0953 54.8667 66.2453 55.5833 65.4453 56.25C65.312 56.3833 65.0786 56.5833 64.7453 56.85C64.4453 57.1167 64.1953 57.3333 63.9953 57.5C63.7953 57.6667 63.5786 57.9 63.3453 58.2C63.1453 58.4667 62.9786 58.7333 62.8453 59C62.112 60.6333 62.1786 61.8 63.0453 62.5C63.9453 63.2 65.1453 63.35 66.6453 62.95C67.8786 62.65 69.162 61.8167 70.4953 60.45ZM94.9355 46.05C95.2355 45.75 95.5522 45.6833 95.8855 45.85C96.2189 45.9833 96.4189 46.2333 96.4855 46.6C96.5855 46.9333 96.5022 47.2667 96.2355 47.6C89.3689 54.6333 83.4355 57.55 78.4355 56.35C76.6689 55.95 75.3355 55.1833 74.4355 54.05C73.5355 52.8833 73.1855 51.6 73.3855 50.2C73.5522 48.7667 74.2022 47.4 75.3355 46.1C76.2355 45.1333 77.4022 44.35 78.8355 43.75C80.9689 42.8833 82.0189 43.4167 81.9855 45.35C81.9855 45.3833 81.9855 45.4167 81.9855 45.45C81.9522 46.75 81.1689 47.9833 79.6355 49.15C78.1022 50.3167 76.7189 50.7 75.4855 50.3C75.3522 51.8 75.9855 52.9167 77.3855 53.65C78.7855 54.3833 80.3189 54.6 81.9855 54.3C84.3522 53.8667 86.5522 52.95 88.5855 51.55C90.6522 50.1167 92.7689 48.2833 94.9355 46.05ZM79.0855 45.75C78.6189 45.7833 78.1022 46.0667 77.5355 46.6C77.0022 47.1333 76.5355 47.7167 76.1355 48.35C76.8355 48.6833 77.6855 48.2833 78.6855 47.15C79.3522 46.3833 79.5355 45.9167 79.2355 45.75C79.2022 45.75 79.1522 45.75 79.0855 45.75ZM106.096 48.45C106.496 48.3833 106.796 48.5 106.996 48.8C107.229 49.1 107.279 49.4333 107.146 49.8C107.046 50.1667 106.796 50.3833 106.396 50.45C102.963 50.9833 99.6294 52.05 96.3961 53.65C96.2961 57.65 96.2628 61.7167 96.2961 65.85C96.8628 66.3167 97.2628 66.6667 97.4961 66.9C100.296 69.5 102.096 73.75 102.896 79.65C103.196 81.8833 103.113 84.1 102.646 86.3C101.946 89.7333 100.446 90.5 98.1461 88.6C97.4794 88.0333 96.8961 87.25 96.3961 86.25C95.9294 85.2833 95.5628 84.3167 95.2961 83.35C95.0628 82.3833 94.8628 81.2 94.6961 79.8C94.5628 78.4 94.4794 77.2333 94.4461 76.3C94.4128 75.4 94.3794 74.25 94.3461 72.85C94.3128 71.4833 94.2961 70.5833 94.2961 70.15C94.2628 69.4167 94.2294 68.4333 94.1961 67.2C90.7961 64.6333 86.7961 63.5667 82.1961 64C81.6961 64.0333 81.3628 63.8167 81.1961 63.35C80.9961 62.9167 81.0794 62.5333 81.4461 62.2C86.0128 57.8667 90.3294 54.6 94.3961 52.4C94.5961 48.1667 94.8961 43.9167 95.2961 39.65C95.3294 39.2167 95.3794 38.4333 95.4461 37.3C95.5461 36.1667 95.6294 35.1333 95.6961 34.2C95.7628 33.2333 95.8794 32.1 96.0461 30.8C96.2128 29.4667 96.4128 28.2833 96.6461 27.25C96.8794 26.2167 97.2128 25.1833 97.6461 24.15C98.0794 23.0833 98.5628 22.2333 99.0961 21.6C99.6628 20.9667 100.363 20.5 101.196 20.2C102.029 19.8667 102.946 19.8 103.946 20C104.346 20.1 104.613 20.3333 104.746 20.7C104.879 21.0667 104.846 21.4 104.646 21.7C104.446 22 104.146 22.1 103.746 22C102.946 21.8333 102.196 22.1 101.496 22.8C100.829 23.5 100.246 24.55 99.7461 25.95C99.2794 27.35 98.8461 28.9667 98.4461 30.8C98.0794 32.6333 97.7628 34.7333 97.4961 37.1C97.2294 39.4333 97.0128 41.75 96.8461 44.05C96.7128 46.35 96.5961 48.8 96.4961 51.4C99.5961 49.9333 102.796 48.95 106.096 48.45ZM101.146 84.55C101.413 81.5833 101.129 78.75 100.296 76.05C99.4628 73.3833 98.1461 71.0833 96.3461 69.15C96.4128 71.6167 96.4794 73.3333 96.5461 74.3C96.8461 78.2 97.2628 81.1833 97.7961 83.25C98.2294 84.8833 98.8128 86.0333 99.5461 86.7C100.313 87.4 100.813 86.95 101.046 85.35L101.146 84.55ZM94.1461 64.45C94.1128 61.15 94.1628 57.9333 94.2961 54.8C91.2294 56.5333 88.0294 58.9167 84.6961 61.95C88.2294 62.05 91.3794 62.8833 94.1461 64.45ZM106.751 45.05C106.917 44.6833 107.184 44.4833 107.551 44.45C107.917 44.4167 108.217 44.5333 108.451 44.8C108.717 45.0667 108.784 45.4 108.651 45.8C106.951 50.0667 106.134 54.4 106.201 58.8C106.201 59.3667 105.917 59.65 105.351 59.65C104.751 59.65 104.384 59.3833 104.251 58.85C104.217 58.75 104.201 58.65 104.201 58.55C104.134 54.05 104.984 49.55 106.751 45.05ZM110.101 39.3C110.334 39.8667 110.167 40.3167 109.601 40.65L106.051 42.75C105.817 42.8833 105.567 42.9 105.301 42.8C105.034 42.6667 104.851 42.4833 104.751 42.25C104.517 41.7167 104.684 41.2667 105.251 40.9L108.801 38.8C109.034 38.6667 109.284 38.6667 109.551 38.8C109.817 38.9 110.001 39.0667 110.101 39.3ZM144.709 46.2C144.976 45.9 145.292 45.7833 145.659 45.85C146.059 45.9167 146.326 46.1167 146.459 46.45C146.626 46.75 146.592 47.0667 146.359 47.4C145.526 48.4333 144.542 49.5 143.409 50.6C142.276 51.7 140.942 52.8 139.409 53.9C137.876 54.9667 136.376 55.8167 134.909 56.45C133.442 57.05 131.942 57.2833 130.409 57.15C128.876 56.9833 127.559 56.3167 126.459 55.15C125.859 54.4833 125.042 53.5 124.009 52.2C123.009 50.9 122.276 49.9833 121.809 49.45C121.509 49.15 121.226 48.9167 120.959 48.75C120.692 48.55 120.459 48.4167 120.259 48.35C120.059 48.2833 119.842 48.3 119.609 48.4C119.376 48.5 119.176 48.6 119.009 48.7C118.876 48.7667 118.692 48.9333 118.459 49.2C118.226 49.4667 118.059 49.6833 117.959 49.85C117.859 50.0167 117.676 50.3 117.409 50.7C117.142 51.0667 116.959 51.3167 116.859 51.45C116.692 51.7167 116.242 52.5667 115.509 54C114.809 55.4 114.076 56.6 113.309 57.6C112.576 58.5667 111.876 59.1 111.209 59.2C110.809 59.2667 110.492 59.15 110.259 58.85C110.026 58.5167 109.859 58.1667 109.759 57.8C109.626 57.4 109.576 56.9333 109.609 56.4C109.642 55.8333 109.676 55.4 109.709 55.1C109.742 54.8 109.826 54.3167 109.959 53.65C110.092 52.9833 110.176 52.6 110.209 52.5C110.409 51.2333 110.792 49.4333 111.359 47.1C111.926 44.7333 112.259 43.3167 112.359 42.85C112.459 42.4833 112.692 42.2333 113.059 42.1C113.426 41.9667 113.759 42 114.059 42.2C114.359 42.4 114.459 42.7 114.359 43.1C114.192 43.8333 113.909 45.05 113.509 46.75C113.109 48.4167 112.809 49.7 112.609 50.6C112.209 52.5667 111.959 53.9333 111.859 54.7C111.859 54.8 111.859 54.95 111.859 55.15C112.126 54.65 112.459 54.1167 112.859 53.55C113.292 52.9833 113.742 52.3833 114.209 51.75C114.676 51.1167 115.009 50.6333 115.209 50.3C115.309 50.1667 115.442 49.9667 115.609 49.7C115.809 49.4333 115.976 49.2 116.109 49C116.242 48.8 116.392 48.5833 116.559 48.35C116.759 48.0833 116.942 47.85 117.109 47.65C117.276 47.45 117.459 47.25 117.659 47.05C117.859 46.85 118.059 46.6667 118.259 46.5C118.492 46.3333 118.709 46.2 118.909 46.1C119.442 45.9667 119.909 45.9 120.309 45.9C120.709 45.9 121.142 46.05 121.609 46.35C122.076 46.65 122.476 46.9667 122.809 47.3C123.176 47.6333 123.559 48.05 123.959 48.55C124.392 49.05 124.742 49.5167 125.009 49.95C125.309 50.35 125.609 50.7833 125.909 51.25C126.242 51.7167 126.526 52.0833 126.759 52.35C127.926 53.7833 128.976 54.6333 129.909 54.9C130.842 55.1333 132.176 54.9333 133.909 54.3C137.976 52.8 141.576 50.1 144.709 46.2ZM164.467 46.05C164.767 45.75 165.083 45.6833 165.417 45.85C165.75 45.9833 165.95 46.2333 166.017 46.6C166.117 46.9333 166.033 47.2667 165.767 47.6C158.9 54.6333 152.967 57.55 147.967 56.35C146.2 55.95 144.867 55.1833 143.967 54.05C143.067 52.8833 142.717 51.6 142.917 50.2C143.083 48.7667 143.733 47.4 144.867 46.1C145.767 45.1333 146.933 44.35 148.367 43.75C150.5 42.8833 151.55 43.4167 151.517 45.35C151.517 45.3833 151.517 45.4167 151.517 45.45C151.483 46.75 150.7 47.9833 149.167 49.15C147.633 50.3167 146.25 50.7 145.017 50.3C144.883 51.8 145.517 52.9167 146.917 53.65C148.317 54.3833 149.85 54.6 151.517 54.3C153.883 53.8667 156.083 52.95 158.117 51.55C160.183 50.1167 162.3 48.2833 164.467 46.05ZM148.617 45.75C148.15 45.7833 147.633 46.0667 147.067 46.6C146.533 47.1333 146.067 47.7167 145.667 48.35C146.367 48.6833 147.217 48.2833 148.217 47.15C148.883 46.3833 149.067 45.9167 148.767 45.75C148.733 45.75 148.683 45.75 148.617 45.75Z" fill="#292E36"/>
</svg>
