<svg width="226" height="148" viewBox="0 0 226 148" fill="none" xmlns="http://www.w3.org/2000/svg">
<path d="M112.564 112.263C92.3262 112.263 75.8496 95.6724 75.8496 75.2679C75.8496 54.8633 92.3262 38.2847 112.564 38.2847C132.803 38.2847 149.279 54.8752 149.279 75.2797C149.279 95.6842 132.803 112.263 112.564 112.263ZM112.564 39.4655C92.9707 39.4655 77.0215 55.5246 77.0215 75.2797C77.0215 95.0348 92.9707 111.082 112.564 111.082C132.158 111.082 148.107 95.023 148.107 75.2679C148.107 55.5128 132.158 39.4655 112.564 39.4655Z" fill="#E1B168"/>
<path d="M112.564 126.303C109.131 126.303 105.697 125.948 102.357 125.264C99.0993 124.59 95.9118 123.587 92.8532 122.288C89.8532 121.013 86.9586 119.418 84.2516 117.588C81.568 115.77 79.0485 113.668 76.7633 111.353C74.4664 109.051 72.3922 106.5 70.5758 103.808C70.3883 103.536 70.4703 103.17 70.7282 102.993C70.9977 102.816 71.361 102.875 71.5368 103.147C73.3063 105.792 75.3453 108.272 77.5836 110.527C79.8219 112.782 82.2828 114.837 84.9078 116.608C87.5446 118.403 90.3805 119.95 93.3102 121.201C96.2985 122.477 99.4157 123.445 102.591 124.106C109.107 125.452 116.009 125.452 122.525 124.106C125.701 123.457 128.83 122.477 131.806 121.201C134.736 119.95 137.56 118.403 140.209 116.608C142.834 114.825 145.295 112.77 147.533 110.527C149.771 108.272 151.798 105.792 153.58 103.147C153.767 102.875 154.131 102.804 154.388 102.993C154.658 103.17 154.728 103.548 154.541 103.808C152.724 106.512 150.65 109.051 148.353 111.353C146.068 113.656 143.548 115.758 140.865 117.588C138.158 119.43 135.263 121.013 132.263 122.288C129.205 123.587 126.005 124.59 122.759 125.264C119.431 125.948 115.998 126.303 112.564 126.303Z" fill="#E1B168"/>
<path d="M154.072 47.6598C153.884 47.6598 153.697 47.5654 153.591 47.4C151.822 44.755 149.783 42.2753 147.545 40.0199C145.306 37.7646 142.845 35.7218 140.22 33.9387C137.572 32.1439 134.748 30.597 131.818 29.3453C128.83 28.0701 125.713 27.1018 122.537 26.4405C116.021 25.0944 109.119 25.0944 102.603 26.4405C99.4274 27.1018 96.2985 28.0701 93.3219 29.3453C90.3922 30.597 87.5563 32.1439 84.9196 33.9387C82.3063 35.7218 79.8336 37.7646 77.5953 40.0199C75.3571 42.2753 73.3297 44.755 71.5485 47.4C71.3727 47.6716 70.9977 47.7425 70.7399 47.5536C70.4821 47.3646 70.4 46.9986 70.5875 46.7388C72.4039 44.0347 74.4782 41.496 76.775 39.1816C79.0719 36.8671 81.5914 34.7771 84.2633 32.9468C86.9703 31.1048 89.8649 29.5225 92.8649 28.2472C95.9235 26.9483 99.1227 25.9446 102.369 25.2715C109.048 23.89 116.103 23.89 122.783 25.2715C126.041 25.9446 129.228 26.9483 132.287 28.2472C135.287 29.5225 138.181 31.1048 140.888 32.9468C143.572 34.7771 146.091 36.8671 148.377 39.1816C150.673 41.496 152.748 44.0347 154.564 46.7388C154.752 47.0104 154.67 47.3764 154.412 47.5536C154.295 47.6362 154.177 47.6598 154.072 47.6598Z" fill="#E1B168"/>
<path d="M57.334 44.0586C57.3809 44.342 57.3223 44.649 57.1582 45.0032C56.9824 45.3811 56.7363 45.6527 56.3965 45.7944C56.0566 45.9361 55.5879 45.9479 54.9785 45.818L53.4551 45.4874C52.9277 45.3693 52.5059 45.3102 52.2012 45.2866C51.8965 45.263 51.627 45.3221 51.3809 45.4401C51.1348 45.57 50.9356 45.8062 50.7715 46.1604L50.1738 47.4948L53.3613 48.959C53.7129 49.1243 53.9707 49.2069 54.1582 49.2188C54.3457 49.2306 54.4981 49.1833 54.627 49.0534C54.7559 48.9235 54.8965 48.6992 55.0723 48.3686L55.3535 48.4985C55.1309 48.9117 54.8496 49.5021 54.5098 50.2579C54.1465 51.0608 53.8887 51.663 53.7481 52.0645L53.4668 51.9346C53.6074 51.5922 53.6777 51.3324 53.6895 51.1553C53.7012 50.9782 53.6426 50.8247 53.502 50.6948C53.373 50.5649 53.127 50.4232 52.7871 50.2579L45.9082 47.1051C45.5566 46.9398 45.2988 46.8571 45.1113 46.8453C44.9238 46.8335 44.7715 46.8807 44.6426 47.0106C44.5137 47.1405 44.373 47.3649 44.1973 47.6955L43.916 47.5656C44.1152 47.1877 44.3848 46.621 44.7246 45.877C44.8887 45.511 45.0645 45.1095 45.252 44.6726C45.4395 44.2239 45.5684 43.9287 45.6504 43.7634C45.9785 43.0313 46.3652 42.4645 46.7988 42.063C47.2324 41.6497 47.6895 41.4017 48.1699 41.3191C48.6504 41.2364 49.1191 41.2955 49.5762 41.508C49.9395 41.6733 50.2676 41.9213 50.5488 42.2637C50.8418 42.6062 51.041 43.0431 51.1465 43.5863C51.252 44.1294 51.2051 44.7435 51.0176 45.4519L51.1231 45.2984C51.3809 44.9088 51.6387 44.6254 51.8848 44.4364C52.1309 44.2475 52.4121 44.1412 52.7168 44.094C53.0215 44.0586 53.3965 44.0822 53.8301 44.1767L55.4004 44.4719C55.7051 44.5427 55.9629 44.5899 56.1504 44.6018C56.3379 44.6136 56.4902 44.5899 56.6074 44.5427C56.7246 44.4955 56.8066 44.401 56.8652 44.2829C56.9356 44.1294 56.959 43.9877 56.9238 43.846C56.8887 43.7043 56.8066 43.5154 56.6895 43.2792L56.9356 43.1375C57.1582 43.4682 57.2871 43.787 57.334 44.0586ZM50.6895 44.8143C50.6543 44.3656 50.4902 43.9995 50.2207 43.7161C49.9512 43.4209 49.5762 43.173 49.1074 42.9604C48.3457 42.618 47.6895 42.5353 47.1387 42.7124C46.5879 42.9014 46.1309 43.3973 45.7559 44.2239C45.627 44.5191 45.5566 44.7435 45.5566 44.9206C45.5566 45.0977 45.627 45.2512 45.7676 45.3811C45.9082 45.511 46.1426 45.6527 46.4707 45.8062L49.8809 47.3649L50.3027 46.4202C50.6074 45.7944 50.7363 45.263 50.6895 44.8143Z" fill="#E1B168"/>
<path d="M62.1855 33.3143C62.6543 33.6567 63.2051 33.9992 63.8262 34.3652C63.4043 34.9084 62.7129 35.853 61.7637 37.1992C60.627 38.7933 59.7832 40.0095 59.2324 40.8479L58.9863 40.6708C59.1855 40.3638 59.3145 40.1158 59.3496 39.9505C59.3848 39.7852 59.3613 39.608 59.2559 39.4663C59.1504 39.3128 58.9395 39.1239 58.6348 38.8996L52.4824 34.4715C52.166 34.2471 51.9316 34.1054 51.7559 34.0582C51.5801 34.011 51.416 34.0346 51.2637 34.129C51.1113 34.2235 50.9238 34.4243 50.7012 34.7195L50.4551 34.5423C51.0527 33.7394 51.9316 32.5468 53.0566 30.9408C53.9238 29.7128 54.5332 28.839 54.873 28.3076C55.377 28.7563 55.8457 29.1342 56.2793 29.453C56.6074 29.6892 56.8652 29.8545 57.0762 29.9726L56.877 30.256C56.291 29.9253 55.8457 29.7246 55.5176 29.6183C55.1895 29.5121 54.8848 29.5357 54.6152 29.6656C54.3457 29.7954 54.0527 30.0788 53.7363 30.5276L52.998 31.5667C52.7871 31.8619 52.6582 32.098 52.6113 32.2752C52.5645 32.4405 52.5879 32.6058 52.6934 32.7593C52.7988 32.9128 52.998 33.1017 53.3145 33.3261L56.2324 35.4279L56.8184 34.6014C57.1113 34.1881 57.1934 33.8102 57.041 33.5032C56.8887 33.1844 56.7012 32.9128 56.4668 32.7003C56.2324 32.4759 56.0801 32.3342 56.0098 32.2752L56.209 31.9918C56.5957 32.3106 56.9707 32.6058 57.3457 32.8774L57.9434 33.3025C58.3652 33.6095 58.9629 33.9992 59.7598 34.4951L59.5606 34.7785C59.502 34.7431 59.2793 34.625 58.916 34.4124C58.541 34.1999 58.2012 34.129 57.8965 34.1881C57.5918 34.2471 57.3106 34.4479 57.0762 34.7903L56.4902 35.6169L59.4668 37.766C59.7715 37.9903 60.0176 38.132 60.1934 38.1793C60.3691 38.2265 60.5332 38.2029 60.6738 38.0966C60.8145 37.9903 61.002 37.7896 61.2129 37.4944L61.8574 36.5851C62.2324 36.0656 62.4434 35.6169 62.4902 35.2508C62.5488 34.8848 62.4668 34.5305 62.2441 34.1881C62.0215 33.8457 61.6465 33.4442 61.1074 32.9482L61.3066 32.6648C61.5293 32.8065 61.8105 33.0427 62.1855 33.3143Z" fill="#E1B168"/>
<path d="M66.8022 29.547C67.5639 29.7005 68.267 29.4644 68.9116 28.8267C69.1577 28.5787 69.3452 28.3071 69.4624 27.9883C69.5795 27.6695 69.5913 27.3389 69.5209 26.9846C69.4506 26.6304 69.2397 26.288 68.9233 25.9691C68.6538 25.6857 68.3374 25.4968 67.9858 25.4141C67.6342 25.3197 67.2475 25.2961 66.8374 25.3433C66.4272 25.3905 65.9116 25.485 65.2905 25.6267C64.5991 25.792 64.0249 25.8983 63.5678 25.9455C63.0991 25.9927 62.6538 25.9573 62.1967 25.8392C61.7514 25.7212 61.3413 25.4614 60.9663 25.0717C60.5678 24.6584 60.3217 24.2097 60.228 23.7492C60.1342 23.2769 60.1811 22.8163 60.3569 22.3794C60.5327 21.9425 60.8022 21.5293 61.1772 21.1632C61.3999 20.9388 61.6108 20.7735 61.81 20.6554C62.0092 20.5374 62.185 20.4547 62.3491 20.3957C62.5131 20.3484 62.6889 20.3012 62.8999 20.2658C63.1694 20.2067 63.3452 20.1359 63.4272 20.0532C63.4975 19.9824 63.5092 19.8997 63.4741 19.7816C63.4389 19.6754 63.3452 19.5219 63.2045 19.3329L63.4506 19.085C63.8256 19.5455 64.5288 20.313 65.56 21.3876L65.3139 21.6355C64.9272 21.2813 64.5053 21.0215 64.0717 20.8326C63.6264 20.6436 63.1811 20.5728 62.7358 20.6318C62.2905 20.6909 61.8686 20.9034 61.4819 21.2695C61.2241 21.5174 61.0483 21.8008 60.9428 22.1079C60.8491 22.4149 60.8256 22.7219 60.9077 23.0289C60.9897 23.3359 61.142 23.6075 61.3764 23.8673C61.7631 24.2688 62.185 24.4695 62.6655 24.4813C63.1342 24.4931 63.6264 24.4341 64.1303 24.3278C64.6342 24.2215 64.9741 24.1389 65.1499 24.0916C65.8881 23.9381 66.4975 23.8318 66.9663 23.7846C67.435 23.7374 67.892 23.7728 68.3256 23.9027C68.7592 24.0326 69.1577 24.2806 69.5092 24.6466C69.9428 25.0953 70.2124 25.5795 70.3061 26.099C70.3999 26.6186 70.353 27.1263 70.1538 27.6223C69.9545 28.1182 69.6381 28.5905 69.2045 29.0156C68.853 29.3581 68.5366 29.5942 68.2436 29.7477C67.9506 29.8894 67.6459 29.9957 67.3178 30.0666C67.06 30.1256 66.8842 30.1965 66.7905 30.2791C66.7202 30.35 66.7084 30.4326 66.7436 30.5507C66.7788 30.657 66.8725 30.8105 67.0131 30.9994L66.767 31.2474C66.4038 30.8223 65.5717 29.9249 64.2709 28.5669L64.517 28.2717C65.2788 28.9684 66.0405 29.3935 66.8022 29.547Z" fill="#E1B168"/>
<path d="M69.4277 16.6284C69.0996 16.1324 68.7012 15.6011 68.2559 15.0579C68.9707 14.6092 70.1777 13.818 71.8535 12.6844C73.5293 11.5627 74.7012 10.7479 75.3809 10.252C75.7207 10.9014 76.0606 11.4564 76.377 11.9405C76.6582 12.3656 76.9043 12.7081 77.1035 12.9678L76.8105 13.1686C76.3066 12.5545 75.8965 12.1176 75.5918 11.8697C75.2754 11.6217 74.9473 11.5036 74.5957 11.5272C74.2441 11.5509 73.8105 11.7398 73.2832 12.094L72.5918 12.5545L77.4082 19.8166C77.6426 20.1708 77.8535 20.407 78.0176 20.5251C78.1934 20.6432 78.3926 20.6786 78.6035 20.6195C78.8144 20.5605 79.1191 20.4188 79.5059 20.1826L79.6699 20.4424C79.2129 20.714 78.5801 21.1273 77.7832 21.6587C76.9395 22.2254 76.3184 22.6623 75.9316 22.9576L75.7676 22.6978C76.1309 22.438 76.3887 22.2136 76.5176 22.0365C76.6465 21.8594 76.6934 21.6587 76.6465 21.4579C76.5996 21.2454 76.4707 20.9738 76.2363 20.6195L71.4199 13.3575L70.7285 13.818C70.2012 14.1723 69.8613 14.5029 69.709 14.8217C69.5566 15.1405 69.5332 15.4948 69.6387 15.8726C69.7441 16.2623 69.9902 16.8055 70.3652 17.514L70.0723 17.7147C69.9316 17.4195 69.709 17.0653 69.4277 16.6284Z" fill="#E1B168"/>
<path d="M92.209 13.9839L92.3262 14.2673C91.9277 14.409 91.4238 14.6097 90.8027 14.8813C90.0059 15.2237 89.4199 15.4953 89.0332 15.6961L88.916 15.4127C89.2676 15.2474 89.5019 15.0938 89.6191 14.9521C89.7363 14.8104 89.7598 14.6451 89.6777 14.4562C89.6074 14.2909 89.4551 14.102 89.2324 13.8658L87.3809 11.9293L84.0059 13.3935L84.0645 15.1411C84.0762 15.6961 84.1582 16.1212 84.2754 16.4164C84.4043 16.7116 84.5918 16.8887 84.8496 16.9241C85.1074 16.9713 85.4355 16.9005 85.8574 16.7352L85.9746 17.0186C85.4355 17.2193 84.8848 17.4437 84.3457 17.6798C83.9238 17.857 83.584 18.0223 83.3145 18.1758L83.1973 17.8924C83.6191 17.5854 83.8066 17.0186 83.7715 16.192L83.4199 6.21409L83.6426 6.11963L90.8379 13.5115C91.3301 13.9839 91.7871 14.1492 92.209 13.9839ZM83.8066 8.16244L83.9941 13.0628L87.1699 11.6931L83.8066 8.16244Z" fill="#E1B168"/>
<path d="M101.549 1.4192C101.396 1.53728 101.314 1.7026 101.291 1.91514C101.268 2.12769 101.303 2.4229 101.385 2.81257L102.322 7.3351C102.475 8.0554 102.557 8.68123 102.568 9.2126C102.58 9.74397 102.521 10.2281 102.369 10.6414C102.205 11.1255 101.912 11.5388 101.479 11.8931C101.045 12.2473 100.529 12.4835 99.9316 12.6134C98.8418 12.8377 97.9512 12.7432 97.2598 12.3181C96.9082 12.1056 96.6152 11.8576 96.3926 11.5742C96.1699 11.2908 95.9824 10.9484 95.8301 10.5115C95.6777 10.0864 95.5254 9.51961 95.3848 8.81112L94.4121 4.08785C94.3301 3.70999 94.2481 3.4384 94.1543 3.28489C94.0606 3.13139 93.9199 3.03692 93.7441 3.0015C93.5684 2.97788 93.2988 2.98969 92.9356 3.04873L92.877 2.75353C93.3105 2.69448 93.9434 2.5764 94.7988 2.39928C95.5957 2.23397 96.2285 2.08046 96.6973 1.96238L96.7559 2.25758C96.4043 2.35205 96.1465 2.44651 95.9941 2.54098C95.8418 2.63544 95.7598 2.77714 95.7363 2.96607C95.7129 3.155 95.7363 3.42659 95.8184 3.80445L96.8496 8.7757C97.0137 9.57865 97.2012 10.2281 97.4238 10.7359C97.6348 11.2436 97.9512 11.6215 98.3613 11.8694C98.7715 12.1174 99.3106 12.1765 99.9785 12.0348C101.033 11.8104 101.701 11.3145 101.994 10.5469C102.287 9.77939 102.299 8.7757 102.041 7.54765L101.068 2.8598C100.986 2.49375 100.893 2.21035 100.764 2.03323C100.635 1.8561 100.471 1.73802 100.26 1.69079C100.049 1.64356 99.7676 1.64356 99.416 1.7026L99.3223 1.40739C99.6855 1.36016 100.201 1.26569 100.857 1.1358C101.455 1.00591 101.912 0.899641 102.229 0.805176L102.287 1.10038C101.947 1.19485 101.701 1.28931 101.549 1.4192Z" fill="#E1B168"/>
<path d="M116.713 11.0199C116.478 11.1734 116.174 11.2561 115.799 11.2679C115.377 11.2797 115.037 11.1616 114.768 10.9137C114.498 10.6657 114.287 10.2406 114.135 9.62658L113.771 8.10332C113.643 7.57196 113.525 7.15867 113.408 6.87527C113.303 6.59188 113.127 6.36752 112.916 6.1904C112.705 6.01328 112.4 5.94243 112.014 5.94243L110.572 5.97785L110.631 9.5085C110.643 9.89817 110.678 10.1698 110.736 10.3469C110.807 10.524 110.912 10.6421 111.088 10.7011C111.264 10.7602 111.521 10.7956 111.885 10.8074V11.1144C111.416 11.0908 110.771 11.0908 109.951 11.1026C109.072 11.1144 108.428 11.138 108.006 11.1734V10.8664C108.369 10.8428 108.639 10.7956 108.803 10.7365C108.967 10.6657 109.084 10.5476 109.143 10.3705C109.201 10.1934 109.225 9.90998 109.225 9.53211L109.107 1.91584C109.107 1.52617 109.061 1.25458 109.002 1.07746C108.943 0.900335 108.826 0.782254 108.65 0.723213C108.475 0.664172 108.217 0.628747 107.854 0.616939V0.309927C108.275 0.333543 108.896 0.333543 109.717 0.321735C110.115 0.309926 110.549 0.298118 111.029 0.28631C111.51 0.274502 111.814 0.250886 111.99 0.250886C112.787 0.239077 113.455 0.345351 114.006 0.569706C114.557 0.794062 114.978 1.10107 115.26 1.50255C115.541 1.90403 115.693 2.35274 115.693 2.86049C115.705 3.26197 115.611 3.66345 115.436 4.07674C115.26 4.49002 114.943 4.85607 114.51 5.1867C114.088 5.51733 113.502 5.74169 112.799 5.85977L112.986 5.88339C113.443 5.95424 113.807 6.06051 114.088 6.20221C114.357 6.35571 114.58 6.55645 114.744 6.81623C114.908 7.07601 115.049 7.43026 115.154 7.86716L115.564 9.42584C115.635 9.74466 115.705 9.98082 115.775 10.1579C115.846 10.3351 115.928 10.465 116.021 10.5476C116.115 10.6303 116.232 10.6775 116.373 10.6657C116.537 10.6657 116.678 10.6185 116.783 10.524C116.889 10.4295 117.029 10.276 117.193 10.0635L117.428 10.2288C117.182 10.6067 116.947 10.8546 116.713 11.0199ZM113.197 5.29298C113.584 5.06862 113.842 4.77342 113.982 4.39556C114.123 4.0295 114.193 3.58079 114.182 3.06123C114.17 2.22285 113.959 1.58521 113.561 1.17192C113.162 0.746829 112.506 0.54609 111.615 0.557898C111.299 0.557898 111.064 0.605131 110.9 0.67598C110.736 0.746829 110.631 0.876719 110.584 1.06565C110.525 1.25458 110.502 1.52617 110.502 1.89222L110.561 5.67084L111.592 5.65903C112.283 5.63541 112.811 5.51733 113.197 5.29298Z" fill="#E1B168"/>
<path d="M129.381 12.8856L129.322 13.1926C128.924 13.0864 128.385 12.9683 127.729 12.8384C126.873 12.6731 126.24 12.5668 125.807 12.5078L125.865 12.2007C126.252 12.2598 126.533 12.2716 126.709 12.2244C126.885 12.1771 127.002 12.059 127.037 11.8583C127.072 11.6812 127.061 11.445 127.002 11.1144L126.557 8.45755L122.947 7.76086L122.021 9.23689C121.729 9.70921 121.541 10.0989 121.482 10.4177C121.424 10.7365 121.482 10.9845 121.67 11.1616C121.857 11.3387 122.174 11.4804 122.607 11.5749L122.549 11.8819C121.986 11.7402 121.412 11.6103 120.838 11.5041C120.393 11.4214 120.018 11.3624 119.713 11.3269L119.771 11.0199C120.287 11.0081 120.768 10.6421 121.201 9.93357L126.475 1.49072L126.721 1.53796L128.549 11.7284C128.654 12.3897 128.936 12.7793 129.381 12.8856ZM125.678 3.30918L123.1 7.47747L126.486 8.13873L125.678 3.30918Z" fill="#E1B168"/>
<path d="M144.029 7.73769C143.842 7.7495 143.678 7.84396 143.537 7.99747C143.396 8.16278 143.256 8.42256 143.115 8.78862L139.658 17.2551L139.33 17.1252L137.174 5.45871L134.115 12.9569C133.963 13.323 133.881 13.6064 133.869 13.8189C133.857 14.0314 133.928 14.2086 134.068 14.3621C134.209 14.5156 134.467 14.6809 134.83 14.8462L134.713 15.1296C134.385 14.9643 133.916 14.7517 133.295 14.492C132.732 14.2558 132.299 14.0905 131.971 13.996L132.088 13.7126C132.416 13.8307 132.686 13.8898 132.873 13.8661C133.061 13.8543 133.225 13.7599 133.365 13.6064C133.506 13.4528 133.646 13.1813 133.787 12.8152L136.6 5.91923C136.74 5.56499 136.822 5.2934 136.834 5.10447C136.846 4.91554 136.787 4.76203 136.658 4.64395C136.529 4.52587 136.295 4.38417 135.967 4.23066L136.084 3.94727C136.377 4.10077 136.811 4.30151 137.373 4.52587C137.795 4.70299 138.17 4.84469 138.486 4.93915L140.303 14.7281L142.787 8.65873C142.939 8.29267 143.021 8.00928 143.033 7.79673C143.045 7.58418 142.986 7.40706 142.834 7.25355C142.693 7.10005 142.436 6.93473 142.072 6.76942L142.189 6.48602C142.518 6.65134 142.986 6.86389 143.607 7.12367C144.17 7.35983 144.604 7.52514 144.932 7.61961L144.814 7.903C144.486 7.78492 144.229 7.72588 144.029 7.73769Z" fill="#E1B168"/>
<path d="M148.975 12.0826C149.303 11.5867 149.643 11.0199 149.971 10.394C150.65 10.89 151.834 11.7166 153.51 12.8501C155.174 13.9837 156.369 14.7749 157.084 15.2236C156.627 15.7904 156.229 16.3099 155.912 16.7941C155.631 17.2192 155.408 17.5734 155.256 17.8686L154.963 17.6679C155.338 16.9594 155.584 16.4162 155.689 16.0384C155.795 15.6487 155.783 15.3062 155.619 14.9874C155.467 14.6686 155.127 14.3262 154.6 13.9719L153.92 13.5114L149.08 20.7498C148.846 21.1041 148.705 21.3875 148.658 21.5882C148.611 21.7889 148.658 21.9897 148.787 22.1668C148.916 22.3439 149.162 22.5683 149.537 22.8399L149.361 23.0996C148.928 22.769 148.318 22.3439 147.533 21.8007C146.689 21.234 146.057 20.8207 145.635 20.5727L145.811 20.3129C146.197 20.5491 146.49 20.7026 146.701 20.7616C146.912 20.8207 147.111 20.7852 147.287 20.6672C147.463 20.5491 147.674 20.3129 147.908 19.9587L152.748 12.7203L152.068 12.2597C151.541 11.9055 151.107 11.7166 150.756 11.6929C150.404 11.6693 150.076 11.7756 149.76 12.0236C149.443 12.2715 149.033 12.7084 148.529 13.3225L148.236 13.1217C148.436 12.8501 148.682 12.5077 148.975 12.0826Z" fill="#E1B168"/>
<path d="M160.037 32.2751L159.826 32.4994C159.545 32.1806 159.17 31.7909 158.689 31.3186C158.068 30.7046 157.588 30.2559 157.26 29.9843L157.471 29.7599C157.764 30.0197 157.986 30.185 158.162 30.2441C158.338 30.3031 158.49 30.2559 158.643 30.1142C158.76 29.9843 158.889 29.7717 159.018 29.4765L160.096 27.0204L157.471 24.4344L155.9 25.1547C155.396 25.3791 155.033 25.6153 154.811 25.8396C154.588 26.0758 154.506 26.3119 154.564 26.5717C154.623 26.8315 154.811 27.1149 155.127 27.4337L154.916 27.6581C154.518 27.233 154.119 26.8079 153.697 26.3946C153.369 26.0758 153.088 25.816 152.854 25.6271L153.064 25.4027C153.51 25.6743 154.096 25.6389 154.846 25.2964L163.857 21.1636L164.033 21.3407L159.99 30.8581C159.697 31.4603 159.721 31.9444 160.037 32.2751ZM162.17 22.2263L157.74 24.2691L160.213 26.7016L162.17 22.2263Z" fill="#E1B168"/>
<path d="M168.486 29.1695C168.967 28.827 169.482 28.4137 170.01 27.9414C170.479 28.6499 171.287 29.8425 172.459 31.5075C173.619 33.1606 174.463 34.3178 174.967 35.0027C174.334 35.3687 173.783 35.723 173.314 36.0536C172.893 36.3488 172.564 36.6086 172.318 36.8212L172.119 36.5378C172.717 36.0182 173.139 35.5931 173.373 35.2743C173.607 34.9555 173.713 34.613 173.678 34.2588C173.643 33.9045 173.443 33.4676 173.08 32.9481L172.6 32.275L165.533 37.3289C165.193 37.5769 164.959 37.7894 164.842 37.9665C164.725 38.1437 164.701 38.3444 164.76 38.557C164.818 38.7695 164.971 39.0647 165.229 39.4426L164.982 39.6197C164.701 39.1592 164.279 38.5451 163.729 37.754C163.143 36.9156 162.697 36.3134 162.393 35.9237L162.639 35.7466C162.908 36.1127 163.143 36.3488 163.318 36.4787C163.494 36.6086 163.693 36.644 163.904 36.5968C164.104 36.5496 164.385 36.3961 164.725 36.1599L171.791 31.106L171.311 30.4329C170.947 29.9134 170.607 29.5827 170.279 29.4292C169.963 29.2757 169.611 29.2639 169.225 29.3938C168.85 29.5119 168.311 29.7717 167.619 30.1613L167.42 29.8779C167.725 29.689 168.064 29.4647 168.486 29.1695Z" fill="#E1B168"/>
<path d="M172.975 50.8254C172.447 51.0615 171.873 51.3685 171.24 51.7346C170.982 51.0851 170.514 50.0106 169.834 48.5109C169.025 46.7279 168.404 45.3818 167.971 44.4726L168.252 44.3427C168.416 44.6733 168.568 44.8976 168.697 45.0275C168.826 45.1574 168.979 45.2047 169.166 45.1929C169.354 45.181 169.611 45.0866 169.963 44.9331L176.842 41.7803C177.193 41.6268 177.428 41.4733 177.557 41.3434C177.686 41.2135 177.756 41.06 177.744 40.8829C177.732 40.7057 177.662 40.446 177.521 40.1035L177.803 39.9736C178.189 40.9065 178.787 42.2526 179.584 44.0475C180.205 45.4172 180.65 46.3855 180.943 46.9523C180.311 47.1648 179.748 47.3892 179.268 47.6017C178.904 47.767 178.623 47.9087 178.424 48.0386L178.283 47.7198C178.857 47.3774 179.256 47.0822 179.514 46.846C179.76 46.6098 179.9 46.3382 179.924 46.0312C179.947 45.7242 179.854 45.3345 179.631 44.8386L179.104 43.6814C178.951 43.339 178.811 43.1146 178.693 42.9847C178.576 42.8548 178.424 42.7958 178.236 42.8194C178.061 42.8312 177.791 42.9257 177.439 43.0792L174.17 44.5788L174.592 45.5117C174.803 45.984 175.084 46.232 175.424 46.2556C175.775 46.2792 176.104 46.2438 176.408 46.1493C176.713 46.0548 176.912 45.9958 177.006 45.9722L177.146 46.291C176.678 46.4681 176.232 46.6571 175.822 46.846L175.166 47.153C174.697 47.3656 174.053 47.6962 173.232 48.1331L173.092 47.8143C173.15 47.7788 173.361 47.649 173.725 47.4246C174.088 47.2002 174.322 46.9523 174.428 46.6453C174.533 46.3382 174.498 46.0076 174.322 45.6298L173.9 44.6969L170.572 46.2202C170.221 46.3737 169.986 46.5272 169.857 46.6453C169.729 46.7633 169.67 46.9287 169.682 47.1058C169.693 47.2829 169.775 47.5427 169.928 47.8733L170.385 48.9006C170.643 49.4792 170.924 49.8925 171.217 50.1287C171.51 50.3648 171.85 50.4711 172.248 50.4475C172.646 50.4239 173.186 50.3058 173.877 50.0814L174.018 50.4003C173.736 50.4947 173.396 50.6364 172.975 50.8254Z" fill="#E1B168"/>
<path d="M57.0059 105.65L57.3223 106.405L51.2754 106.878L50.959 106.122L54.7441 102.875L49.7871 103.347L49.4707 102.591L53.9941 98.5293L54.3223 99.3086L50.4082 102.65L55.5059 102.119L55.8105 102.851L51.8965 106.193L57.0059 105.65Z" fill="#E1B168"/>
<path d="M58.2715 107.976L60.2754 111.448L59.6543 111.814L58.0371 109.027L56.502 109.924L57.9434 112.416L57.3223 112.782L55.8809 110.29L54.2988 111.223L55.9629 114.093L55.3418 114.459L53.2793 110.904L58.2715 107.976Z" fill="#E1B168"/>
<path d="M62.9124 116.713C62.8421 116.406 62.7249 116.123 62.5374 115.875C62.303 115.544 61.9984 115.297 61.6351 115.143C61.2718 114.99 60.9085 114.919 60.5101 114.966C60.1116 115.013 59.7601 115.143 59.4319 115.391C59.1155 115.627 58.8694 115.922 58.7171 116.288C58.5648 116.654 58.5062 117.032 58.5413 117.422C58.5882 117.812 58.7171 118.178 58.9632 118.508C59.139 118.756 59.3616 118.957 59.6312 119.122C59.9007 119.288 60.1937 119.394 60.4984 119.453L60.3577 120.15C59.9593 120.079 59.5726 119.937 59.221 119.725C58.8694 119.512 58.5765 119.24 58.3421 118.922C58.014 118.473 57.8265 117.989 57.7679 117.469C57.7093 116.95 57.7796 116.442 57.9905 115.958C58.2015 115.474 58.5179 115.072 58.9515 114.753C59.3851 114.435 59.8538 114.246 60.3694 114.198C60.8851 114.151 61.389 114.234 61.8577 114.458C62.3382 114.682 62.7366 115.013 63.0648 115.462C63.2991 115.781 63.4632 116.147 63.5687 116.536C63.6741 116.926 63.6859 117.316 63.6273 117.705L62.9007 117.658C62.9944 117.339 62.9827 117.032 62.9124 116.713Z" fill="#E1B168"/>
<path d="M68.0564 121.981C68.1736 122.5 68.1618 123.008 68.0212 123.516C67.8689 124.023 67.5993 124.448 67.2009 124.815C66.8025 125.181 66.3572 125.417 65.8415 125.523C65.3259 125.629 64.822 125.606 64.3181 125.44C63.8142 125.275 63.3806 124.98 63.0056 124.578C62.6306 124.177 62.3845 123.705 62.2673 123.185C62.1501 122.665 62.1618 122.146 62.3142 121.65C62.4665 121.142 62.7361 120.705 63.1345 120.339C63.5329 119.973 63.9782 119.737 64.4939 119.631C64.9978 119.524 65.5134 119.56 66.0056 119.725C66.5095 119.891 66.9431 120.186 67.3181 120.599C67.6814 121 67.9275 121.461 68.0564 121.981ZM65.8298 120.445C65.4548 120.327 65.0681 120.304 64.6931 120.386C64.3064 120.469 63.9665 120.646 63.6736 120.918C63.3806 121.189 63.1697 121.52 63.0525 121.898C62.9353 122.276 62.9236 122.665 63.0056 123.055C63.0876 123.445 63.2634 123.787 63.5329 124.082C63.8025 124.378 64.1189 124.578 64.4939 124.696C64.8689 124.815 65.2439 124.826 65.6306 124.744C66.0173 124.661 66.3572 124.484 66.6618 124.212C66.9665 123.941 67.1657 123.61 67.2829 123.232C67.4001 122.854 67.4118 122.477 67.3298 122.087C67.2478 121.697 67.072 121.367 66.8025 121.071C66.5212 120.776 66.2048 120.575 65.8298 120.445Z" fill="#E1B168"/>
<path d="M70.8926 124.318L71.4785 124.849L68.1387 128.628L70.0137 130.305L69.5332 130.848L67.0723 128.64L70.8926 124.318Z" fill="#E1B168"/>
<path d="M74.9473 127.825L78.1582 130.21L77.7363 130.789L75.1582 128.876L74.1035 130.316L76.4004 132.028L75.9785 132.607L73.6699 130.895L72.5801 132.383L75.2285 134.355L74.8066 134.933L71.5254 132.489L74.9473 127.825Z" fill="#E1B168"/>
<path d="M82.3184 132.868L86.2793 134.994L85.9395 135.631L84.2988 134.757L81.9316 139.221L81.2402 138.843L83.6074 134.38L81.9785 133.506L82.3184 132.868Z" fill="#E1B168"/>
<path d="M91.2836 137.543C91.6117 137.957 91.8227 138.429 91.893 138.949C91.975 139.468 91.9047 139.976 91.7055 140.472C91.5063 140.968 91.1899 141.381 90.768 141.7C90.3461 142.019 89.8774 142.208 89.35 142.279C88.8227 142.349 88.307 142.267 87.7914 142.054C87.2758 141.842 86.8656 141.523 86.5375 141.11C86.2094 140.696 86.0102 140.224 85.9281 139.693C85.8461 139.173 85.9164 138.653 86.1156 138.158C86.3149 137.662 86.6313 137.248 87.0414 136.941C87.4516 136.634 87.932 136.445 88.4477 136.374C88.975 136.315 89.4906 136.386 90.0063 136.599C90.5336 136.811 90.9555 137.118 91.2836 137.543ZM88.6234 137.107C88.2367 137.154 87.8852 137.307 87.5688 137.543C87.2524 137.78 87.018 138.087 86.8656 138.465C86.7133 138.842 86.6664 139.232 86.725 139.622C86.7836 140.011 86.9359 140.366 87.1703 140.684C87.4164 141.003 87.7211 141.239 88.0844 141.393C88.4594 141.546 88.8344 141.594 89.2211 141.535C89.6078 141.476 89.9594 141.334 90.2758 141.086C90.5922 140.85 90.8266 140.543 90.9789 140.165C91.1313 139.787 91.1781 139.409 91.1195 139.02C91.0609 138.63 90.9203 138.276 90.6742 137.969C90.4281 137.662 90.1352 137.425 89.7719 137.272C89.3969 137.107 89.0102 137.059 88.6234 137.107Z" fill="#E1B168"/>
<path d="M101.795 140.579C102.193 140.933 102.475 141.358 102.639 141.854C102.803 142.35 102.826 142.858 102.709 143.389C102.592 143.921 102.357 144.369 101.994 144.759C101.631 145.149 101.197 145.42 100.693 145.574C100.189 145.727 99.6621 145.751 99.123 145.621C98.584 145.503 98.1152 145.267 97.7168 144.913C97.3184 144.558 97.0371 144.121 96.873 143.625C96.709 143.118 96.6855 142.61 96.8027 142.079C96.9199 141.547 97.1543 141.099 97.5176 140.721C97.8809 140.343 98.3027 140.071 98.8066 139.918C99.3105 139.764 99.8379 139.752 100.377 139.87C100.928 139.989 101.396 140.225 101.795 140.579ZM99.0996 140.614C98.7246 140.732 98.3965 140.933 98.1269 141.228C97.8574 141.524 97.6816 141.854 97.5879 142.256C97.4941 142.657 97.5176 143.047 97.6465 143.425C97.7754 143.803 97.9746 144.121 98.2676 144.393C98.5605 144.665 98.9004 144.842 99.2871 144.924C99.6738 145.007 100.061 144.995 100.424 144.865C100.799 144.747 101.115 144.535 101.385 144.251C101.654 143.956 101.83 143.614 101.924 143.224C102.018 142.822 101.994 142.445 101.877 142.067C101.76 141.689 101.549 141.37 101.268 141.11C100.986 140.851 100.646 140.662 100.26 140.579C99.8613 140.484 99.4746 140.496 99.0996 140.614Z" fill="#E1B168"/>
<path d="M106.049 145.632C106.307 145.963 106.693 146.152 107.209 146.199C107.713 146.246 108.123 146.14 108.439 145.869C108.756 145.597 108.943 145.196 109.002 144.664L109.342 141.263L110.127 141.346L109.787 144.747C109.717 145.503 109.436 146.069 108.967 146.447C108.498 146.837 107.889 146.99 107.139 146.908C106.377 146.837 105.814 146.553 105.428 146.081C105.041 145.609 104.889 144.995 104.959 144.251L105.299 140.85L106.084 140.933L105.744 144.334C105.686 144.877 105.779 145.302 106.049 145.632Z" fill="#E1B168"/>
<path d="M116.42 147.192L115.248 145.397C115.119 145.409 115.014 145.42 114.932 145.42L113.467 145.444L113.502 147.251L112.717 147.262L112.623 141.476L114.873 141.441C115.6 141.429 116.162 141.595 116.572 141.925C116.971 142.256 117.182 142.74 117.193 143.354C117.205 143.826 117.1 144.216 116.889 144.547C116.678 144.865 116.373 145.102 115.975 145.255L117.346 147.192H116.42ZM114.92 144.688C115.412 144.676 115.787 144.57 116.045 144.346C116.303 144.121 116.432 143.803 116.42 143.378C116.408 142.964 116.279 142.657 116.01 142.445C115.74 142.232 115.365 142.138 114.873 142.15L113.408 142.173L113.455 144.724L114.92 144.688Z" fill="#E1B168"/>
<path d="M127.436 145.951L126.006 144.357C125.877 144.392 125.771 144.416 125.689 144.427L124.248 144.675L124.553 146.447L123.779 146.577L122.818 140.873L125.033 140.495C125.748 140.377 126.334 140.448 126.779 140.708C127.225 140.968 127.506 141.416 127.611 142.03C127.693 142.491 127.646 142.904 127.494 143.247C127.33 143.601 127.072 143.884 126.697 144.085L128.338 145.785L127.436 145.951ZM125.572 143.719C126.053 143.636 126.416 143.459 126.639 143.211C126.861 142.951 126.932 142.609 126.861 142.196C126.791 141.782 126.615 141.499 126.322 141.334C126.029 141.168 125.643 141.133 125.15 141.216L123.709 141.464L124.131 143.967L125.572 143.719Z" fill="#E1B168"/>
<path d="M129.615 139.55L133.459 138.464L133.658 139.161L130.576 140.034L131.057 141.758L133.811 140.979L134.01 141.676L131.256 142.455L131.748 144.226L134.924 143.329L135.123 144.026L131.186 145.135L129.615 139.55Z" fill="#E1B168"/>
<path d="M138.346 137.531C138.053 137.555 137.784 137.614 137.561 137.709C137.256 137.827 137.022 137.992 136.881 138.181C136.741 138.37 136.717 138.571 136.799 138.783C136.87 138.972 136.987 139.102 137.151 139.185C137.315 139.255 137.479 139.303 137.678 139.303C137.866 139.303 138.124 139.303 138.452 139.279C138.862 139.255 139.19 139.244 139.46 139.255C139.717 139.267 139.975 139.35 140.21 139.492C140.444 139.633 140.631 139.869 140.76 140.2C140.877 140.507 140.901 140.814 140.831 141.109C140.76 141.405 140.596 141.676 140.338 141.924C140.081 142.172 139.776 142.361 139.389 142.514C139.002 142.668 138.581 142.739 138.159 142.739C137.737 142.739 137.327 142.656 136.952 142.503L137.034 141.735C137.385 141.889 137.749 141.971 138.124 141.983C138.499 141.995 138.827 141.936 139.131 141.818C139.483 141.676 139.741 141.499 139.893 141.275C140.045 141.05 140.069 140.826 139.975 140.578C139.905 140.389 139.788 140.259 139.624 140.176C139.46 140.094 139.284 140.058 139.085 140.047C138.885 140.047 138.627 140.058 138.299 140.082C137.901 140.117 137.573 140.129 137.303 140.106C137.045 140.094 136.788 140.011 136.553 139.881C136.319 139.74 136.143 139.503 136.014 139.185C135.897 138.901 135.885 138.618 135.956 138.334C136.026 138.051 136.19 137.791 136.424 137.567C136.659 137.342 136.975 137.142 137.35 137C137.667 136.87 138.006 136.799 138.346 136.776C138.686 136.752 139.014 136.764 139.319 136.835L139.272 137.614C138.944 137.52 138.639 137.496 138.346 137.531Z" fill="#E1B168"/>
<path d="M140.666 135.665L144.674 133.634L145.002 134.284L143.35 135.122L145.6 139.645L144.896 139.999L142.646 135.476L140.994 136.315L140.666 135.665Z" fill="#E1B168"/>
<path d="M152.561 135.572L151.307 134.698L148.74 136.316L148.975 137.827L148.271 138.264L147.404 131.994L148.096 131.557L153.287 135.111L152.561 135.572ZM148.623 135.536L150.674 134.249L148.166 132.514L148.623 135.536Z" fill="#E1B168"/>
<path d="M155.326 132.194C155.736 132.253 156.146 132.111 156.557 131.792C156.955 131.474 157.178 131.108 157.225 130.694C157.272 130.281 157.131 129.856 156.803 129.443L154.705 126.75L155.326 126.254L157.424 128.947C157.881 129.537 158.08 130.139 158.01 130.741C157.939 131.344 157.6 131.887 157.014 132.359C156.416 132.832 155.818 133.032 155.209 132.961C154.6 132.891 154.072 132.56 153.604 131.97L151.506 129.277L152.127 128.781L154.225 131.474C154.541 131.899 154.904 132.147 155.326 132.194Z" fill="#E1B168"/>
<path d="M163.846 126.101L161.771 125.605C161.689 125.699 161.619 125.782 161.549 125.841L160.506 126.868L161.76 128.155L161.197 128.71L157.178 124.577L158.783 122.995C159.299 122.476 159.826 122.204 160.342 122.169C160.857 122.133 161.338 122.334 161.771 122.783C162.1 123.113 162.299 123.479 162.357 123.857C162.428 124.235 162.369 124.625 162.17 125.014L164.49 125.463L163.846 126.101ZM161.045 125.333C161.396 124.991 161.584 124.636 161.631 124.306C161.666 123.963 161.537 123.645 161.244 123.338C160.951 123.042 160.646 122.912 160.307 122.948C159.967 122.983 159.627 123.172 159.275 123.515L158.232 124.542L160.002 126.36L161.045 125.333Z" fill="#E1B168"/>
<path d="M169.154 119.937L167.689 119.523L165.768 121.885L166.471 123.243L165.943 123.892L163.119 118.236L163.635 117.599L169.693 119.275L169.154 119.937ZM165.416 121.177L166.939 119.299L164.01 118.461L165.416 121.177Z" fill="#E1B168"/>
<path d="M168.533 110.621L168.955 109.959L173.783 113.089L173.35 113.762L167.83 114.116L171.568 116.537L171.147 117.198L166.318 114.069L166.752 113.396L172.283 113.041L168.533 110.621Z" fill="#E1B168"/>
<path d="M169.893 108.295L171.92 104.257L172.564 104.587L171.732 106.252L176.209 108.543L175.857 109.252L171.381 106.961L170.549 108.626L169.893 108.295Z" fill="#E1B168"/>
<path d="M174.381 100.406C174.193 100.643 174.064 100.879 173.971 101.103C173.854 101.41 173.807 101.693 173.854 101.93C173.9 102.166 174.029 102.319 174.24 102.402C174.428 102.473 174.604 102.485 174.768 102.414C174.932 102.343 175.084 102.248 175.213 102.107C175.342 101.965 175.518 101.776 175.717 101.516C175.975 101.198 176.197 100.95 176.385 100.761C176.572 100.572 176.807 100.442 177.064 100.359C177.322 100.276 177.627 100.312 177.955 100.442C178.26 100.56 178.494 100.749 178.658 101.009C178.822 101.268 178.904 101.575 178.916 101.918C178.928 102.272 178.846 102.638 178.693 103.028C178.541 103.417 178.307 103.772 178.014 104.091C177.709 104.409 177.381 104.646 177.029 104.811L176.525 104.232C176.877 104.079 177.182 103.866 177.439 103.595C177.697 103.323 177.885 103.04 178.002 102.744C178.143 102.39 178.178 102.071 178.119 101.812C178.061 101.552 177.908 101.375 177.674 101.268C177.486 101.198 177.311 101.186 177.146 101.257C176.982 101.316 176.83 101.422 176.689 101.564C176.549 101.705 176.385 101.906 176.186 102.166C175.939 102.485 175.717 102.733 175.529 102.922C175.342 103.11 175.119 103.24 174.85 103.311C174.592 103.394 174.299 103.358 173.971 103.229C173.689 103.11 173.467 102.933 173.303 102.685C173.15 102.437 173.068 102.154 173.057 101.812C173.057 101.481 173.127 101.127 173.268 100.737C173.396 100.418 173.561 100.111 173.783 99.8396C173.994 99.568 174.229 99.3436 174.486 99.1665L175.025 99.7333C174.779 99.9577 174.557 100.17 174.381 100.406Z" fill="#E1B168"/>
<path d="M114.333 88.4338C111.696 88.4338 109.13 87.867 106.704 86.7571C104.888 87.6073 102.966 88.0323 100.985 88.0323C93.4619 88.0323 87.333 81.8567 87.333 74.2758C87.333 67.8286 91.8213 62.2197 98.0439 60.8499C101.302 54.8041 107.513 51.0728 114.333 51.0728C124.095 51.0728 132.146 58.689 132.802 68.478C135.884 70.4027 137.782 73.8153 137.782 77.464C137.782 83.2973 133.071 88.0442 127.282 88.0442C125.489 88.0442 123.72 87.5718 122.138 86.6744C119.677 87.8434 117.04 88.4338 114.333 88.4338ZM106.704 85.4582L106.962 85.5762C111.731 87.8316 117.204 87.7962 121.927 85.47L122.208 85.3283L122.478 85.4936C123.942 86.3792 125.606 86.8515 127.294 86.8515C132.438 86.8515 136.622 82.636 136.622 77.4522C136.622 74.1105 134.829 70.9931 131.946 69.3164L131.665 69.1511L131.653 68.8323C131.185 59.5274 123.579 52.23 114.333 52.23C107.853 52.23 101.958 55.8314 98.9463 61.6293L98.8174 61.8772L98.5479 61.9363C92.7354 63.1053 88.5049 68.2891 88.5049 74.264C88.5049 81.1954 94.1064 86.8397 100.985 86.8397C102.884 86.8397 104.712 86.4028 106.446 85.5644L106.704 85.4582Z" fill="#E1B168"/>
<path d="M126.31 99.4625H98.8174V86.6861L99.4736 86.7687C100.048 86.8396 100.528 86.875 100.985 86.875C102.884 86.875 104.712 86.4381 106.446 85.5997L106.704 85.458L106.962 85.5761C111.731 87.8315 117.204 87.796 121.927 85.4698L122.208 85.3281L122.478 85.4934C123.497 86.1075 124.61 86.5208 125.817 86.7215L126.31 86.8041V99.4625ZM99.9893 98.2817H125.138V87.796C124.083 87.5717 123.075 87.1938 122.149 86.6624C117.263 88.965 111.626 89.0005 106.704 86.7569C104.888 87.6071 102.966 88.0322 100.985 88.0322C100.669 88.0322 100.341 88.0204 99.9893 87.985V98.2817Z" fill="#E1B168"/>
<path d="M100.903 70.2375C100.575 70.2375 100.317 69.9777 100.317 69.6471C100.317 61.96 106.528 55.7017 114.157 55.7017C114.485 55.7017 114.743 55.9614 114.743 56.2921C114.743 56.6227 114.485 56.8825 114.157 56.8825C107.173 56.8825 101.489 62.6094 101.489 69.6471C101.489 69.9777 101.231 70.2375 100.903 70.2375Z" fill="#E1B168"/>
<path d="M224.478 59.339H145.435C145.106 59.339 144.849 59.0792 144.849 58.7486C144.849 58.418 145.106 58.1582 145.435 58.1582H224.478C224.806 58.1582 225.063 58.418 225.063 58.7486C225.063 59.0792 224.806 59.339 224.478 59.339Z" fill="#E1B168"/>
<path d="M224.478 92.3903H145.435C145.106 92.3903 144.849 92.1305 144.849 91.7999C144.849 91.4693 145.106 91.2095 145.435 91.2095H224.478C224.806 91.2095 225.063 91.4693 225.063 91.7999C225.063 92.1305 224.806 92.3903 224.478 92.3903Z" fill="#E1B168"/>
<path d="M79.6924 59.339H0.649414C0.321289 59.339 0.0634766 59.0792 0.0634766 58.7486C0.0634766 58.418 0.321289 58.1582 0.649414 58.1582H79.6924C80.0205 58.1582 80.2783 58.418 80.2783 58.7486C80.2783 59.0792 80.0088 59.339 79.6924 59.339Z" fill="#E1B168"/>
<path d="M79.6924 92.3903H0.649414C0.321289 92.3903 0.0634766 92.1305 0.0634766 91.7999C0.0634766 91.4693 0.321289 91.2095 0.649414 91.2095H79.6924C80.0205 91.2095 80.2783 91.4693 80.2783 91.7999C80.2783 92.1305 80.0088 92.3903 79.6924 92.3903Z" fill="#E1B168"/>
<path d="M44.7822 78.1843H24.5088C22.915 78.1843 21.6143 76.8736 21.6143 75.2677C21.6143 73.6618 22.915 72.3511 24.5088 72.3511H46.376C46.7041 72.3511 46.9619 72.6109 46.9619 72.9415C46.9619 73.2721 46.7041 73.5319 46.376 73.5319H24.5088C23.5596 73.5319 22.7861 74.3112 22.7861 75.2677C22.7861 76.2242 23.5596 77.0035 24.5088 77.0035H44.7705C45.0986 77.0035 45.3565 77.2633 45.3565 77.5939C45.3565 77.9245 45.0986 78.1843 44.7822 78.1843Z" fill="#E1B168"/>
<path d="M11.6182 83.6041C5.46582 83.6041 0.450195 79.8727 0.450195 75.2794C0.450195 70.686 5.4541 66.9546 11.6182 66.9546C17.7705 66.9546 22.7861 70.686 22.7861 75.2794C22.7861 79.8727 17.7822 83.6041 11.6182 83.6041ZM11.6182 68.1236C6.11035 68.1236 1.62207 71.3354 1.62207 75.2675C1.62207 79.2115 6.11035 82.4115 11.6182 82.4115C17.126 82.4115 21.6143 79.1997 21.6143 75.2675C21.6143 71.3354 17.1377 68.1236 11.6182 68.1236Z" fill="#E1B168"/>
<path d="M199.317 78.1843H179.056C178.728 78.1843 178.47 77.9245 178.47 77.5939C178.47 77.2633 178.728 77.0035 179.056 77.0035H199.317C200.267 77.0035 201.04 76.2242 201.04 75.2677C201.04 74.3112 200.267 73.5319 199.317 73.5319H177.45C177.122 73.5319 176.864 73.2721 176.864 72.9415C176.864 72.6109 177.122 72.3511 177.45 72.3511H199.317C200.911 72.3511 202.212 73.6618 202.212 75.2677C202.212 76.8854 200.911 78.1843 199.317 78.1843Z" fill="#E1B168"/>
<path d="M210.438 80.7946H206.524C203.501 80.7946 201.04 78.3149 201.04 75.2684C201.04 72.2219 203.501 69.7422 206.524 69.7422H210.438V80.7946ZM206.524 70.9348C204.145 70.9348 202.212 72.8832 202.212 75.2802C202.212 77.6773 204.145 79.6256 206.524 79.6256H209.267V70.9466H206.524V70.9348Z" fill="#E1B168"/>
<path d="M222.79 70.9347H209.864C209.536 70.9347 209.278 70.6749 209.278 70.3443C209.278 70.0137 209.536 69.7539 209.864 69.7539H222.79C223.118 69.7539 223.376 70.0137 223.376 70.3443C223.376 70.6749 223.106 70.9347 222.79 70.9347Z" fill="#E1B168"/>
<path d="M222.79 75.8595H209.864C209.536 75.8595 209.278 75.5997 209.278 75.2691C209.278 74.9385 209.536 74.6787 209.864 74.6787H222.79C223.118 74.6787 223.376 74.9385 223.376 75.2691C223.376 75.5997 223.106 75.8595 222.79 75.8595Z" fill="#E1B168"/>
<path d="M222.79 80.7946H209.864C209.536 80.7946 209.278 80.5348 209.278 80.2042C209.278 79.8735 209.536 79.6138 209.864 79.6138H222.79C223.118 79.6138 223.376 79.8735 223.376 80.2042C223.376 80.5348 223.106 80.7946 222.79 80.7946Z" fill="#E1B168"/>
<path d="M76.5283 83.6042H66.2861C65.958 83.6042 65.7002 83.3444 65.7002 83.0137C65.7002 82.6831 65.958 82.4233 66.2861 82.4233H76.5283C76.8565 82.4233 77.1143 82.6831 77.1143 83.0137C77.1143 83.3444 76.8565 83.6042 76.5283 83.6042Z" fill="#E1B168"/>
<path d="M76.0244 74.8063H56.583C56.2549 74.8063 55.9971 74.5465 55.9971 74.2159C55.9971 73.8853 56.2549 73.6255 56.583 73.6255H76.0244C76.3525 73.6255 76.6104 73.8853 76.6104 74.2159C76.6104 74.5465 76.3525 74.8063 76.0244 74.8063Z" fill="#E1B168"/>
<path d="M77.3135 66.0099H67.0713C66.7432 66.0099 66.4854 65.7501 66.4854 65.4195C66.4854 65.0889 66.7432 64.8291 67.0713 64.8291H77.3135C77.6416 64.8291 77.8994 65.0889 77.8994 65.4195C77.8994 65.7501 77.6416 66.0099 77.3135 66.0099Z" fill="#E1B168"/>
<path d="M76.5166 79.1994H61.3057C60.9775 79.1994 60.7197 78.9396 60.7197 78.609C60.7197 78.2783 60.9775 78.0186 61.3057 78.0186H76.5166C76.8447 78.0186 77.1025 78.2783 77.1025 78.609C77.1025 78.9396 76.833 79.1994 76.5166 79.1994Z" fill="#E1B168"/>
<path d="M76.4346 70.3429H61.2236C60.8955 70.3429 60.6377 70.0831 60.6377 69.7525C60.6377 69.4219 60.8955 69.1621 61.2236 69.1621H76.4346C76.7627 69.1621 77.0205 69.4219 77.0205 69.7525C77.0205 70.0831 76.7627 70.3429 76.4346 70.3429Z" fill="#E1B168"/>
<path d="M158.829 67.0617H148.587C148.259 67.0617 148.001 66.8019 148.001 66.4713C148.001 66.1406 148.259 65.8809 148.587 65.8809H158.829C159.157 65.8809 159.415 66.1406 159.415 66.4713C159.415 66.8019 159.157 67.0617 158.829 67.0617Z" fill="#E1B168"/>
<path d="M168.544 75.8581H149.103C148.774 75.8581 148.517 75.5983 148.517 75.2677C148.517 74.937 148.774 74.6772 149.103 74.6772H168.544C168.872 74.6772 169.13 74.937 169.13 75.2677C169.13 75.5983 168.872 75.8581 168.544 75.8581Z" fill="#E1B168"/>
<path d="M158.044 84.6559H147.802C147.474 84.6559 147.216 84.3961 147.216 84.0655C147.216 83.7349 147.474 83.4751 147.802 83.4751H158.044C158.372 83.4751 158.63 83.7349 158.63 84.0655C158.63 84.3961 158.372 84.6559 158.044 84.6559Z" fill="#E1B168"/>
<path d="M163.821 71.4665H148.61C148.282 71.4665 148.024 71.2067 148.024 70.8761C148.024 70.5454 148.282 70.2856 148.61 70.2856H163.821C164.149 70.2856 164.407 70.5454 164.407 70.8761C164.407 71.2067 164.149 71.4665 163.821 71.4665Z" fill="#E1B168"/>
<path d="M163.903 80.3214H148.692C148.364 80.3214 148.106 80.0617 148.106 79.731C148.106 79.4004 148.364 79.1406 148.692 79.1406H163.903C164.231 79.1406 164.489 79.4004 164.489 79.731C164.489 80.0617 164.22 80.3214 163.903 80.3214Z" fill="#E1B168"/>
</svg>
