<svg width="46" height="19" viewBox="0 0 46 19" fill="none" xmlns="http://www.w3.org/2000/svg">
<line x1="0.375" y1="18.375" x2="45.375" y2="18.375" stroke="#E1B168" stroke-width="0.75"/>
<path d="M1.67389 13V4.5625H1.68514L6.02764 10.7162L5.51014 10.6037L9.83014 4.5625H9.85264V13H8.66014V7.27375L8.73889 7.8925L5.72389 12.1562H5.70139L2.63014 7.8925L2.83264 7.33V13H1.67389ZM15.1814 4.8325H20.5476V5.99125H16.3851V8.32H20.0864V9.47875H16.3851V11.8412H20.7051V13H15.1814V4.8325ZM32.7119 13.2813L26.4232 7.0375L26.7719 7.15L26.8057 13H25.5907V4.57375H25.6469L31.8569 10.8287L31.5757 10.75L31.5532 4.8325H32.7457V13.2813H32.7119ZM39.1674 10.0862C39.1674 10.4312 39.2537 10.7425 39.4262 11.02C39.5987 11.2975 39.8274 11.5187 40.1124 11.6837C40.3974 11.8487 40.7162 11.9312 41.0687 11.9312C41.4437 11.9312 41.7774 11.8487 42.0699 11.6837C42.3624 11.5187 42.5912 11.2975 42.7562 11.02C42.9287 10.7425 43.0149 10.4312 43.0149 10.0862V4.8325H44.1962V10.12C44.1962 10.7125 44.0574 11.2337 43.7799 11.6837C43.5024 12.1262 43.1274 12.4712 42.6549 12.7187C42.1824 12.9663 41.6537 13.09 41.0687 13.09C40.4987 13.09 39.9774 12.9663 39.5049 12.7187C39.0324 12.4712 38.6574 12.1262 38.3799 11.6837C38.1099 11.2337 37.9749 10.7125 37.9749 10.12V4.8325H39.1674V10.0862Z" fill="#292E36"/>
<line x1="0.375" y1="0.375" x2="45.375" y2="0.375" stroke="#E1B168" stroke-width="0.75"/>
</svg>
