<svg width="52" height="19" viewBox="0 0 52 19" fill="none" xmlns="http://www.w3.org/2000/svg">
<line x1="1.625" y1="18.375" x2="51.125" y2="18.375" stroke="#E1B168" stroke-width="0.75"/>
<path d="M1.55026 8.9275C1.55026 8.365 1.65526 7.8325 1.86526 7.33C2.08276 6.8275 2.38276 6.38125 2.76526 5.99125C3.14776 5.60125 3.59026 5.2975 4.09276 5.08C4.59526 4.855 5.13526 4.7425 5.71276 4.7425C6.28276 4.7425 6.81901 4.855 7.32151 5.08C7.82401 5.2975 8.27026 5.60125 8.66026 5.99125C9.05026 6.38125 9.35401 6.8275 9.57151 7.33C9.78901 7.8325 9.89776 8.365 9.89776 8.9275C9.89776 9.505 9.78901 10.045 9.57151 10.5475C9.35401 11.05 9.05026 11.4925 8.66026 11.875C8.27776 12.2575 7.83151 12.5575 7.32151 12.775C6.81901 12.985 6.28276 13.09 5.71276 13.09C5.13526 13.09 4.59526 12.985 4.09276 12.775C3.59026 12.565 3.14776 12.2725 2.76526 11.8975C2.38276 11.515 2.08276 11.0725 1.86526 10.57C1.65526 10.06 1.55026 9.5125 1.55026 8.9275ZM2.78776 8.9275C2.78776 9.3475 2.86276 9.74125 3.01276 10.1088C3.17026 10.4687 3.38401 10.7875 3.65401 11.065C3.92401 11.335 4.23526 11.5487 4.58776 11.7062C4.94776 11.8562 5.33401 11.9312 5.74651 11.9312C6.15151 11.9312 6.53026 11.8562 6.88276 11.7062C7.23526 11.5487 7.54276 11.335 7.80526 11.065C8.07526 10.7875 8.28526 10.4687 8.43526 10.1088C8.58526 9.74125 8.66026 9.3475 8.66026 8.9275C8.66026 8.5075 8.58151 8.1175 8.42401 7.7575C8.27401 7.39 8.06401 7.0675 7.79401 6.79C7.53151 6.5125 7.22026 6.295 6.86026 6.1375C6.50776 5.98 6.12901 5.90125 5.72401 5.90125C5.30401 5.90125 4.91776 5.98 4.56526 6.1375C4.21276 6.295 3.90151 6.5125 3.63151 6.79C3.36151 7.0675 3.15151 7.39 3.00151 7.7575C2.85901 8.125 2.78776 8.515 2.78776 8.9275ZM14.729 4.8325H19.6228V5.99125H15.9328V8.44375H19.1615V9.59125H15.9328V13H14.729V4.8325ZM24.4132 4.8325H29.307V5.99125H25.617V8.44375H28.8457V9.59125H25.617V13H24.4132V4.8325ZM34.0975 4.8325H39.4637V5.99125H35.3012V8.32H39.0025V9.47875H35.3012V11.8412H39.6212V13H34.0975V4.8325ZM46.7456 4.8325C47.1731 4.8325 47.5668 4.8925 47.9268 5.0125C48.2943 5.125 48.6056 5.29 48.8606 5.5075C49.1231 5.725 49.3256 5.995 49.4681 6.3175C49.6181 6.6325 49.6931 7 49.6931 7.42C49.6931 7.7425 49.6443 8.06125 49.5468 8.37625C49.4493 8.69125 49.2918 8.97625 49.0743 9.23125C48.8568 9.48625 48.5718 9.6925 48.2193 9.85C47.8668 10 47.4281 10.075 46.9031 10.075H45.7106V13H44.5068V4.8325H46.7456ZM46.8806 8.9275C47.1881 8.9275 47.4431 8.87875 47.6456 8.78125C47.8556 8.68375 48.0168 8.56375 48.1293 8.42125C48.2493 8.27125 48.3318 8.11375 48.3768 7.94875C48.4293 7.77625 48.4556 7.61125 48.4556 7.45375C48.4556 7.30375 48.4293 7.14625 48.3768 6.98125C48.3318 6.81625 48.2493 6.65875 48.1293 6.50875C48.0168 6.35875 47.8631 6.235 47.6681 6.1375C47.4731 6.04 47.2331 5.99125 46.9481 5.99125H45.7106V8.9275H46.8806ZM48.2643 9.625L50.3793 13H48.9843L46.8356 9.65875L48.2643 9.625Z" fill="#292E36"/>
<line x1="1.625" y1="0.375" x2="51.125" y2="0.375" stroke="#E1B168" stroke-width="0.75"/>
</svg>
