<svg width="19" height="19" viewBox="0 0 19 19" fill="none" xmlns="http://www.w3.org/2000/svg">
<path d="M9.9449 0.0610352C4.94268 0.0610352 0.886719 4.09005 0.886719 9.05903C0.886719 12.7426 3.11891 15.9079 6.3095 17.3018C6.28523 16.6752 6.30545 15.92 6.46721 15.2371C6.64109 14.506 7.63183 10.3324 7.63183 10.3324C7.63183 10.3324 7.34067 9.75798 7.34067 8.9104C7.34067 7.57677 8.11709 6.58056 9.08761 6.58056C9.91255 6.58056 10.3088 7.19516 10.3088 7.93026C10.3088 8.75374 9.7791 9.98293 9.50817 11.1237C9.28171 12.0798 9.98938 12.8551 10.9397 12.8551C12.6543 12.8551 13.8108 10.6658 13.8108 8.07085C13.8108 6.09853 12.4723 4.6243 10.042 4.6243C7.29619 4.6243 5.58161 6.6609 5.58161 8.9345C5.58161 9.71781 5.81615 10.2721 6.18009 10.6979C6.34589 10.8948 6.37015 10.9751 6.3095 11.2001C6.26501 11.3648 6.16796 11.7624 6.12348 11.9231C6.06282 12.1521 5.87681 12.2324 5.67057 12.1481C4.40485 11.6339 3.81445 10.2601 3.81445 8.70955C3.81445 6.15476 5.98599 3.08982 10.2886 3.08982C13.7461 3.08982 16.0228 5.57632 16.0228 8.24358C16.0228 11.7745 14.0453 14.4096 11.1338 14.4096C10.1552 14.4096 9.23723 13.8834 8.92181 13.2889C8.92181 13.2889 8.39611 15.3616 8.28289 15.7633C8.09283 16.4583 7.71675 17.1492 7.37302 17.6915C8.20682 17.9358 9.07154 18.0603 9.94086 18.061C14.9431 18.061 18.999 14.032 18.999 9.06304C18.999 4.09406 14.9471 0.0610352 9.9449 0.0610352Z" fill="white"/>
</svg>
