<svg width="26" height="26" viewBox="0 0 26 26" fill="none" xmlns="http://www.w3.org/2000/svg">
<circle cx="12.9642" cy="13.0995" r="12.7142" fill="#292E36"/>
<circle cx="12.9643" cy="13.0995" r="11.352" fill="#E1B168"/>
<path d="M9.64081 16.6851C10.1668 16.4594 10.6259 16.1163 11.0182 15.6559C11.4104 15.1954 11.6467 14.7259 11.7269 14.2474C11.7715 13.9946 11.7938 13.778 11.7938 13.5974C11.7938 13.3897 11.7715 13.2182 11.7269 13.0828C11.3079 13.5252 10.7775 13.7464 10.1356 13.7464C9.49372 13.7464 8.9722 13.5568 8.57103 13.1776C8.16985 12.7984 7.96927 12.2747 7.96927 11.6066C7.96927 10.9746 8.18323 10.46 8.61114 10.0627C9.03014 9.66549 9.56504 9.46686 10.2158 9.46686C11.1073 9.46686 11.7581 9.79188 12.1682 10.4419C12.3554 10.7218 12.5025 11.0649 12.6095 11.4712C12.7165 11.8865 12.7699 12.3108 12.7699 12.7442C12.7699 13.6922 12.5292 14.5589 12.0478 15.3444C11.5664 16.1299 10.8488 16.7438 9.89489 17.1862L9.64081 16.6851ZM15.284 16.6851C15.8099 16.4594 16.2691 16.1163 16.6613 15.6559C17.0536 15.1954 17.2898 14.7259 17.37 14.2474C17.4146 13.9946 17.4369 13.778 17.4369 13.5974C17.4369 13.3897 17.4146 13.2182 17.37 13.0828C16.951 13.5252 16.4206 13.7464 15.7787 13.7464C15.1369 13.7464 14.6153 13.5568 14.2142 13.1776C13.813 12.7984 13.6124 12.2747 13.6124 11.6066C13.6124 10.9746 13.8264 10.46 14.2543 10.0627C14.6733 9.66549 15.2082 9.46686 15.859 9.46686C16.7505 9.46686 17.4012 9.79188 17.8113 10.4419C17.9985 10.7218 18.1456 11.0649 18.2526 11.4712C18.3596 11.8865 18.4131 12.3108 18.4131 12.7442C18.4131 13.6922 18.1724 14.5589 17.691 15.3444C17.2096 16.1299 16.4919 16.7438 15.538 17.1862L15.284 16.6851Z" fill="#292E36"/>
</svg>
