<svg width="144" height="145" viewBox="0 0 144 145" fill="none" xmlns="http://www.w3.org/2000/svg">
<path d="M69.9281 3.41733C70.4484 1.06525 73.8016 1.06525 74.3219 3.41733L77.36 17.1523C78.0956 20.4781 82.5262 21.1798 84.2535 18.2442L91.3873 6.12022C92.6089 4.04403 95.798 5.08024 95.566 7.47798L94.2111 21.4796C93.883 24.8698 97.8798 26.9063 100.43 24.6482L110.961 15.3221C112.764 13.725 115.477 15.696 114.516 17.9047L108.9 30.8023C107.541 33.9252 110.712 37.0972 113.835 35.7375L126.733 30.1221C128.942 29.1605 130.913 31.8734 129.316 33.6768L119.99 44.2079C117.731 46.7579 119.768 50.7547 123.158 50.4266L137.16 49.0717C139.557 48.8396 140.594 52.0288 138.517 53.2504L126.394 60.3842C123.458 62.1115 124.16 66.5421 127.485 67.2777L141.22 70.3158C143.572 70.8361 143.572 74.1893 141.22 74.7096L127.485 77.7477C124.16 78.4833 123.458 82.9139 126.394 84.6412L138.517 91.775C140.594 92.9966 139.557 96.1857 137.16 95.9537L123.158 94.5988C119.768 94.2707 117.731 98.2675 119.99 100.817L129.316 111.349C130.913 113.152 128.942 115.865 126.733 114.903L113.835 109.288C110.712 107.928 107.541 111.1 108.9 114.223L114.516 127.121C115.477 129.329 112.764 131.3 110.961 129.703L100.43 120.377C97.8798 118.119 93.883 120.156 94.2111 123.546L95.566 137.547C95.798 139.945 92.6089 140.981 91.3873 138.905L84.2535 126.781C82.5262 123.846 78.0956 124.547 77.36 127.873L74.3219 141.608C73.8016 143.96 70.4484 143.96 69.9281 141.608L66.89 127.873C66.1544 124.547 61.7238 123.846 59.9965 126.781L52.8627 138.905C51.6411 140.981 48.452 139.945 48.684 137.547L50.0389 123.546C50.367 120.156 46.3702 118.119 43.8202 120.377L33.2891 129.703C31.4857 131.3 28.7728 129.329 29.7344 127.121L35.3498 114.223C36.7095 111.1 33.5376 107.928 30.4146 109.288L17.517 114.903C15.3083 115.865 13.3373 113.152 14.9344 111.349L24.2605 100.817C26.5187 98.2675 24.4822 94.2707 21.0919 94.5988L7.09028 95.9537C4.69255 96.1857 3.65634 92.9966 5.73252 91.775L17.8565 84.6412C20.7921 82.9139 20.0904 78.4833 16.7646 77.7477L3.02963 74.7096C0.677554 74.1893 0.677554 70.8361 3.02963 70.3158L16.7646 67.2777C20.0904 66.5421 20.7921 62.1115 17.8565 60.3842L5.73252 53.2504C3.65633 52.0288 4.69255 48.8396 7.09028 49.0717L21.0919 50.4266C24.4822 50.7547 26.5187 46.7579 24.2605 44.2079L14.9344 33.6768C13.3373 31.8734 15.3083 29.1605 17.517 30.1221L30.4146 35.7375C33.5376 37.0972 36.7095 33.9252 35.3498 30.8023L29.7344 17.9047C28.7728 15.696 31.4857 13.725 33.2891 15.3221L43.8202 24.6482C46.3702 26.9063 50.367 24.8699 50.0389 21.4796L48.684 7.47798C48.452 5.08025 51.6411 4.04403 52.8627 6.12022L59.9965 18.2442C61.7238 21.1798 66.1544 20.4781 66.89 17.1523L69.9281 3.41733Z" stroke="#40464F" stroke-width="1.5"/>
</svg>
