<svg width="213" height="213" viewBox="0 0 213 213" fill="none" xmlns="http://www.w3.org/2000/svg">
<path d="M98.8377 7.18073C100.563 -0.62134 111.687 -0.621344 113.412 7.18073C115.171 15.1301 125.761 16.8074 129.89 9.79047C133.942 2.90355 144.521 6.34077 143.751 14.2943C142.967 22.3979 152.52 27.2657 158.615 21.8681C164.597 16.5704 173.596 23.1084 170.406 30.4348C167.156 37.8995 174.738 45.4812 182.203 42.2313C189.529 39.0415 196.067 48.0403 190.77 54.0224C185.372 60.1175 190.24 69.671 198.343 68.8868C206.297 68.1171 209.734 78.6958 202.847 82.7481C195.83 86.8769 197.508 97.467 205.457 99.2254C213.259 100.951 213.259 112.074 205.457 113.8C197.508 115.558 195.83 126.149 202.847 130.277C209.734 134.33 206.297 144.908 198.343 144.139C190.24 143.354 185.372 152.908 190.77 159.003C196.067 164.985 189.529 173.984 182.203 170.794C174.738 167.544 167.156 175.126 170.406 182.591C173.596 189.917 164.597 196.455 158.615 191.157C152.52 185.76 142.967 190.627 143.751 198.731C144.521 206.685 133.942 210.122 129.89 203.235C125.761 196.218 115.171 197.895 113.412 205.845C111.687 213.647 100.563 213.647 98.8377 205.845C97.0793 197.895 86.4892 196.218 82.3604 203.235C78.3081 210.122 67.7294 206.685 68.4991 198.731C69.2833 190.627 59.7298 185.76 53.6347 191.157C47.6526 196.455 38.6538 189.917 41.8436 182.591C45.0936 175.126 37.5118 167.544 30.0471 170.794C22.7207 173.984 16.1827 164.985 21.4804 159.003C26.878 152.908 22.0102 143.354 13.9066 144.139C5.95308 144.908 2.51586 134.33 9.40277 130.277C16.4197 126.149 14.7424 115.558 6.79303 113.8C-1.00904 112.074 -1.00904 100.951 6.79303 99.2254C14.7424 97.467 16.4197 86.8769 9.40277 82.7481C2.51586 78.6958 5.95308 68.1171 13.9066 68.8868C22.0102 69.671 26.878 60.1175 21.4804 54.0224C16.1827 48.0403 22.7207 39.0415 30.0471 42.2313C37.5118 45.4812 45.0936 37.8995 41.8436 30.4348C38.6538 23.1084 47.6526 16.5704 53.6347 21.8681C59.7298 27.2657 69.2833 22.3979 68.4991 14.2943C67.7294 6.34078 78.3081 2.90355 82.3604 9.79047C86.4892 16.8074 97.0793 15.1301 98.8377 7.18073Z" stroke="#40464F" stroke-width="1.5"/>
</svg>
