<svg width="172" height="171" viewBox="0 0 172 171" fill="none" xmlns="http://www.w3.org/2000/svg">
<path d="M84.6838 2.19288C84.8178 0.410292 87.4322 0.410301 87.5662 2.19287C87.8252 5.63928 92.7831 5.89913 93.401 2.49866C93.7206 0.739872 96.3207 1.01312 96.2676 2.79996C96.165 6.25455 101.069 7.03124 102.038 3.71399C102.54 1.99822 105.097 2.54178 104.858 4.31327C104.395 7.73825 109.19 9.02314 110.502 5.82549C111.18 4.17157 113.666 4.97945 113.243 6.7162C112.424 10.074 117.059 11.8531 118.698 8.81007C119.545 7.23608 121.933 8.29949 121.331 9.98244C120.166 13.2363 124.589 15.4902 126.537 12.635C127.544 11.1583 129.808 12.4654 129.033 14.0762C127.534 17.1904 131.698 19.8944 133.933 17.2584C135.089 15.8951 137.204 17.4318 136.265 18.9527C134.449 21.8932 138.307 25.0175 140.806 22.6297C142.098 21.3946 144.041 23.144 142.948 24.5584C140.834 27.2929 144.345 30.8034 147.079 28.6898C148.494 27.5966 150.243 29.5395 149.008 30.8319C146.62 33.3305 149.745 37.1888 152.685 35.3726C154.206 34.4332 155.743 36.5483 154.379 37.7045C151.743 39.9398 154.447 44.1035 157.561 42.6047C159.172 41.8294 160.479 44.0936 159.003 45.1009C156.148 47.0484 158.401 51.472 161.655 50.3069C163.338 49.7043 164.402 52.0926 162.828 52.9401C159.785 54.5785 161.564 59.2134 164.921 58.3948C166.658 57.9714 167.466 60.4578 165.812 61.1361C162.615 62.4475 163.899 67.243 167.324 66.7798C169.096 66.5403 169.639 69.0975 167.924 69.5992C164.606 70.5692 165.383 75.4727 168.838 75.3701C170.625 75.317 170.898 77.9171 169.139 78.2367C165.739 78.8546 165.998 83.8124 169.445 84.0715C171.227 84.2055 171.227 86.8199 169.445 86.9539C165.998 87.2129 165.739 92.1708 169.139 92.7887C170.898 93.1083 170.625 95.7084 168.838 95.6553C165.383 95.5527 164.606 100.456 167.924 101.426C169.639 101.928 169.096 104.485 167.324 104.246C163.899 103.782 162.615 108.578 165.812 109.889C167.466 110.568 166.658 113.054 164.921 112.631C161.564 111.812 159.785 116.447 162.828 118.085C164.402 118.933 163.338 121.321 161.655 120.719C158.401 119.553 156.148 123.977 159.003 125.924C160.479 126.932 159.172 129.196 157.561 128.421C154.447 126.922 151.743 131.086 154.379 133.321C155.743 134.477 154.206 136.592 152.685 135.653C149.745 133.837 146.62 137.695 149.008 140.193C150.243 141.486 148.494 143.429 147.079 142.336C144.345 140.222 140.834 143.733 142.948 146.467C144.041 147.881 142.098 149.631 140.806 148.396C138.307 146.008 134.449 149.132 136.265 152.073C137.204 153.594 135.089 155.13 133.933 153.767C131.698 151.131 127.534 153.835 129.033 156.949C129.808 158.56 127.544 159.867 126.537 158.39C124.589 155.535 120.166 157.789 121.331 161.043C121.933 162.726 119.545 163.789 118.698 162.215C117.059 159.172 112.424 160.951 113.243 164.309C113.666 166.046 111.18 166.854 110.502 165.2C109.19 162.002 104.395 163.287 104.858 166.712C105.097 168.484 102.54 169.027 102.038 167.311C101.069 163.994 96.165 164.771 96.2676 168.225C96.3207 170.012 93.7206 170.286 93.401 168.527C92.7831 165.126 87.8252 165.386 87.5662 168.833C87.4322 170.615 84.8178 170.615 84.6838 168.833C84.4248 165.386 79.4669 165.126 78.849 168.527C78.5294 170.286 75.9293 170.012 75.9824 168.225C76.085 164.771 71.1815 163.994 70.2115 167.311C69.7098 169.027 67.1526 168.484 67.3921 166.712C67.8553 163.287 63.0598 162.002 61.7484 165.2C61.0701 166.854 58.5837 166.046 59.0071 164.309C59.8257 160.951 55.1908 159.172 53.5524 162.215C52.7049 163.789 50.3166 162.726 50.9192 161.043C52.0843 157.789 47.6608 155.535 45.7132 158.39C44.7059 159.867 42.4417 158.56 43.217 156.949C44.7158 153.835 40.5521 151.131 38.3168 153.767C37.1606 155.13 35.0455 153.594 35.9849 152.073C37.8011 149.132 33.9428 146.008 31.4442 148.396C30.1518 149.631 28.2089 147.881 29.3021 146.467C31.4157 143.733 27.9052 140.222 25.1707 142.336C23.7563 143.429 22.0069 141.486 23.242 140.193C25.6298 137.695 22.5055 133.837 19.565 135.653C18.0441 136.592 16.5074 134.477 17.8708 133.321C20.5067 131.086 17.8027 126.922 14.6885 128.421C13.0777 129.196 11.7706 126.932 13.2473 125.924C16.1025 123.977 13.8486 119.553 10.5947 120.719C8.91179 121.321 7.84838 118.933 9.42237 118.085C12.4655 116.447 10.6863 111.812 7.3285 112.631C5.59176 113.054 4.78387 110.568 6.43779 109.889C9.63545 108.578 8.35055 103.782 4.92557 104.246C3.15409 104.485 2.61052 101.928 4.32629 101.426C7.64354 100.456 6.86686 95.5527 3.41227 95.6553C1.62542 95.7084 1.35219 93.1083 3.11097 92.7887C6.51143 92.1708 6.25159 87.2129 2.80518 86.9539C1.0226 86.8199 1.02261 84.2055 2.80518 84.0715C6.25158 83.8124 6.51144 78.8546 3.11097 78.2367C1.35218 77.9171 1.62543 75.317 3.41227 75.3701C6.86688 75.4727 7.64353 70.5692 4.32629 69.5992C2.61051 69.0976 3.15409 66.5403 4.92557 66.7798C8.35052 67.243 9.63548 62.4475 6.43779 61.1361C4.78388 60.4578 5.59176 57.9714 7.32851 58.3948C10.6863 59.2134 12.4654 54.5785 9.42237 52.9401C7.84838 52.0926 8.91181 49.7042 10.5947 50.3069C13.8486 51.472 16.1025 47.0485 13.2473 45.1009C11.7706 44.0936 13.0778 41.8294 14.6885 42.6047C17.8027 44.1035 20.5067 39.9398 17.8707 37.7045C16.5074 36.5483 18.0441 34.4332 19.565 35.3726C22.5055 37.1888 25.6298 33.3305 23.242 30.8319C22.0069 29.5395 23.7563 27.5967 25.1707 28.6898C27.9052 30.8034 31.4157 27.2929 29.3021 24.5583C28.209 23.144 30.1518 21.3946 31.4442 22.6297C33.9428 25.0175 37.8011 21.8931 35.9849 18.9527C35.0455 17.4318 37.1606 15.8951 38.3168 17.2584C40.5521 19.8944 44.7158 17.1904 43.217 14.0762C42.4417 12.4655 44.7059 11.1582 45.7132 12.635C47.6608 15.4902 52.0843 13.2362 50.9192 9.98244C50.3165 8.2995 52.7049 7.23608 53.5524 8.81007C55.1908 11.8532 59.8257 10.074 59.0071 6.71621C58.5837 4.97946 61.0702 4.17157 61.7484 5.82549C63.0598 9.02317 67.8553 7.73822 67.3921 4.31326C67.1526 2.54178 69.7099 1.99821 70.2115 3.71398C71.1815 7.03123 76.085 6.25457 75.9824 2.79996C75.9293 1.01313 78.5294 0.739872 78.849 2.49867C79.4669 5.89914 84.4248 5.63928 84.6838 2.19288Z" stroke="#40464F" stroke-width="1.5"/>
</svg>
