<svg width="112" height="19" viewBox="0 0 112 19" fill="none" xmlns="http://www.w3.org/2000/svg">
<line x1="0.875" y1="18.625" x2="111.125" y2="18.625" stroke="#E1B168" stroke-width="0.75"/>
<path d="M4.38015 4.3325C4.80765 4.3325 5.2014 4.3925 5.5614 4.5125C5.9289 4.625 6.24015 4.79 6.49515 5.0075C6.75765 5.225 6.96015 5.495 7.10265 5.8175C7.25265 6.1325 7.32765 6.5 7.32765 6.92C7.32765 7.2425 7.2789 7.56125 7.1814 7.87625C7.0839 8.19125 6.9264 8.47625 6.7089 8.73125C6.4914 8.98625 6.2064 9.1925 5.8539 9.35C5.5014 9.5 5.06265 9.575 4.53765 9.575H3.34515V12.5H2.1414V4.3325H4.38015ZM4.51515 8.4275C4.82265 8.4275 5.07765 8.37875 5.28015 8.28125C5.49015 8.18375 5.6514 8.06375 5.7639 7.92125C5.8839 7.77125 5.9664 7.61375 6.0114 7.44875C6.0639 7.27625 6.09015 7.11125 6.09015 6.95375C6.09015 6.80375 6.0639 6.64625 6.0114 6.48125C5.9664 6.31625 5.8839 6.15875 5.7639 6.00875C5.6514 5.85875 5.49765 5.735 5.30265 5.6375C5.10765 5.54 4.86765 5.49125 4.58265 5.49125H3.34515V8.4275H4.51515ZM5.8989 9.125L8.0139 12.5H6.6189L4.47015 9.15875L5.8989 9.125ZM12.6606 4.3325H18.0268V5.49125H13.8643V7.82H17.5656V8.97875H13.8643V11.3412H18.1843V12.5H12.6606V4.3325ZM27.3224 5.89625C27.0374 5.74625 26.7299 5.61875 26.3999 5.51375C26.0699 5.40875 25.7512 5.35625 25.4437 5.35625C25.0237 5.35625 24.6899 5.45375 24.4424 5.64875C24.1949 5.83625 24.0712 6.095 24.0712 6.425C24.0712 6.6575 24.1537 6.86 24.3187 7.0325C24.4837 7.205 24.6974 7.355 24.9599 7.4825C25.2224 7.61 25.4999 7.73 25.7924 7.8425C26.0399 7.9325 26.2837 8.04125 26.5237 8.16875C26.7712 8.28875 26.9924 8.43875 27.1874 8.61875C27.3899 8.79875 27.5474 9.02375 27.6599 9.29375C27.7799 9.55625 27.8399 9.87875 27.8399 10.2612C27.8399 10.6962 27.7312 11.09 27.5137 11.4425C27.3037 11.795 26.9962 12.0762 26.5912 12.2862C26.1937 12.4887 25.7099 12.59 25.1399 12.59C24.7949 12.59 24.4574 12.5525 24.1274 12.4775C23.8049 12.395 23.4974 12.29 23.2049 12.1625C22.9199 12.0275 22.6612 11.8812 22.4287 11.7237L22.9687 10.79C23.1487 10.9175 23.3549 11.0412 23.5874 11.1612C23.8199 11.2737 24.0599 11.3637 24.3074 11.4312C24.5624 11.4987 24.8024 11.5325 25.0274 11.5325C25.2749 11.5325 25.5187 11.4912 25.7587 11.4087C25.9987 11.3187 26.1974 11.1837 26.3549 11.0037C26.5124 10.8162 26.5912 10.5725 26.5912 10.2725C26.5912 10.0175 26.5199 9.80375 26.3774 9.63125C26.2424 9.45125 26.0587 9.2975 25.8262 9.17C25.6012 9.0425 25.3574 8.93 25.0949 8.8325C24.8399 8.735 24.5812 8.62625 24.3187 8.50625C24.0562 8.38625 23.8124 8.24375 23.5874 8.07875C23.3624 7.90625 23.1787 7.69625 23.0362 7.44875C22.9012 7.19375 22.8337 6.8825 22.8337 6.515C22.8337 6.08 22.9349 5.70125 23.1374 5.37875C23.3474 5.04875 23.6362 4.79 24.0037 4.6025C24.3712 4.415 24.7949 4.31 25.2749 4.2875C25.8224 4.2875 26.2987 4.355 26.7037 4.49C27.1087 4.625 27.4687 4.78625 27.7837 4.97375L27.3224 5.89625ZM32.6553 4.3325H38.0215V5.49125H33.859V7.82H37.5603V8.97875H33.859V11.3412H38.179V12.5H32.6553V4.3325ZM45.3033 4.3325C45.7308 4.3325 46.1246 4.3925 46.4846 4.5125C46.8521 4.625 47.1633 4.79 47.4183 5.0075C47.6808 5.225 47.8833 5.495 48.0258 5.8175C48.1758 6.1325 48.2508 6.5 48.2508 6.92C48.2508 7.2425 48.2021 7.56125 48.1046 7.87625C48.0071 8.19125 47.8496 8.47625 47.6321 8.73125C47.4146 8.98625 47.1296 9.1925 46.7771 9.35C46.4246 9.5 45.9858 9.575 45.4608 9.575H44.2683V12.5H43.0646V4.3325H45.3033ZM45.4383 8.4275C45.7458 8.4275 46.0008 8.37875 46.2033 8.28125C46.4133 8.18375 46.5746 8.06375 46.6871 7.92125C46.8071 7.77125 46.8896 7.61375 46.9346 7.44875C46.9871 7.27625 47.0133 7.11125 47.0133 6.95375C47.0133 6.80375 46.9871 6.64625 46.9346 6.48125C46.8896 6.31625 46.8071 6.15875 46.6871 6.00875C46.5746 5.85875 46.4208 5.735 46.2258 5.6375C46.0308 5.54 45.7908 5.49125 45.5058 5.49125H44.2683V8.4275H45.4383ZM46.8221 9.125L48.9371 12.5H47.5421L45.3933 9.15875L46.8221 9.125ZM53.9852 4.3325L56.6177 10.9025L55.9314 10.7787L58.3952 4.3325H59.8127L56.1789 12.8825L52.5564 4.3325H53.9852ZM62.5454 12.5L66.1341 4.00625H66.2016L69.7904 12.5H68.4179L65.8079 5.885L66.6741 5.31125L63.7266 12.5H62.5454ZM64.7279 9.44H67.6304L68.0466 10.475H64.3679L64.7279 9.44ZM73.0591 4.3325H78.5041V5.49125H76.3554V12.5H75.1516V5.49125H73.0591V4.3325ZM83.2407 4.3325H84.4445V12.5H83.2407V4.3325ZM89.2656 8.4275C89.2656 7.865 89.3706 7.3325 89.5806 6.83C89.7981 6.3275 90.0981 5.88125 90.4806 5.49125C90.8631 5.10125 91.3056 4.7975 91.8081 4.58C92.3106 4.355 92.8506 4.2425 93.4281 4.2425C93.9981 4.2425 94.5344 4.355 95.0369 4.58C95.5394 4.7975 95.9856 5.10125 96.3756 5.49125C96.7656 5.88125 97.0694 6.3275 97.2869 6.83C97.5044 7.3325 97.6131 7.865 97.6131 8.4275C97.6131 9.005 97.5044 9.545 97.2869 10.0475C97.0694 10.55 96.7656 10.9925 96.3756 11.375C95.9931 11.7575 95.5469 12.0575 95.0369 12.275C94.5344 12.485 93.9981 12.59 93.4281 12.59C92.8506 12.59 92.3106 12.485 91.8081 12.275C91.3056 12.065 90.8631 11.7725 90.4806 11.3975C90.0981 11.015 89.7981 10.5725 89.5806 10.07C89.3706 9.56 89.2656 9.0125 89.2656 8.4275ZM90.5031 8.4275C90.5031 8.8475 90.5781 9.24125 90.7281 9.60875C90.8856 9.96875 91.0994 10.2875 91.3694 10.565C91.6394 10.835 91.9506 11.0487 92.3031 11.2062C92.6631 11.3562 93.0494 11.4312 93.4619 11.4312C93.8669 11.4312 94.2456 11.3562 94.5981 11.2062C94.9506 11.0487 95.2581 10.835 95.5206 10.565C95.7906 10.2875 96.0006 9.96875 96.1506 9.60875C96.3006 9.24125 96.3756 8.8475 96.3756 8.4275C96.3756 8.0075 96.2969 7.6175 96.1394 7.2575C95.9894 6.89 95.7794 6.5675 95.5094 6.29C95.2469 6.0125 94.9356 5.795 94.5756 5.6375C94.2231 5.48 93.8444 5.40125 93.4394 5.40125C93.0194 5.40125 92.6331 5.48 92.2806 5.6375C91.9281 5.795 91.6169 6.0125 91.3469 6.29C91.0769 6.5675 90.8669 6.89 90.7169 7.2575C90.5744 7.625 90.5031 8.015 90.5031 8.4275ZM109.566 12.7813L103.277 6.5375L103.626 6.65L103.659 12.5H102.444V4.07375H102.501L108.711 10.3287L108.429 10.25L108.407 4.3325H109.599V12.7813H109.566Z" fill="white"/>
<line x1="0.875" y1="0.625" x2="111.125" y2="0.625" stroke="#E1B168" stroke-width="0.75"/>
</svg>
