<svg width="20" height="16" viewBox="0 0 20 16" fill="none" xmlns="http://www.w3.org/2000/svg">
<path d="M19.886 2.26685C19.1695 2.57628 18.4113 2.78013 17.6355 2.87198C18.4508 2.39752 19.064 1.64376 19.3599 0.752057C18.5891 1.20001 17.7471 1.51431 16.8702 1.6815C16.5009 1.29688 16.0568 0.990906 15.5648 0.782173C15.0728 0.57344 14.5433 0.466309 14.0083 0.467292C11.8426 0.467292 10.0899 2.18379 10.0899 4.29976C10.0883 4.59408 10.1223 4.88753 10.191 5.17383C8.63793 5.10148 7.1172 4.70776 5.72606 4.01787C4.33491 3.32797 3.10399 2.35709 2.11204 1.16734C1.76404 1.75037 1.58 2.41558 1.57915 3.09346C1.57915 4.42237 2.27681 5.59703 3.33025 6.28521C2.70611 6.27049 2.09477 6.10632 1.54811 5.80665V5.85411C1.54811 7.71299 2.90123 9.25943 4.69212 9.61143C4.35535 9.70065 4.00831 9.74585 3.65977 9.7459C3.41246 9.74633 3.16571 9.72248 2.92312 9.67471C3.42099 11.1974 4.87002 12.3048 6.58649 12.3365C5.19173 13.4047 3.47934 13.9821 1.71845 13.9778C1.40588 13.9774 1.09361 13.9589 0.783203 13.9225C2.57456 15.0592 4.65688 15.6605 6.78229 15.6548C14 15.6548 17.9431 9.81314 17.9431 4.74669C17.9431 4.58057 17.9387 4.41446 17.9308 4.2523C18.6961 3.71127 19.3582 3.03893 19.886 2.26685Z" fill="white"/>
</svg>
