<svg width="136" height="20" viewBox="0 0 136 20" fill="none" xmlns="http://www.w3.org/2000/svg">
<line x1="0.25" y1="19" x2="134.5" y2="19" stroke="#E1B168" stroke-width="0.75"/>
<path d="M1.11854 4.7525H2.51354L4.62854 10.76L4.42604 10.6812L6.02354 6.575L6.57479 8.20625L4.36979 13.2575L1.11854 4.7525ZM5.07854 4.7525H6.27104L8.58854 10.6587L8.35229 10.6137L10.3323 4.7525H11.6148L8.41979 13.235L5.07854 4.7525ZM22.7831 4.7075V12.875H21.5794V9.35375H17.4394V12.875H16.2356V4.7075H17.4394V8.20625H21.5794V4.7075H22.7831ZM27.2846 12.875L30.8734 4.38125H30.9409L34.5296 12.875H33.1571L30.5471 6.26L31.4134 5.68625L28.4659 12.875H27.2846ZM29.4671 9.815H32.3696L32.7859 10.85H29.1071L29.4671 9.815ZM37.7984 4.7075H43.2434V5.86625H41.0946V12.875H39.8909V5.86625H37.7984V4.7075ZM53.8903 4.7525H55.2853L57.4003 10.76L57.1978 10.6812L58.7953 6.575L59.3465 8.20625L57.1415 13.2575L53.8903 4.7525ZM57.8503 4.7525H59.0428L61.3603 10.6587L61.124 10.6137L63.104 4.7525H64.3865L61.1915 13.235L57.8503 4.7525ZM69.0074 4.7075H74.3736V5.86625H70.2111V8.195H73.9124V9.35375H70.2111V11.7162H74.5311V12.875H69.0074V4.7075ZM85.5295 8.8025C85.5295 8.24 85.6345 7.7075 85.8445 7.205C86.062 6.7025 86.362 6.25625 86.7445 5.86625C87.127 5.47625 87.5695 5.1725 88.072 4.955C88.5745 4.73 89.1145 4.6175 89.692 4.6175C90.262 4.6175 90.7982 4.73 91.3007 4.955C91.8032 5.1725 92.2495 5.47625 92.6395 5.86625C93.0295 6.25625 93.3332 6.7025 93.5507 7.205C93.7682 7.7075 93.877 8.24 93.877 8.8025C93.877 9.38 93.7682 9.92 93.5507 10.4225C93.3332 10.925 93.0295 11.3675 92.6395 11.75C92.257 12.1325 91.8107 12.4325 91.3007 12.65C90.7982 12.86 90.262 12.965 89.692 12.965C89.1145 12.965 88.5745 12.86 88.072 12.65C87.5695 12.44 87.127 12.1475 86.7445 11.7725C86.362 11.39 86.062 10.9475 85.8445 10.445C85.6345 9.935 85.5295 9.3875 85.5295 8.8025ZM86.767 8.8025C86.767 9.2225 86.842 9.61625 86.992 9.98375C87.1495 10.3437 87.3632 10.6625 87.6332 10.94C87.9032 11.21 88.2145 11.4237 88.567 11.5812C88.927 11.7312 89.3132 11.8062 89.7257 11.8062C90.1307 11.8062 90.5095 11.7312 90.862 11.5812C91.2145 11.4237 91.522 11.21 91.7845 10.94C92.0545 10.6625 92.2645 10.3437 92.4145 9.98375C92.5645 9.61625 92.6395 9.2225 92.6395 8.8025C92.6395 8.3825 92.5607 7.9925 92.4032 7.6325C92.2532 7.265 92.0432 6.9425 91.7732 6.665C91.5107 6.3875 91.1995 6.17 90.8395 6.0125C90.487 5.855 90.1082 5.77625 89.7032 5.77625C89.2832 5.77625 88.897 5.855 88.5445 6.0125C88.192 6.17 87.8807 6.3875 87.6107 6.665C87.3407 6.9425 87.1307 7.265 86.9807 7.6325C86.8382 8 86.767 8.39 86.767 8.8025ZM98.7082 4.7075H103.602V5.86625H99.912V8.31875H103.141V9.46625H99.912V12.875H98.7082V4.7075ZM108.392 4.7075H113.286V5.86625H109.596V8.31875H112.825V9.46625H109.596V12.875H108.392V4.7075ZM118.077 4.7075H123.443V5.86625H119.28V8.195H122.982V9.35375H119.28V11.7162H123.6V12.875H118.077V4.7075ZM130.725 4.7075C131.152 4.7075 131.546 4.7675 131.906 4.8875C132.274 5 132.585 5.165 132.84 5.3825C133.102 5.6 133.305 5.87 133.447 6.1925C133.597 6.5075 133.672 6.875 133.672 7.295C133.672 7.6175 133.624 7.93625 133.526 8.25125C133.429 8.56625 133.271 8.85125 133.054 9.10625C132.836 9.36125 132.551 9.5675 132.199 9.725C131.846 9.875 131.407 9.95 130.882 9.95H129.69V12.875H128.486V4.7075H130.725ZM130.86 8.8025C131.167 8.8025 131.422 8.75375 131.625 8.65625C131.835 8.55875 131.996 8.43875 132.109 8.29625C132.229 8.14625 132.311 7.98875 132.356 7.82375C132.409 7.65125 132.435 7.48625 132.435 7.32875C132.435 7.17875 132.409 7.02125 132.356 6.85625C132.311 6.69125 132.229 6.53375 132.109 6.38375C131.996 6.23375 131.842 6.11 131.647 6.0125C131.452 5.915 131.212 5.86625 130.927 5.86625H129.69V8.8025H130.86ZM132.244 9.5L134.359 12.875H132.964L130.815 9.53375L132.244 9.5Z" fill="white"/>
<line x1="0.25" y1="1" x2="134.5" y2="1" stroke="#E1B168" stroke-width="0.75"/>
</svg>
