<svg width="139" height="20" viewBox="0 0 139 20" fill="none" xmlns="http://www.w3.org/2000/svg">
<line x1="0.75" y1="18.8877" x2="135.75" y2="18.8877" stroke="#E1B168" stroke-width="0.75"/>
<path d="M1.27283 4.64019H2.66783L4.78283 10.6477L4.58033 10.5689L6.17783 6.4627L6.72908 8.09395L4.52408 13.1452L1.27283 4.64019ZM5.23283 4.64019H6.42533L8.74283 10.5464L8.50658 10.5014L10.4866 4.64019H11.7691L8.57408 13.1227L5.23283 4.64019ZM15.2794 8.6902C15.2794 8.1277 15.3844 7.5952 15.5944 7.0927C15.8119 6.59019 16.1119 6.14394 16.4944 5.75395C16.8769 5.36395 17.3194 5.0602 17.8219 4.84269C18.3244 4.61769 18.8644 4.5052 19.4419 4.5052C20.0119 4.5052 20.5482 4.61769 21.0507 4.84269C21.5532 5.0602 21.9994 5.36395 22.3894 5.75395C22.7794 6.14394 23.0832 6.59019 23.3007 7.0927C23.5182 7.5952 23.6269 8.1277 23.6269 8.6902C23.6269 9.2677 23.5182 9.8077 23.3007 10.3102C23.0832 10.8127 22.7794 11.2552 22.3894 11.6377C22.0069 12.0202 21.5607 12.3202 21.0507 12.5377C20.5482 12.7477 20.0119 12.8527 19.4419 12.8527C18.8644 12.8527 18.3244 12.7477 17.8219 12.5377C17.3194 12.3277 16.8769 12.0352 16.4944 11.6602C16.1119 11.2777 15.8119 10.8352 15.5944 10.3327C15.3844 9.8227 15.2794 9.2752 15.2794 8.6902ZM16.5169 8.6902C16.5169 9.1102 16.5919 9.50395 16.7419 9.87145C16.8994 10.2314 17.1132 10.5502 17.3832 10.8277C17.6532 11.0977 17.9644 11.3114 18.3169 11.4689C18.6769 11.6189 19.0632 11.6939 19.4757 11.6939C19.8807 11.6939 20.2594 11.6189 20.6119 11.4689C20.9644 11.3114 21.2719 11.0977 21.5344 10.8277C21.8044 10.5502 22.0144 10.2314 22.1644 9.87145C22.3144 9.50395 22.3894 9.1102 22.3894 8.6902C22.3894 8.2702 22.3107 7.8802 22.1532 7.5202C22.0032 7.15269 21.7932 6.83019 21.5232 6.55269C21.2607 6.27519 20.9494 6.05769 20.5894 5.9002C20.2369 5.74269 19.8582 5.66394 19.4532 5.66394C19.0332 5.66394 18.6469 5.74269 18.2944 5.9002C17.9419 6.05769 17.6307 6.27519 17.3607 6.55269C17.0907 6.83019 16.8807 7.15269 16.7307 7.5202C16.5882 7.8877 16.5169 8.2777 16.5169 8.6902ZM30.6969 4.5952C31.1244 4.5952 31.5182 4.6552 31.8782 4.77519C32.2457 4.88769 32.5569 5.05269 32.8119 5.2702C33.0744 5.4877 33.2769 5.75769 33.4194 6.08019C33.5694 6.39519 33.6444 6.76269 33.6444 7.1827C33.6444 7.5052 33.5957 7.82395 33.4982 8.13895C33.4007 8.45395 33.2432 8.73895 33.0257 8.99395C32.8082 9.24895 32.5232 9.4552 32.1707 9.6127C31.8182 9.7627 31.3794 9.8377 30.8544 9.8377H29.6619V12.7627H28.4582V4.5952H30.6969ZM30.8319 8.6902C31.1394 8.6902 31.3944 8.64145 31.5969 8.54394C31.8069 8.44645 31.9682 8.32645 32.0807 8.18395C32.2007 8.03395 32.2832 7.87645 32.3282 7.71144C32.3807 7.53894 32.4069 7.37394 32.4069 7.21644C32.4069 7.06645 32.3807 6.90895 32.3282 6.74395C32.2832 6.57894 32.2007 6.42144 32.0807 6.27145C31.9682 6.12145 31.8144 5.9977 31.6194 5.9002C31.4244 5.8027 31.1844 5.75395 30.8994 5.75395H29.6619V8.6902H30.8319ZM32.2157 9.3877L34.3307 12.7627H32.9357L30.7869 9.42145L32.2157 9.3877ZM40.1924 7.8127L40.1586 8.2177L40.3274 7.98145L43.5224 4.5952H45.0749L41.6999 8.13895L45.2324 12.7627H43.7136L40.8224 8.8927L40.1924 9.51145V12.7627H38.9774V4.5952H40.1924V7.8127ZM49.7053 4.5952H50.9091V12.7627H49.7053V4.5952ZM63.3577 13.0439L57.069 6.80019L57.4177 6.91269L57.4515 12.7627H56.2365V4.33645H56.2927L62.5027 10.5914L62.2215 10.5127L62.199 4.5952H63.3915V13.0439H63.3577ZM75.1794 12.0427C75.0669 12.1402 74.9094 12.2377 74.7069 12.3352C74.5044 12.4327 74.2757 12.5189 74.0207 12.5939C73.7732 12.6689 73.5182 12.7289 73.2557 12.7739C72.9932 12.8264 72.7457 12.8527 72.5132 12.8527C71.8532 12.8527 71.2607 12.7514 70.7357 12.5489C70.2107 12.3464 69.7607 12.0652 69.3857 11.7052C69.0107 11.3452 68.7219 10.9252 68.5194 10.4452C68.3244 9.9577 68.2269 9.42895 68.2269 8.85895C68.2269 8.16145 68.3394 7.5427 68.5644 7.0027C68.7894 6.46269 69.0932 6.00894 69.4757 5.64145C69.8657 5.26645 70.3119 4.9852 70.8144 4.7977C71.3244 4.6027 71.8569 4.5052 72.4119 4.5052C72.8994 4.5052 73.3494 4.56144 73.7619 4.67394C74.1819 4.78644 74.5419 4.93269 74.8419 5.1127L74.4482 6.2152C74.2982 6.13269 74.1107 6.05394 73.8857 5.97894C73.6682 5.89644 73.4432 5.8327 73.2107 5.7877C72.9782 5.74269 72.7644 5.72019 72.5694 5.72019C72.0894 5.72019 71.6582 5.79144 71.2757 5.93394C70.9007 6.06894 70.5782 6.26769 70.3082 6.5302C70.0382 6.79269 69.8282 7.11144 69.6782 7.48645C69.5357 7.86145 69.4644 8.2852 69.4644 8.7577C69.4644 9.1852 69.5394 9.57895 69.6894 9.93895C69.8394 10.2914 70.0494 10.5989 70.3194 10.8614C70.5894 11.1164 70.9119 11.3152 71.2869 11.4577C71.6619 11.5927 72.0782 11.6602 72.5357 11.6602C72.7982 11.6602 73.0569 11.6339 73.3119 11.5814C73.5669 11.5289 73.7844 11.4539 73.9644 11.3564V9.87145H72.3894V8.7127H75.1794V12.0427ZM93.4187 4.5952V12.7627H92.2149V9.24145H88.0749V12.7627H86.8712V4.5952H88.0749V8.09395H92.2149V4.5952H93.4187ZM98.2464 8.6902C98.2464 8.1277 98.3514 7.5952 98.5614 7.0927C98.7789 6.59019 99.0789 6.14394 99.4614 5.75395C99.8439 5.36395 100.286 5.0602 100.789 4.84269C101.291 4.61769 101.831 4.5052 102.409 4.5052C102.979 4.5052 103.515 4.61769 104.018 4.84269C104.52 5.0602 104.966 5.36395 105.356 5.75395C105.746 6.14394 106.05 6.59019 106.268 7.0927C106.485 7.5952 106.594 8.1277 106.594 8.6902C106.594 9.2677 106.485 9.8077 106.268 10.3102C106.05 10.8127 105.746 11.2552 105.356 11.6377C104.974 12.0202 104.528 12.3202 104.018 12.5377C103.515 12.7477 102.979 12.8527 102.409 12.8527C101.831 12.8527 101.291 12.7477 100.789 12.5377C100.286 12.3277 99.8439 12.0352 99.4614 11.6602C99.0789 11.2777 98.7789 10.8352 98.5614 10.3327C98.3514 9.8227 98.2464 9.2752 98.2464 8.6902ZM99.4839 8.6902C99.4839 9.1102 99.5589 9.50395 99.7089 9.87145C99.8664 10.2314 100.08 10.5502 100.35 10.8277C100.62 11.0977 100.931 11.3114 101.284 11.4689C101.644 11.6189 102.03 11.6939 102.443 11.6939C102.848 11.6939 103.226 11.6189 103.579 11.4689C103.931 11.3114 104.239 11.0977 104.501 10.8277C104.771 10.5502 104.981 10.2314 105.131 9.87145C105.281 9.50395 105.356 9.1102 105.356 8.6902C105.356 8.2702 105.278 7.8802 105.12 7.5202C104.97 7.15269 104.76 6.83019 104.49 6.55269C104.228 6.27519 103.916 6.05769 103.556 5.9002C103.204 5.74269 102.825 5.66394 102.42 5.66394C102 5.66394 101.614 5.74269 101.261 5.9002C100.909 6.05769 100.598 6.27519 100.328 6.55269C100.058 6.83019 99.8477 7.15269 99.6977 7.5202C99.5552 7.8877 99.4839 8.2777 99.4839 8.6902ZM112.505 9.84895C112.505 10.1939 112.591 10.5052 112.764 10.7827C112.936 11.0602 113.165 11.2814 113.45 11.4464C113.735 11.6114 114.054 11.6939 114.406 11.6939C114.781 11.6939 115.115 11.6114 115.408 11.4464C115.7 11.2814 115.929 11.0602 116.094 10.7827C116.266 10.5052 116.353 10.1939 116.353 9.84895V4.5952H117.534V9.8827C117.534 10.4752 117.395 10.9964 117.118 11.4464C116.84 11.8889 116.465 12.2339 115.993 12.4814C115.52 12.7289 114.991 12.8527 114.406 12.8527C113.836 12.8527 113.315 12.7289 112.843 12.4814C112.37 12.2339 111.995 11.8889 111.718 11.4464C111.448 10.9964 111.313 10.4752 111.313 9.8827V4.5952H112.505V9.84895ZM124.985 4.5952C125.413 4.5952 125.806 4.6552 126.166 4.77519C126.534 4.88769 126.845 5.05269 127.1 5.2702C127.363 5.4877 127.565 5.75769 127.708 6.08019C127.858 6.39519 127.933 6.76269 127.933 7.1827C127.933 7.5052 127.884 7.82395 127.786 8.13895C127.689 8.45395 127.531 8.73895 127.314 8.99395C127.096 9.24895 126.811 9.4552 126.459 9.6127C126.106 9.7627 125.668 9.8377 125.143 9.8377H123.95V12.7627H122.746V4.5952H124.985ZM125.12 8.6902C125.428 8.6902 125.683 8.64145 125.885 8.54394C126.095 8.44645 126.256 8.32645 126.369 8.18395C126.489 8.03395 126.571 7.87645 126.616 7.71144C126.669 7.53894 126.695 7.37394 126.695 7.21644C126.695 7.06645 126.669 6.90895 126.616 6.74395C126.571 6.57894 126.489 6.42144 126.369 6.27145C126.256 6.12145 126.103 5.9977 125.908 5.9002C125.713 5.8027 125.473 5.75395 125.188 5.75395H123.95V8.6902H125.12ZM126.504 9.3877L128.619 12.7627H127.224L125.075 9.42145L126.504 9.3877ZM137.518 6.15895C137.233 6.00894 136.926 5.88144 136.596 5.77644C136.266 5.67144 135.947 5.61894 135.639 5.61894C135.219 5.61894 134.886 5.71644 134.638 5.91145C134.391 6.09894 134.267 6.35769 134.267 6.6877C134.267 6.9202 134.349 7.1227 134.514 7.29519C134.679 7.46769 134.893 7.6177 135.156 7.7452C135.418 7.8727 135.696 7.9927 135.988 8.10519C136.236 8.1952 136.479 8.30395 136.719 8.43145C136.967 8.55145 137.188 8.70145 137.383 8.88144C137.586 9.06145 137.743 9.28645 137.856 9.55645C137.976 9.81895 138.036 10.1414 138.036 10.5239C138.036 10.9589 137.927 11.3527 137.709 11.7052C137.499 12.0577 137.192 12.3389 136.787 12.5489C136.389 12.7514 135.906 12.8527 135.336 12.8527C134.991 12.8527 134.653 12.8152 134.323 12.7402C134.001 12.6577 133.693 12.5527 133.401 12.4252C133.116 12.2902 132.857 12.1439 132.624 11.9864L133.164 11.0527C133.344 11.1802 133.551 11.3039 133.783 11.4239C134.016 11.5364 134.256 11.6264 134.503 11.6939C134.758 11.7614 134.998 11.7952 135.223 11.7952C135.471 11.7952 135.714 11.7539 135.954 11.6714C136.194 11.5814 136.393 11.4464 136.551 11.2664C136.708 11.0789 136.787 10.8352 136.787 10.5352C136.787 10.2802 136.716 10.0664 136.573 9.89395C136.438 9.71395 136.254 9.5602 136.022 9.4327C135.797 9.3052 135.553 9.1927 135.291 9.0952C135.036 8.9977 134.777 8.88895 134.514 8.76895C134.252 8.64895 134.008 8.50645 133.783 8.34145C133.558 8.16895 133.374 7.95895 133.232 7.71144C133.097 7.45645 133.029 7.1452 133.029 6.7777C133.029 6.3427 133.131 5.96395 133.333 5.64145C133.543 5.31144 133.832 5.05269 134.199 4.8652C134.567 4.67769 134.991 4.57269 135.471 4.5502C136.018 4.5502 136.494 4.6177 136.899 4.7527C137.304 4.8877 137.664 5.04895 137.979 5.23644L137.518 6.15895Z" fill="white"/>
<line x1="0.75" y1="0.887695" x2="135.75" y2="0.887695" stroke="#E1B168" stroke-width="0.75"/>
</svg>
